<svg width="152" height="152" fill="none" xmlns="http://www.w3.org/2000/svg"><g clip-path="url(#clip0)"><path fill="#006AB3" d="M0 0h152v152H0z"/><path d="M69.85 121.14c0 3.627 1.472 5.44 4.42 5.44 5.326 0 12.41-8.897 21.25-26.69.34-.68.622-1.36.85-2.04.34-.68.792-1.133 1.36-1.36.68-.227 1.132-.057 1.36.51.226.453.112 1.247-.34 2.38C89.681 120.46 80.501 131 71.21 131c-3.06 0-5.498-1.36-7.31-4.08-1.814-2.72-2.72-5.383-2.72-7.99 0-2.72.282-5.213.85-7.48-6.574 10.88-12.24 17.057-17 18.53-1.36.567-2.72.85-4.08.85-1.248 0-2.494-.17-3.74-.51-5.554-1.473-8.33-5.893-8.33-13.26 0-4.987 1.246-10.483 3.74-16.49 2.606-6.12 6.232-11.957 10.88-17.51 4.646-5.553 10.256-9.293 16.83-11.22 2.38-.793 5.156-1.19 8.33-1.19 3.286 0 6.912 1.02 10.88 3.06 7.706-14.507 14.28-27.937 19.72-40.29 1.586-3.74 3.116-6.12 4.589-7.14 1.587-1.133 3.003-1.7 4.25-1.7h2.38c.34 0 1.417.17 3.23.51 1.927.227 3.4.283 4.42.17-2.607 2.38-9.52 13.94-20.74 34.68-14.28 26.52-22.893 44.2-25.84 53.04-1.133 3.287-1.7 6.007-1.7 8.16zm8.33-44.71c-1.474-1.473-3.57-2.21-6.29-2.21-2.608 0-6.29 1.983-11.05 5.95-7.594 6.347-13.884 14.167-18.87 23.46-3.288 6.12-4.93 11.163-4.93 15.13 0 1.813.34 3.457 1.02 4.93.792 1.473 1.982 2.21 3.57 2.21 3.852 0 8.612-3.967 14.28-11.9 5.666-7.933 13.09-20.457 22.27-37.57z" fill="#fff"/><path d="M95.52 99.89l-2.684-1.342-.004.007 2.687 1.335zm.85-2.04l-2.684-1.342-.096.191-.067.202 2.846.949zm1.36-1.36l-.95-2.846-.083.028-.082.033 1.114 2.785zm1.36.51l-2.786 1.114.046.116.056.112L99.089 97zm-.34 2.38l2.755 1.185.015-.035.014-.036-2.785-1.114zm-36.72 12.07l2.91.728-5.479-2.279 2.568 1.551zm-17 18.53l-.888-2.866-.136.042-.13.055 1.153 2.769zm-7.82.34l.788-2.894-.01-.003-.01-.003-.769 2.9zm-4.59-29.75l-2.761-1.176-.005.013-.006.013 2.771 1.15zM43.5 83.06l2.3 1.925-2.3-1.925zm16.83-11.22l.843 2.879.053-.016.052-.017-.949-2.846zm19.21 1.87l-1.373 2.668 2.633 1.354 1.388-2.614-2.649-1.408zm19.72-40.29l2.745 1.21.008-.02.008-.018-2.762-1.172zm4.589-7.14l1.708 2.467.018-.013.018-.013-1.744-2.441zm9.86-1.19l-.553 2.949.101.018.102.012.35-2.979zm4.42.17l2.023 2.215 6.807-6.215-9.161 1.018.331 2.982zm-20.74 34.68l-2.639-1.427-.002.005 2.641 1.422zm-25.84 53.04l2.836.978.005-.015.005-.014-2.846-.949zm6.63-36.55l2.644 1.418 1.053-1.964L80.3 74.31l-2.12 2.121zm-17.34 3.74l-1.92-2.305-.004.003 1.924 2.302zm-18.87 23.46l2.643 1.419v-.001l-2.643-1.418zm-3.91 20.06l-2.724 1.257.039.084.044.081 2.641-1.422zM55.91 114l-2.441-1.744L55.909 114zm10.94 7.14c0 2.142.423 4.305 1.777 5.972 1.45 1.785 3.524 2.468 5.643 2.468v-6c-.827 0-.964-.224-.987-.252-.119-.147-.433-.703-.433-2.188h-6zm7.42 8.44c2.177 0 4.224-.905 6.072-2.23 1.858-1.331 3.715-3.228 5.583-5.574 3.735-4.692 7.826-11.583 12.282-20.551l-5.374-2.67c-4.384 8.825-8.255 15.279-11.602 19.484-1.674 2.102-3.14 3.542-4.385 4.435-1.254.899-2.09 1.106-2.576 1.106v6zm23.933-28.348c.4-.8.739-1.61 1.013-2.433L93.523 96.9c-.18.538-.407 1.087-.687 1.647l5.366 2.684zm.85-2.04c.052-.104.073-.11.033-.07a.796.796 0 01-.242.154l-2.228-5.571c-1.405.562-2.344 1.634-2.93 2.803l5.367 2.684zm-.374.144c-.01.003-.49.169-1.152-.08a2.117 2.117 0 01-1.222-1.142l5.57-2.228c-.339-.849-1.029-1.793-2.242-2.248-1.115-.418-2.162-.224-2.852.006l1.898 5.692zm-2.272-.994a1.89 1.89 0 01-.198-.667c-.012-.13 0-.193-.004-.164a1.82 1.82 0 01-.057.236c-.039.134-.098.305-.183.519l5.57 2.228c.275-.686.507-1.413.61-2.135.097-.677.131-1.695-.372-2.7l-5.366 2.683zm-.413-.147c-4.478 10.412-8.894 17.996-13.191 22.93-4.31 4.948-8.174 6.875-11.593 6.875v6c5.875 0 11.247-3.343 16.117-8.935 4.883-5.606 9.59-13.832 14.179-24.5l-5.512-2.37zM71.21 128c-1.978 0-3.512-.791-4.814-2.744l-4.992 3.328c2.324 3.487 5.664 5.416 9.806 5.416v-6zm-4.814-2.744c-1.568-2.353-2.216-4.446-2.216-6.326h-6c0 3.333 1.166 6.567 3.224 9.654l4.992-3.328zm-2.216-6.326c0-2.514.262-4.759.76-6.752l-5.82-1.456c-.635 2.54-.94 5.282-.94 8.208h6zm-4.718-9.031c-3.23 5.347-6.174 9.428-8.823 12.315-2.69 2.933-4.86 4.394-6.496 4.9l1.774 5.732c3.125-.967 6.168-3.332 9.144-6.575 3.017-3.29 6.194-7.737 9.537-13.27l-5.136-3.102zm-15.586 17.312c-1.025.427-1.994.619-2.926.619v6c1.788 0 3.539-.375 5.234-1.081l-2.308-5.538zm-2.926.619c-.97 0-1.952-.132-2.95-.404l-1.58 5.788c1.495.408 3.007.616 4.53.616v-6zm-2.97-.41c-2.123-.563-3.535-1.616-4.477-3.116-.989-1.574-1.623-3.904-1.623-7.244h-6c0 4.026.754 7.59 2.542 10.436 1.835 2.92 4.588 4.814 8.019 5.724l1.538-5.8zm-6.1-10.36c0-4.492 1.125-9.592 3.51-15.34l-5.54-2.3c-2.602 6.265-3.97 12.158-3.97 17.64h6zm3.5-15.314c2.482-5.826 5.947-11.414 10.42-16.76l-4.6-3.851c-4.82 5.76-8.608 11.846-11.34 18.26l5.52 2.351zm10.42-16.76c4.29-5.127 9.403-8.517 15.374-10.267l-1.688-5.758c-7.176 2.103-13.282 6.193-18.287 12.174l4.602 3.85zm15.479-10.3c2.005-.668 4.449-1.036 7.381-1.036v-6c-3.414 0-6.524.426-9.279 1.344l1.898 5.692zm7.381-1.036c2.67 0 5.822.832 9.508 2.728l2.744-5.336c-4.247-2.184-8.349-3.392-12.252-3.392v6zm13.53 1.468c7.734-14.559 14.34-28.056 19.816-40.489l-5.492-2.418C91.11 44.484 84.57 57.847 76.89 72.302l5.298 2.816zm19.832-40.526c.753-1.775 1.456-3.14 2.099-4.14.661-1.028 1.158-1.513 1.437-1.705l-3.416-4.934c-1.194.828-2.199 2.043-3.068 3.395-.887 1.38-1.742 3.075-2.576 5.04l5.524 2.344zm3.572-5.87c1.344-.961 2.148-1.142 2.506-1.142v-6c-2.135 0-4.165.953-5.994 2.259l3.488 4.882zm2.506-1.142H110.479v-6h-.003-.001-.003-.003-.001-.003-.003-.003-.003-.003-.002-.003-.003-.002-.003-.002-.003-.002-.005-.002-.007-.002H110.406h-.002-.002-.002-.002-.002-.002-.002-.002-.002-.002-.002-.002-.002-.015-.011H110.345h-.007-.007-.012-.005-.005-.01-.005H110.281h-.008-.008H108.099v6zm2.38 0c-.104 0-.122-.008.036.01.126.016.309.041.559.08.497.08 1.187.2 2.082.369l1.106-5.898a83.523 83.523 0 00-2.253-.397c-.487-.077-1.082-.164-1.53-.164v6zm2.88.49c1.99.234 3.736.323 5.101.172l-.662-5.964c-.674.075-1.876.052-3.738-.168l-.701 5.96zm2.747-5.026c-.935.855-2.027 2.287-3.217 4.03-1.238 1.813-2.731 4.186-4.475 7.101-3.489 5.835-8.046 13.953-13.664 24.338l5.278 2.855c5.602-10.356 10.112-18.388 13.536-24.113 1.713-2.865 3.138-5.124 4.28-6.797 1.19-1.742 1.94-2.647 2.308-2.983l-4.046-4.43zM94.748 58.518C80.495 84.986 71.747 102.9 68.703 112.03l5.692 1.898c2.85-8.549 11.328-25.995 25.635-52.567l-5.282-2.844zm-26.035 53.484c-1.184 3.433-1.864 6.511-1.864 9.138h6c0-1.68.453-4.041 1.536-7.182l-5.672-1.956zM80.3 74.309c-2.192-2.193-5.148-3.089-8.41-3.089v6c2.176 0 3.414.577 4.168 1.331L80.3 74.31zm-8.41-3.089c-2.014 0-4.099.747-6.14 1.846-2.082 1.12-4.363 2.742-6.831 4.8l3.84 4.609c2.292-1.91 4.233-3.263 5.835-4.126 1.641-.884 2.701-1.129 3.295-1.129v-6zm-12.975 6.648c-7.906 6.608-14.434 14.735-19.59 24.344l5.287 2.836c4.818-8.978 10.87-16.491 18.151-22.576l-3.848-4.604zm-19.589 24.343c-3.369 6.273-5.287 11.843-5.287 16.549h6c0-3.227 1.369-7.744 4.573-13.711l-5.286-2.838zM34.04 118.76c0 2.196.414 4.276 1.296 6.187l5.448-2.514c-.478-1.035-.744-2.242-.744-3.673h-6zm1.379 6.352c.597 1.109 1.428 2.092 2.55 2.786 1.13.7 2.386 1.002 3.661 1.002v-6c-.312 0-.444-.066-.503-.103-.068-.042-.23-.165-.425-.529l-5.283 2.844zm6.211 3.788c2.945 0 5.768-1.493 8.38-3.67 2.656-2.213 5.434-5.416 8.341-9.486l-4.882-3.488c-2.76 3.863-5.195 6.611-7.3 8.364-2.147 1.79-3.63 2.28-4.539 2.28v6zm16.721-13.156c5.782-8.095 13.28-20.757 22.473-37.896l-5.288-2.836C66.37 92.1 59.02 104.485 53.468 112.256l4.882 3.488z" fill="#fff"/></g><defs><clipPath id="clip0"><path d="M0 25C0 11.193 11.193 0 25 0h102c13.807 0 25 11.193 25 25v102c0 13.807-11.193 25-25 25H25c-13.807 0-25-11.193-25-25V25z" fill="#fff"/></clipPath></defs></svg>