<svg width="135" height="84" viewBox="0 0 135 84" fill="none" xmlns="http://www.w3.org/2000/svg">
<path d="M125.37 16.744C129.338 16.744 131.322 15.784 131.322 13.864C131.322 12.904 131.642 12.424 132.282 12.424C132.986 12.424 133.338 13.224 133.338 14.824C133.338 16.36 132.442 17.544 130.65 18.376C128.858 19.208 127.258 19.624 125.85 19.624C124.506 19.624 123.386 19.56 122.49 19.432C113.082 18.216 105.018 16.168 98.2975 13.288C93.7535 20.456 89.6895 29.992 86.1055 41.896C84.7615 46.184 82.8415 50.824 80.3455 55.816C77.9135 60.808 75.2575 64.936 72.3775 68.2C69.5615 71.4 66.2975 74.024 62.5855 76.072C55.2895 80.04 46.6815 82.024 36.7615 82.024C28.6975 82.024 21.1455 80.04 14.1055 76.072C7.1935 72.168 3.1615 66.152 2.0095 58.024C1.8815 56.936 1.8175 55.336 1.8175 53.224C1.8175 51.048 2.4255 47.976 3.6415 44.008C4.9215 40.04 7.2895 37.032 10.7455 34.984C12.1535 34.152 13.2095 33.736 13.9135 33.736C15.0655 33.736 15.5775 34.28 15.4495 35.368C15.1935 35.688 14.5215 36.232 13.4335 37C12.4095 37.704 11.4175 38.472 10.4575 39.304C9.4975 40.072 8.5375 41.288 7.5775 42.952C5.9135 45.768 5.0815 48.936 5.0815 52.456C5.0815 60.52 7.8335 66.728 13.3375 71.08C16.2815 73.512 19.5775 75.368 23.2255 76.648C26.8735 77.928 30.5215 78.568 34.1695 78.568C34.2975 78.568 34.4575 78.568 34.6495 78.568C47.8975 78.248 58.7775 73.448 67.2895 64.168C72.6655 58.344 80.0255 45.192 89.3695 24.712C92.5695 17.672 94.6175 13.544 95.5135 12.328C84.1855 8.744 74.0095 6.952 64.9855 6.952C55.9615 6.952 48.6335 9.672 43.0015 15.112C38.4575 19.464 36.1855 24.008 36.1855 28.744C36.1855 33.928 38.4575 37.224 43.0015 38.632C44.6015 39.08 46.0415 39.304 47.3215 39.304C48.6655 39.304 50.1695 39.08 51.8335 38.632C53.5615 38.12 55.1935 37.128 56.7295 35.656C58.3295 34.12 59.5135 32.616 60.2815 31.144C61.1135 29.672 61.4655 28.552 61.3375 27.784V27.592C61.8495 27.144 62.2975 27.016 62.6815 27.208C63.0655 27.336 63.2575 27.72 63.2575 28.36C62.6175 33.352 60.0895 37.096 55.6735 39.592C52.9855 41.192 50.4895 41.992 48.1855 41.992C45.8815 41.992 43.8335 41.672 42.0415 41.032C36.7935 39.176 33.4655 35.624 32.0575 30.376C31.6095 28.712 31.3855 27.08 31.3855 25.48C31.3855 21.64 32.5695 17.896 34.9375 14.248C39.1615 7.72 45.7855 3.784 54.8095 2.44C56.8575 2.12 58.8095 1.96 60.6655 1.96C62.5215 1.96 64.6655 2.056 67.0975 2.248C69.5935 2.44 72.8575 3.08 76.8895 4.168C80.9855 5.256 85.1455 6.536 89.3695 8.008C93.6575 9.416 96.2175 10.248 97.0495 10.504C100.186 6.664 102.522 4.712 104.058 4.648C104.378 4.52 104.794 4.456 105.306 4.456C105.882 4.456 106.33 4.904 106.65 5.8C106.97 6.696 106.746 7.272 105.978 7.528C105.658 7.592 105.242 7.56 104.729 7.432C104.346 7.176 103.546 7.592 102.33 8.68C101.178 9.704 100.314 10.568 99.7375 11.272C105.754 13.192 111.034 14.6 115.578 15.496C120.122 16.328 123.386 16.744 125.37 16.744Z" fill="white"/>
<path d="M130.65 18.376L131.281 19.7365L131.281 19.7365L130.65 18.376ZM122.49 19.432L122.702 17.9471L122.692 17.9457L122.682 17.9444L122.49 19.432ZM98.2975 13.288L98.8884 11.9093L97.7145 11.4062L97.0306 12.4849L98.2975 13.288ZM86.1055 41.896L87.5368 42.3446L87.5394 42.3365L87.5418 42.3284L86.1055 41.896ZM80.3455 55.816L79.0039 55.1452L79.0004 55.1521L78.997 55.159L80.3455 55.816ZM72.3775 68.2L71.2527 67.2076L71.2514 67.2091L72.3775 68.2ZM62.5855 76.072L63.3022 77.3898L63.3101 77.3854L62.5855 76.072ZM14.1055 76.072L13.3678 77.3781L13.369 77.3787L14.1055 76.072ZM2.0095 58.024L0.519774 58.1993L0.52185 58.2169L0.524343 58.2345L2.0095 58.024ZM3.6415 44.008L2.21394 43.5475L2.21056 43.558L2.20733 43.5685L3.6415 44.008ZM10.7455 34.984L9.98241 33.6926L9.9808 33.6936L10.7455 34.984ZM15.4495 35.368L16.6208 36.305L16.8891 35.9697L16.9392 35.5433L15.4495 35.368ZM13.4335 37L14.2833 38.2361L14.2909 38.2308L14.2985 38.2254L13.4335 37ZM10.4575 39.304L11.3945 40.4753L11.4176 40.4569L11.4399 40.4375L10.4575 39.304ZM7.5775 42.952L8.86889 43.7151L8.87287 43.7084L8.87678 43.7016L7.5775 42.952ZM13.3375 71.08L14.2928 69.9236L14.2804 69.9133L14.2679 69.9034L13.3375 71.08ZM23.2255 76.648L23.7221 75.2326L23.7221 75.2326L23.2255 76.648ZM34.6495 78.568V80.068H34.6676L34.6857 80.0676L34.6495 78.568ZM67.2895 64.168L66.1873 63.1506L66.1841 63.1541L67.2895 64.168ZM89.3695 24.712L90.7342 25.3346L90.7351 25.3327L89.3695 24.712ZM95.5135 12.328L96.7211 13.2178L97.9646 11.5302L95.966 10.8979L95.5135 12.328ZM43.0015 15.112L44.039 16.1953L44.0436 16.1909L43.0015 15.112ZM43.0015 38.632L42.5575 40.0648L42.5772 40.0709L42.5971 40.0764L43.0015 38.632ZM51.8335 38.632L52.2235 40.0804L52.2416 40.0755L52.2596 40.0702L51.8335 38.632ZM56.7295 35.656L57.7674 36.739L57.7683 36.7381L56.7295 35.656ZM60.2815 31.144L58.9757 30.4059L58.9633 30.4278L58.9516 30.4501L60.2815 31.144ZM61.3375 27.784H59.8375V27.9081L59.8579 28.0306L61.3375 27.784ZM61.3375 27.592L60.3497 26.4631L59.8375 26.9113V27.592H61.3375ZM62.6815 27.208L62.0107 28.5496L62.106 28.5973L62.2072 28.631L62.6815 27.208ZM63.2575 28.36L64.7453 28.5507L64.7575 28.4558V28.36H63.2575ZM55.6735 39.592L54.9354 38.2862L54.9208 38.2944L54.9063 38.3031L55.6735 39.592ZM42.0415 41.032L42.546 39.6194L42.5416 39.6178L42.0415 41.032ZM32.0575 30.376L33.5063 29.9873L33.5059 29.986L32.0575 30.376ZM34.9375 14.248L36.1957 15.0647L36.1969 15.0629L34.9375 14.248ZM54.8095 2.44L55.0305 3.92367L55.0411 3.92202L54.8095 2.44ZM67.0975 2.248L66.9795 3.74335L66.9825 3.74358L67.0975 2.248ZM76.8895 4.168L76.4987 5.61621L76.5044 5.61773L76.8895 4.168ZM89.3695 8.008L88.8759 9.42445L88.8887 9.42891L88.9015 9.43313L89.3695 8.008ZM97.0495 10.504L96.6084 11.9377L97.573 12.2345L98.2113 11.4528L97.0495 10.504ZM104.058 4.648L104.12 6.1467L104.376 6.13602L104.615 6.04071L104.058 4.648ZM105.978 7.528L106.272 8.99887L106.363 8.98055L106.452 8.95102L105.978 7.528ZM104.729 7.432L103.897 8.68007L104.114 8.8242L104.366 8.88721L104.729 7.432ZM102.33 8.68L103.326 9.80112L103.33 9.79786L102.33 8.68ZM99.7375 11.272L98.5766 10.3221L97.1792 12.0301L99.2814 12.701L99.7375 11.272ZM115.578 15.496L115.287 16.9677L115.297 16.9696L115.307 16.9715L115.578 15.496ZM125.37 18.244C127.427 18.244 129.188 18.0029 130.487 17.3742C131.157 17.05 131.756 16.5979 132.185 15.975C132.622 15.3402 132.822 14.6168 132.822 13.864H129.822C129.822 14.0712 129.773 14.1878 129.714 14.273C129.647 14.3701 129.502 14.5179 129.18 14.6738C128.495 15.0051 127.28 15.244 125.37 15.244V18.244ZM132.822 13.864C132.822 13.7026 132.835 13.6062 132.846 13.5594C132.856 13.5121 132.856 13.5457 132.81 13.616C132.756 13.6964 132.663 13.7902 132.532 13.8556C132.408 13.918 132.31 13.924 132.282 13.924V10.924C131.525 10.924 130.786 11.2436 130.313 11.9519C129.913 12.5529 129.822 13.2647 129.822 13.864H132.822ZM132.282 13.924C132.152 13.924 131.983 13.8799 131.838 13.7696C131.711 13.6739 131.684 13.5896 131.701 13.6281C131.718 13.6676 131.756 13.7775 131.787 13.9917C131.818 14.201 131.838 14.4753 131.838 14.824H134.838C134.838 13.9603 134.75 13.1086 134.446 12.4199C134.287 12.0584 134.04 11.6741 133.649 11.3784C133.24 11.068 132.763 10.924 132.282 10.924V13.924ZM131.838 14.824C131.838 15.2773 131.713 15.6369 131.469 15.9588C131.21 16.3012 130.762 16.67 130.018 17.0155L131.281 19.7365C132.329 19.25 133.225 18.6108 133.862 17.7692C134.514 16.9071 134.838 15.9067 134.838 14.824H131.838ZM130.018 17.0155C128.349 17.7902 126.97 18.124 125.85 18.124V21.124C127.545 21.124 129.366 20.6258 131.281 19.7365L130.018 17.0155ZM125.85 18.124C124.546 18.124 123.503 18.0615 122.702 17.9471L122.277 20.9169C123.268 21.0585 124.465 21.124 125.85 21.124V18.124ZM122.682 17.9444C113.373 16.7412 105.45 14.7214 98.8884 11.9093L97.7066 14.6667C104.585 17.6146 112.79 19.6908 122.297 20.9196L122.682 17.9444ZM97.0306 12.4849C92.3882 19.8081 88.2761 29.4835 84.6692 41.4636L87.5418 42.3284C91.1029 30.5004 95.1188 21.1039 99.5644 14.0911L97.0306 12.4849ZM84.6742 41.4474C83.359 45.6434 81.4723 50.2084 79.0039 55.1452L81.6871 56.4868C84.2107 51.4396 86.164 46.7246 87.5368 42.3446L84.6742 41.4474ZM78.997 55.159C76.6088 60.0613 74.0228 64.0682 71.2527 67.2076L73.5023 69.1924C76.4922 65.8038 79.2183 61.5547 81.694 56.473L78.997 55.159ZM71.2514 67.2091C68.549 70.28 65.4206 72.7946 61.8609 74.7586L63.3101 77.3854C67.1744 75.2534 70.574 72.52 73.5036 69.1909L71.2514 67.2091ZM61.8688 74.7543C54.8318 78.5814 46.4797 80.524 36.7615 80.524V83.524C46.8833 83.524 55.7472 81.4986 63.3022 77.3897L61.8688 74.7543ZM36.7615 80.524C28.9561 80.524 21.6577 78.6069 14.842 74.7653L13.369 77.3787C20.6333 81.4731 28.4389 83.524 36.7615 83.524V80.524ZM14.8432 74.7659C8.35295 71.1001 4.58386 65.4984 3.49466 57.8135L0.524343 58.2345C1.73914 66.8056 6.03405 73.2359 13.3678 77.3781L14.8432 74.7659ZM3.49923 57.8487C3.38173 56.85 3.3175 55.3205 3.3175 53.224H0.3175C0.3175 55.3515 0.381272 57.022 0.519774 58.1993L3.49923 57.8487ZM3.3175 53.224C3.3175 51.2767 3.87133 48.3774 5.07567 44.4475L2.20733 43.5685C0.979669 47.5746 0.3175 50.8193 0.3175 53.224H3.3175ZM5.06906 44.4685C6.24139 40.8343 8.38181 38.1283 11.5102 36.2744L9.9808 33.6936C6.19719 35.9357 3.60161 39.2457 2.21394 43.5475L5.06906 44.4685ZM11.5086 36.2754C12.1714 35.8838 12.7134 35.613 13.1433 35.4436C13.5903 35.2675 13.8296 35.236 13.9135 35.236V32.236C13.2934 32.236 12.6527 32.4125 12.0437 32.6524C11.4176 32.899 10.7276 33.2522 9.98241 33.6926L11.5086 36.2754ZM13.9135 35.236C13.9993 35.236 14.0644 35.2411 14.1118 35.2476C14.1591 35.2541 14.184 35.2613 14.1914 35.2637C14.1983 35.266 14.1857 35.2626 14.161 35.2477C14.1355 35.2322 14.1026 35.2075 14.0692 35.172C14.0356 35.1364 14.0097 35.0983 13.9914 35.0631C13.9736 35.0286 13.967 35.0045 13.9654 34.9976C13.9639 34.9914 13.9672 35.0026 13.9683 35.0359C13.9695 35.0693 13.9682 35.1207 13.9598 35.1927L16.9392 35.5433C17.0302 34.7697 16.9338 33.8384 16.2538 33.116C15.5919 32.4127 14.6819 32.236 13.9135 32.236V35.236ZM14.2782 34.431C14.2802 34.4284 14.2726 34.4381 14.2505 34.4611C14.2291 34.4835 14.1987 34.5137 14.1574 34.5522C14.0739 34.6299 13.9597 34.7287 13.8097 34.8501C13.509 35.0935 13.0982 35.4006 12.5685 35.7745L14.2985 38.2254C14.8568 37.8314 15.326 37.4825 15.6973 37.1819C16.0461 36.8995 16.3856 36.5991 16.6208 36.305L14.2782 34.431ZM12.5837 35.7639C11.5126 36.5003 10.4764 37.3027 9.4751 38.1705L11.4399 40.4375C12.3586 39.6413 13.3064 38.9077 14.2833 38.2361L12.5837 35.7639ZM9.52046 38.1327C8.35596 39.0643 7.28495 40.4574 6.27822 42.2024L8.87678 43.7016C9.79005 42.1186 10.639 41.0797 11.3945 40.4753L9.52046 38.1327ZM6.28611 42.1889C4.47516 45.2536 3.5815 48.6887 3.5815 52.456H6.5815C6.5815 49.1833 7.35184 46.2824 8.86889 43.7151L6.28611 42.1889ZM3.5815 52.456C3.5815 60.9014 6.48682 67.5754 12.4071 72.2566L14.2679 69.9034C9.18018 65.8806 6.5815 60.1386 6.5815 52.456H3.5815ZM12.3822 72.2364C15.4643 74.7826 18.916 76.7256 22.7289 78.0634L23.7221 75.2326C20.239 74.0104 17.0987 72.2414 14.2928 69.9236L12.3822 72.2364ZM22.7289 78.0634C26.5269 79.396 30.3425 80.068 34.1695 80.068V77.068C30.7005 77.068 27.2201 76.46 23.7221 75.2326L22.7289 78.0634ZM34.1695 80.068C34.1698 80.068 34.17 80.068 34.1703 80.068C34.1705 80.068 34.1708 80.068 34.171 80.068C34.1713 80.068 34.1715 80.068 34.1718 80.068C34.172 80.068 34.1723 80.068 34.1725 80.068C34.1728 80.068 34.173 80.068 34.1733 80.068C34.1735 80.068 34.1738 80.068 34.174 80.068C34.1743 80.068 34.1745 80.068 34.1748 80.068C34.175 80.068 34.1753 80.068 34.1755 80.068C34.1758 80.068 34.176 80.068 34.1763 80.068C34.1765 80.068 34.1768 80.068 34.177 80.068C34.1773 80.068 34.1775 80.068 34.1778 80.068C34.178 80.068 34.1783 80.068 34.1786 80.068C34.1788 80.068 34.1791 80.068 34.1793 80.068C34.1796 80.068 34.1798 80.068 34.1801 80.068C34.1803 80.068 34.1806 80.068 34.1808 80.068C34.1811 80.068 34.1813 80.068 34.1816 80.068C34.1818 80.068 34.1821 80.068 34.1824 80.068C34.1826 80.068 34.1829 80.068 34.1831 80.068C34.1834 80.068 34.1836 80.068 34.1839 80.068C34.1841 80.068 34.1844 80.068 34.1846 80.068C34.1849 80.068 34.1852 80.068 34.1854 80.068C34.1857 80.068 34.1859 80.068 34.1862 80.068C34.1864 80.068 34.1867 80.068 34.1869 80.068C34.1872 80.068 34.1875 80.068 34.1877 80.068C34.188 80.068 34.1882 80.068 34.1885 80.068C34.1887 80.068 34.189 80.068 34.1892 80.068C34.1895 80.068 34.1898 80.068 34.19 80.068C34.1903 80.068 34.1905 80.068 34.1908 80.068C34.191 80.068 34.1913 80.068 34.1916 80.068C34.1918 80.068 34.1921 80.068 34.1923 80.068C34.1926 80.068 34.1928 80.068 34.1931 80.068C34.1934 80.068 34.1936 80.068 34.1939 80.068C34.1941 80.068 34.1944 80.068 34.1947 80.068C34.1949 80.068 34.1952 80.068 34.1954 80.068C34.1957 80.068 34.1959 80.068 34.1962 80.068C34.1965 80.068 34.1967 80.068 34.197 80.068C34.1972 80.068 34.1975 80.068 34.1978 80.068C34.198 80.068 34.1983 80.068 34.1985 80.068C34.1988 80.068 34.199 80.068 34.1993 80.068C34.1996 80.068 34.1998 80.068 34.2001 80.068C34.2003 80.068 34.2006 80.068 34.2009 80.068C34.2011 80.068 34.2014 80.068 34.2016 80.068C34.2019 80.068 34.2022 80.068 34.2024 80.068C34.2027 80.068 34.2029 80.068 34.2032 80.068C34.2035 80.068 34.2037 80.068 34.204 80.068C34.2043 80.068 34.2045 80.068 34.2048 80.068C34.205 80.068 34.2053 80.068 34.2056 80.068C34.2058 80.068 34.2061 80.068 34.2063 80.068C34.2066 80.068 34.2069 80.068 34.2071 80.068C34.2074 80.068 34.2077 80.068 34.2079 80.068C34.2082 80.068 34.2084 80.068 34.2087 80.068C34.209 80.068 34.2092 80.068 34.2095 80.068C34.2098 80.068 34.21 80.068 34.2103 80.068C34.2105 80.068 34.2108 80.068 34.2111 80.068C34.2113 80.068 34.2116 80.068 34.2119 80.068C34.2121 80.068 34.2124 80.068 34.2126 80.068C34.2129 80.068 34.2132 80.068 34.2134 80.068C34.2137 80.068 34.214 80.068 34.2142 80.068C34.2145 80.068 34.2148 80.068 34.215 80.068C34.2153 80.068 34.2156 80.068 34.2158 80.068C34.2161 80.068 34.2163 80.068 34.2166 80.068C34.2169 80.068 34.2171 80.068 34.2174 80.068C34.2177 80.068 34.2179 80.068 34.2182 80.068C34.2185 80.068 34.2187 80.068 34.219 80.068C34.2193 80.068 34.2195 80.068 34.2198 80.068C34.2201 80.068 34.2203 80.068 34.2206 80.068C34.2209 80.068 34.2211 80.068 34.2214 80.068C34.2217 80.068 34.2219 80.068 34.2222 80.068C34.2225 80.068 34.2227 80.068 34.223 80.068C34.2233 80.068 34.2235 80.068 34.2238 80.068C34.2241 80.068 34.2243 80.068 34.2246 80.068C34.2249 80.068 34.2251 80.068 34.2254 80.068C34.2257 80.068 34.2259 80.068 34.2262 80.068C34.2265 80.068 34.2267 80.068 34.227 80.068C34.2273 80.068 34.2275 80.068 34.2278 80.068C34.2281 80.068 34.2283 80.068 34.2286 80.068C34.2289 80.068 34.2292 80.068 34.2294 80.068C34.2297 80.068 34.23 80.068 34.2302 80.068C34.2305 80.068 34.2308 80.068 34.231 80.068C34.2313 80.068 34.2316 80.068 34.2318 80.068C34.2321 80.068 34.2324 80.068 34.2327 80.068C34.2329 80.068 34.2332 80.068 34.2335 80.068C34.2337 80.068 34.234 80.068 34.2343 80.068C34.2345 80.068 34.2348 80.068 34.2351 80.068C34.2354 80.068 34.2356 80.068 34.2359 80.068C34.2362 80.068 34.2364 80.068 34.2367 80.068C34.237 80.068 34.2373 80.068 34.2375 80.068C34.2378 80.068 34.2381 80.068 34.2383 80.068C34.2386 80.068 34.2389 80.068 34.2392 80.068C34.2394 80.068 34.2397 80.068 34.24 80.068C34.2402 80.068 34.2405 80.068 34.2408 80.068C34.2411 80.068 34.2413 80.068 34.2416 80.068C34.2419 80.068 34.2421 80.068 34.2424 80.068C34.2427 80.068 34.243 80.068 34.2432 80.068C34.2435 80.068 34.2438 80.068 34.2441 80.068C34.2443 80.068 34.2446 80.068 34.2449 80.068C34.2451 80.068 34.2454 80.068 34.2457 80.068C34.246 80.068 34.2462 80.068 34.2465 80.068C34.2468 80.068 34.2471 80.068 34.2473 80.068C34.2476 80.068 34.2479 80.068 34.2482 80.068C34.2484 80.068 34.2487 80.068 34.249 80.068C34.2493 80.068 34.2495 80.068 34.2498 80.068C34.2501 80.068 34.2504 80.068 34.2506 80.068C34.2509 80.068 34.2512 80.068 34.2515 80.068C34.2517 80.068 34.252 80.068 34.2523 80.068C34.2526 80.068 34.2528 80.068 34.2531 80.068C34.2534 80.068 34.2537 80.068 34.2539 80.068C34.2542 80.068 34.2545 80.068 34.2548 80.068C34.255 80.068 34.2553 80.068 34.2556 80.068C34.2559 80.068 34.2562 80.068 34.2564 80.068C34.2567 80.068 34.257 80.068 34.2573 80.068C34.2575 80.068 34.2578 80.068 34.2581 80.068C34.2584 80.068 34.2586 80.068 34.2589 80.068C34.2592 80.068 34.2595 80.068 34.2598 80.068C34.26 80.068 34.2603 80.068 34.2606 80.068C34.2609 80.068 34.2612 80.068 34.2614 80.068C34.2617 80.068 34.262 80.068 34.2623 80.068C34.2625 80.068 34.2628 80.068 34.2631 80.068C34.2634 80.068 34.2637 80.068 34.2639 80.068C34.2642 80.068 34.2645 80.068 34.2648 80.068C34.2651 80.068 34.2653 80.068 34.2656 80.068C34.2659 80.068 34.2662 80.068 34.2665 80.068C34.2667 80.068 34.267 80.068 34.2673 80.068C34.2676 80.068 34.2679 80.068 34.2681 80.068C34.2684 80.068 34.2687 80.068 34.269 80.068C34.2693 80.068 34.2695 80.068 34.2698 80.068C34.2701 80.068 34.2704 80.068 34.2707 80.068C34.2709 80.068 34.2712 80.068 34.2715 80.068C34.2718 80.068 34.2721 80.068 34.2723 80.068C34.2726 80.068 34.2729 80.068 34.2732 80.068C34.2735 80.068 34.2738 80.068 34.274 80.068C34.2743 80.068 34.2746 80.068 34.2749 80.068C34.2752 80.068 34.2754 80.068 34.2757 80.068C34.276 80.068 34.2763 80.068 34.2766 80.068C34.2769 80.068 34.2771 80.068 34.2774 80.068C34.2777 80.068 34.278 80.068 34.2783 80.068C34.2786 80.068 34.2788 80.068 34.2791 80.068C34.2794 80.068 34.2797 80.068 34.28 80.068C34.2803 80.068 34.2805 80.068 34.2808 80.068C34.2811 80.068 34.2814 80.068 34.2817 80.068C34.282 80.068 34.2822 80.068 34.2825 80.068C34.2828 80.068 34.2831 80.068 34.2834 80.068C34.2837 80.068 34.284 80.068 34.2842 80.068C34.2845 80.068 34.2848 80.068 34.2851 80.068C34.2854 80.068 34.2857 80.068 34.286 80.068C34.2862 80.068 34.2865 80.068 34.2868 80.068C34.2871 80.068 34.2874 80.068 34.2877 80.068C34.288 80.068 34.2882 80.068 34.2885 80.068C34.2888 80.068 34.2891 80.068 34.2894 80.068C34.2897 80.068 34.29 80.068 34.2902 80.068C34.2905 80.068 34.2908 80.068 34.2911 80.068C34.2914 80.068 34.2917 80.068 34.292 80.068C34.2922 80.068 34.2925 80.068 34.2928 80.068C34.2931 80.068 34.2934 80.068 34.2937 80.068C34.294 80.068 34.2943 80.068 34.2945 80.068C34.2948 80.068 34.2951 80.068 34.2954 80.068C34.2957 80.068 34.296 80.068 34.2963 80.068C34.2966 80.068 34.2969 80.068 34.2971 80.068C34.2974 80.068 34.2977 80.068 34.298 80.068C34.2983 80.068 34.2986 80.068 34.2989 80.068C34.2992 80.068 34.2995 80.068 34.2997 80.068C34.3 80.068 34.3003 80.068 34.3006 80.068C34.3009 80.068 34.3012 80.068 34.3015 80.068C34.3018 80.068 34.3021 80.068 34.3024 80.068C34.3026 80.068 34.3029 80.068 34.3032 80.068C34.3035 80.068 34.3038 80.068 34.3041 80.068C34.3044 80.068 34.3047 80.068 34.305 80.068C34.3053 80.068 34.3055 80.068 34.3058 80.068C34.3061 80.068 34.3064 80.068 34.3067 80.068C34.307 80.068 34.3073 80.068 34.3076 80.068C34.3079 80.068 34.3082 80.068 34.3085 80.068C34.3088 80.068 34.309 80.068 34.3093 80.068C34.3096 80.068 34.3099 80.068 34.3102 80.068C34.3105 80.068 34.3108 80.068 34.3111 80.068C34.3114 80.068 34.3117 80.068 34.312 80.068C34.3123 80.068 34.3126 80.068 34.3128 80.068C34.3131 80.068 34.3134 80.068 34.3137 80.068C34.314 80.068 34.3143 80.068 34.3146 80.068C34.3149 80.068 34.3152 80.068 34.3155 80.068C34.3158 80.068 34.3161 80.068 34.3164 80.068C34.3167 80.068 34.317 80.068 34.3172 80.068C34.3175 80.068 34.3178 80.068 34.3181 80.068C34.3184 80.068 34.3187 80.068 34.319 80.068C34.3193 80.068 34.3196 80.068 34.3199 80.068C34.3202 80.068 34.3205 80.068 34.3208 80.068C34.3211 80.068 34.3214 80.068 34.3217 80.068C34.322 80.068 34.3223 80.068 34.3226 80.068C34.3229 80.068 34.3231 80.068 34.3234 80.068C34.3237 80.068 34.324 80.068 34.3243 80.068C34.3246 80.068 34.3249 80.068 34.3252 80.068C34.3255 80.068 34.3258 80.068 34.3261 80.068C34.3264 80.068 34.3267 80.068 34.327 80.068C34.3273 80.068 34.3276 80.068 34.3279 80.068C34.3282 80.068 34.3285 80.068 34.3288 80.068C34.3291 80.068 34.3294 80.068 34.3297 80.068C34.33 80.068 34.3303 80.068 34.3306 80.068C34.3309 80.068 34.3312 80.068 34.3315 80.068C34.3318 80.068 34.3321 80.068 34.3324 80.068C34.3327 80.068 34.333 80.068 34.3333 80.068C34.3336 80.068 34.3339 80.068 34.3341 80.068C34.3344 80.068 34.3347 80.068 34.335 80.068C34.3353 80.068 34.3356 80.068 34.3359 80.068C34.3362 80.068 34.3365 80.068 34.3368 80.068C34.3371 80.068 34.3374 80.068 34.3377 80.068C34.338 80.068 34.3383 80.068 34.3386 80.068C34.3389 80.068 34.3392 80.068 34.3395 80.068C34.3398 80.068 34.3401 80.068 34.3404 80.068C34.3407 80.068 34.341 80.068 34.3413 80.068C34.3416 80.068 34.3419 80.068 34.3422 80.068C34.3425 80.068 34.3429 80.068 34.3432 80.068C34.3435 80.068 34.3438 80.068 34.3441 80.068C34.3444 80.068 34.3447 80.068 34.345 80.068C34.3453 80.068 34.3456 80.068 34.3459 80.068C34.3462 80.068 34.3465 80.068 34.3468 80.068C34.3471 80.068 34.3474 80.068 34.3477 80.068C34.348 80.068 34.3483 80.068 34.3486 80.068C34.3489 80.068 34.3492 80.068 34.3495 80.068C34.3498 80.068 34.3501 80.068 34.3504 80.068C34.3507 80.068 34.351 80.068 34.3513 80.068C34.3516 80.068 34.3519 80.068 34.3522 80.068C34.3525 80.068 34.3528 80.068 34.3531 80.068C34.3534 80.068 34.3537 80.068 34.354 80.068C34.3544 80.068 34.3547 80.068 34.355 80.068C34.3553 80.068 34.3556 80.068 34.3559 80.068C34.3562 80.068 34.3565 80.068 34.3568 80.068C34.3571 80.068 34.3574 80.068 34.3577 80.068C34.358 80.068 34.3583 80.068 34.3586 80.068C34.3589 80.068 34.3592 80.068 34.3595 80.068C34.3598 80.068 34.3601 80.068 34.3605 80.068C34.3608 80.068 34.3611 80.068 34.3614 80.068C34.3617 80.068 34.362 80.068 34.3623 80.068C34.3626 80.068 34.3629 80.068 34.3632 80.068C34.3635 80.068 34.3638 80.068 34.3641 80.068C34.3644 80.068 34.3647 80.068 34.3651 80.068C34.3654 80.068 34.3657 80.068 34.366 80.068C34.3663 80.068 34.3666 80.068 34.3669 80.068C34.3672 80.068 34.3675 80.068 34.3678 80.068C34.3681 80.068 34.3684 80.068 34.3687 80.068C34.3691 80.068 34.3694 80.068 34.3697 80.068C34.37 80.068 34.3703 80.068 34.3706 80.068C34.3709 80.068 34.3712 80.068 34.3715 80.068C34.3718 80.068 34.3721 80.068 34.3724 80.068C34.3728 80.068 34.3731 80.068 34.3734 80.068C34.3737 80.068 34.374 80.068 34.3743 80.068C34.3746 80.068 34.3749 80.068 34.3752 80.068C34.3755 80.068 34.3759 80.068 34.3762 80.068C34.3765 80.068 34.3768 80.068 34.3771 80.068C34.3774 80.068 34.3777 80.068 34.378 80.068C34.3783 80.068 34.3786 80.068 34.379 80.068C34.3793 80.068 34.3796 80.068 34.3799 80.068C34.3802 80.068 34.3805 80.068 34.3808 80.068C34.3811 80.068 34.3814 80.068 34.3818 80.068C34.3821 80.068 34.3824 80.068 34.3827 80.068C34.383 80.068 34.3833 80.068 34.3836 80.068C34.3839 80.068 34.3843 80.068 34.3846 80.068C34.3849 80.068 34.3852 80.068 34.3855 80.068C34.3858 80.068 34.3861 80.068 34.3864 80.068C34.3868 80.068 34.3871 80.068 34.3874 80.068C34.3877 80.068 34.388 80.068 34.3883 80.068C34.3886 80.068 34.3889 80.068 34.3893 80.068C34.3896 80.068 34.3899 80.068 34.3902 80.068C34.3905 80.068 34.3908 80.068 34.3911 80.068C34.3915 80.068 34.3918 80.068 34.3921 80.068C34.3924 80.068 34.3927 80.068 34.393 80.068C34.3933 80.068 34.3937 80.068 34.394 80.068C34.3943 80.068 34.3946 80.068 34.3949 80.068C34.3952 80.068 34.3955 80.068 34.3959 80.068C34.3962 80.068 34.3965 80.068 34.3968 80.068C34.3971 80.068 34.3974 80.068 34.3978 80.068C34.3981 80.068 34.3984 80.068 34.3987 80.068C34.399 80.068 34.3993 80.068 34.3996 80.068C34.4 80.068 34.4003 80.068 34.4006 80.068C34.4009 80.068 34.4012 80.068 34.4015 80.068C34.4019 80.068 34.4022 80.068 34.4025 80.068C34.4028 80.068 34.4031 80.068 34.4034 80.068C34.4038 80.068 34.4041 80.068 34.4044 80.068C34.4047 80.068 34.405 80.068 34.4054 80.068C34.4057 80.068 34.406 80.068 34.4063 80.068C34.4066 80.068 34.4069 80.068 34.4073 80.068C34.4076 80.068 34.4079 80.068 34.4082 80.068C34.4085 80.068 34.4088 80.068 34.4092 80.068C34.4095 80.068 34.4098 80.068 34.4101 80.068C34.4104 80.068 34.4108 80.068 34.4111 80.068C34.4114 80.068 34.4117 80.068 34.412 80.068C34.4124 80.068 34.4127 80.068 34.413 80.068C34.4133 80.068 34.4136 80.068 34.414 80.068C34.4143 80.068 34.4146 80.068 34.4149 80.068C34.4152 80.068 34.4156 80.068 34.4159 80.068C34.4162 80.068 34.4165 80.068 34.4168 80.068C34.4172 80.068 34.4175 80.068 34.4178 80.068C34.4181 80.068 34.4184 80.068 34.4188 80.068C34.4191 80.068 34.4194 80.068 34.4197 80.068C34.42 80.068 34.4204 80.068 34.4207 80.068C34.421 80.068 34.4213 80.068 34.4217 80.068C34.422 80.068 34.4223 80.068 34.4226 80.068C34.4229 80.068 34.4233 80.068 34.4236 80.068C34.4239 80.068 34.4242 80.068 34.4246 80.068C34.4249 80.068 34.4252 80.068 34.4255 80.068C34.4258 80.068 34.4262 80.068 34.4265 80.068C34.4268 80.068 34.4271 80.068 34.4275 80.068C34.4278 80.068 34.4281 80.068 34.4284 80.068C34.4288 80.068 34.4291 80.068 34.4294 80.068C34.4297 80.068 34.43 80.068 34.4304 80.068C34.4307 80.068 34.431 80.068 34.4313 80.068C34.4317 80.068 34.432 80.068 34.4323 80.068C34.4326 80.068 34.433 80.068 34.4333 80.068C34.4336 80.068 34.4339 80.068 34.4343 80.068C34.4346 80.068 34.4349 80.068 34.4352 80.068C34.4356 80.068 34.4359 80.068 34.4362 80.068C34.4365 80.068 34.4369 80.068 34.4372 80.068C34.4375 80.068 34.4378 80.068 34.4382 80.068C34.4385 80.068 34.4388 80.068 34.4391 80.068C34.4395 80.068 34.4398 80.068 34.4401 80.068C34.4405 80.068 34.4408 80.068 34.4411 80.068C34.4414 80.068 34.4418 80.068 34.4421 80.068C34.4424 80.068 34.4427 80.068 34.4431 80.068C34.4434 80.068 34.4437 80.068 34.4441 80.068C34.4444 80.068 34.4447 80.068 34.445 80.068C34.4454 80.068 34.4457 80.068 34.446 80.068C34.4463 80.068 34.4467 80.068 34.447 80.068C34.4473 80.068 34.4477 80.068 34.448 80.068C34.4483 80.068 34.4486 80.068 34.449 80.068C34.4493 80.068 34.4496 80.068 34.45 80.068C34.4503 80.068 34.4506 80.068 34.4509 80.068C34.4513 80.068 34.4516 80.068 34.4519 80.068C34.4523 80.068 34.4526 80.068 34.4529 80.068C34.4533 80.068 34.4536 80.068 34.4539 80.068C34.4542 80.068 34.4546 80.068 34.4549 80.068C34.4552 80.068 34.4556 80.068 34.4559 80.068C34.4562 80.068 34.4566 80.068 34.4569 80.068C34.4572 80.068 34.4575 80.068 34.4579 80.068C34.4582 80.068 34.4585 80.068 34.4589 80.068C34.4592 80.068 34.4595 80.068 34.4599 80.068C34.4602 80.068 34.4605 80.068 34.4609 80.068C34.4612 80.068 34.4615 80.068 34.4618 80.068C34.4622 80.068 34.4625 80.068 34.4628 80.068C34.4632 80.068 34.4635 80.068 34.4638 80.068C34.4642 80.068 34.4645 80.068 34.4648 80.068C34.4652 80.068 34.4655 80.068 34.4658 80.068C34.4662 80.068 34.4665 80.068 34.4668 80.068C34.4672 80.068 34.4675 80.068 34.4678 80.068C34.4682 80.068 34.4685 80.068 34.4688 80.068C34.4692 80.068 34.4695 80.068 34.4698 80.068C34.4702 80.068 34.4705 80.068 34.4708 80.068C34.4712 80.068 34.4715 80.068 34.4718 80.068C34.4722 80.068 34.4725 80.068 34.4728 80.068C34.4732 80.068 34.4735 80.068 34.4738 80.068C34.4742 80.068 34.4745 80.068 34.4749 80.068C34.4752 80.068 34.4755 80.068 34.4759 80.068C34.4762 80.068 34.4765 80.068 34.4769 80.068C34.4772 80.068 34.4775 80.068 34.4779 80.068C34.4782 80.068 34.4785 80.068 34.4789 80.068C34.4792 80.068 34.4795 80.068 34.4799 80.068C34.4802 80.068 34.4806 80.068 34.4809 80.068C34.4812 80.068 34.4816 80.068 34.4819 80.068C34.4822 80.068 34.4826 80.068 34.4829 80.068C34.4833 80.068 34.4836 80.068 34.4839 80.068C34.4843 80.068 34.4846 80.068 34.4849 80.068C34.4853 80.068 34.4856 80.068 34.4859 80.068C34.4863 80.068 34.4866 80.068 34.487 80.068C34.4873 80.068 34.4876 80.068 34.488 80.068C34.4883 80.068 34.4887 80.068 34.489 80.068C34.4893 80.068 34.4897 80.068 34.49 80.068C34.4903 80.068 34.4907 80.068 34.491 80.068C34.4914 80.068 34.4917 80.068 34.492 80.068C34.4924 80.068 34.4927 80.068 34.4931 80.068C34.4934 80.068 34.4937 80.068 34.4941 80.068C34.4944 80.068 34.4948 80.068 34.4951 80.068C34.4954 80.068 34.4958 80.068 34.4961 80.068C34.4965 80.068 34.4968 80.068 34.4971 80.068C34.4975 80.068 34.4978 80.068 34.4982 80.068C34.4985 80.068 34.4988 80.068 34.4992 80.068C34.4995 80.068 34.4999 80.068 34.5002 80.068C34.5005 80.068 34.5009 80.068 34.5012 80.068C34.5016 80.068 34.5019 80.068 34.5022 80.068C34.5026 80.068 34.5029 80.068 34.5033 80.068C34.5036 80.068 34.504 80.068 34.5043 80.068C34.5046 80.068 34.505 80.068 34.5053 80.068C34.5057 80.068 34.506 80.068 34.5064 80.068C34.5067 80.068 34.507 80.068 34.5074 80.068C34.5077 80.068 34.5081 80.068 34.5084 80.068C34.5088 80.068 34.5091 80.068 34.5094 80.068C34.5098 80.068 34.5101 80.068 34.5105 80.068C34.5108 80.068 34.5112 80.068 34.5115 80.068C34.5118 80.068 34.5122 80.068 34.5125 80.068C34.5129 80.068 34.5132 80.068 34.5136 80.068C34.5139 80.068 34.5143 80.068 34.5146 80.068C34.5149 80.068 34.5153 80.068 34.5156 80.068C34.516 80.068 34.5163 80.068 34.5167 80.068C34.517 80.068 34.5174 80.068 34.5177 80.068C34.518 80.068 34.5184 80.068 34.5187 80.068C34.5191 80.068 34.5194 80.068 34.5198 80.068C34.5201 80.068 34.5205 80.068 34.5208 80.068C34.5212 80.068 34.5215 80.068 34.5219 80.068C34.5222 80.068 34.5225 80.068 34.5229 80.068C34.5232 80.068 34.5236 80.068 34.5239 80.068C34.5243 80.068 34.5246 80.068 34.525 80.068C34.5253 80.068 34.5257 80.068 34.526 80.068C34.5264 80.068 34.5267 80.068 34.5271 80.068C34.5274 80.068 34.5277 80.068 34.5281 80.068C34.5284 80.068 34.5288 80.068 34.5291 80.068C34.5295 80.068 34.5298 80.068 34.5302 80.068C34.5305 80.068 34.5309 80.068 34.5312 80.068C34.5316 80.068 34.5319 80.068 34.5323 80.068C34.5326 80.068 34.533 80.068 34.5333 80.068C34.5337 80.068 34.534 80.068 34.5344 80.068C34.5347 80.068 34.5351 80.068 34.5354 80.068C34.5358 80.068 34.5361 80.068 34.5365 80.068C34.5368 80.068 34.5372 80.068 34.5375 80.068C34.5379 80.068 34.5382 80.068 34.5386 80.068C34.5389 80.068 34.5393 80.068 34.5396 80.068C34.54 80.068 34.5403 80.068 34.5407 80.068C34.541 80.068 34.5414 80.068 34.5417 80.068C34.5421 80.068 34.5424 80.068 34.5428 80.068C34.5431 80.068 34.5435 80.068 34.5438 80.068C34.5442 80.068 34.5445 80.068 34.5449 80.068C34.5452 80.068 34.5456 80.068 34.5459 80.068C34.5463 80.068 34.5466 80.068 34.547 80.068C34.5473 80.068 34.5477 80.068 34.548 80.068C34.5484 80.068 34.5487 80.068 34.5491 80.068C34.5495 80.068 34.5498 80.068 34.5502 80.068C34.5505 80.068 34.5509 80.068 34.5512 80.068C34.5516 80.068 34.5519 80.068 34.5523 80.068C34.5526 80.068 34.553 80.068 34.5533 80.068C34.5537 80.068 34.554 80.068 34.5544 80.068C34.5548 80.068 34.5551 80.068 34.5555 80.068C34.5558 80.068 34.5562 80.068 34.5565 80.068C34.5569 80.068 34.5572 80.068 34.5576 80.068C34.5579 80.068 34.5583 80.068 34.5586 80.068C34.559 80.068 34.5594 80.068 34.5597 80.068C34.5601 80.068 34.5604 80.068 34.5608 80.068C34.5611 80.068 34.5615 80.068 34.5618 80.068C34.5622 80.068 34.5626 80.068 34.5629 80.068C34.5633 80.068 34.5636 80.068 34.564 80.068C34.5643 80.068 34.5647 80.068 34.565 80.068C34.5654 80.068 34.5658 80.068 34.5661 80.068C34.5665 80.068 34.5668 80.068 34.5672 80.068C34.5675 80.068 34.5679 80.068 34.5683 80.068C34.5686 80.068 34.569 80.068 34.5693 80.068C34.5697 80.068 34.57 80.068 34.5704 80.068C34.5708 80.068 34.5711 80.068 34.5715 80.068C34.5718 80.068 34.5722 80.068 34.5725 80.068C34.5729 80.068 34.5733 80.068 34.5736 80.068C34.574 80.068 34.5743 80.068 34.5747 80.068C34.5751 80.068 34.5754 80.068 34.5758 80.068C34.5761 80.068 34.5765 80.068 34.5768 80.068C34.5772 80.068 34.5776 80.068 34.5779 80.068C34.5783 80.068 34.5786 80.068 34.579 80.068C34.5794 80.068 34.5797 80.068 34.5801 80.068C34.5804 80.068 34.5808 80.068 34.5812 80.068C34.5815 80.068 34.5819 80.068 34.5822 80.068C34.5826 80.068 34.583 80.068 34.5833 80.068C34.5837 80.068 34.584 80.068 34.5844 80.068C34.5848 80.068 34.5851 80.068 34.5855 80.068C34.5858 80.068 34.5862 80.068 34.5866 80.068C34.5869 80.068 34.5873 80.068 34.5876 80.068C34.588 80.068 34.5884 80.068 34.5887 80.068C34.5891 80.068 34.5895 80.068 34.5898 80.068C34.5902 80.068 34.5905 80.068 34.5909 80.068C34.5913 80.068 34.5916 80.068 34.592 80.068C34.5924 80.068 34.5927 80.068 34.5931 80.068C34.5934 80.068 34.5938 80.068 34.5942 80.068C34.5945 80.068 34.5949 80.068 34.5953 80.068C34.5956 80.068 34.596 80.068 34.5963 80.068C34.5967 80.068 34.5971 80.068 34.5974 80.068C34.5978 80.068 34.5982 80.068 34.5985 80.068C34.5989 80.068 34.5993 80.068 34.5996 80.068C34.6 80.068 34.6003 80.068 34.6007 80.068C34.6011 80.068 34.6014 80.068 34.6018 80.068C34.6022 80.068 34.6025 80.068 34.6029 80.068C34.6033 80.068 34.6036 80.068 34.604 80.068C34.6044 80.068 34.6047 80.068 34.6051 80.068C34.6055 80.068 34.6058 80.068 34.6062 80.068C34.6065 80.068 34.6069 80.068 34.6073 80.068C34.6076 80.068 34.608 80.068 34.6084 80.068C34.6087 80.068 34.6091 80.068 34.6095 80.068C34.6098 80.068 34.6102 80.068 34.6106 80.068C34.6109 80.068 34.6113 80.068 34.6117 80.068C34.612 80.068 34.6124 80.068 34.6128 80.068C34.6131 80.068 34.6135 80.068 34.6139 80.068C34.6142 80.068 34.6146 80.068 34.615 80.068C34.6153 80.068 34.6157 80.068 34.6161 80.068C34.6164 80.068 34.6168 80.068 34.6172 80.068C34.6176 80.068 34.6179 80.068 34.6183 80.068C34.6187 80.068 34.619 80.068 34.6194 80.068C34.6198 80.068 34.6201 80.068 34.6205 80.068C34.6209 80.068 34.6212 80.068 34.6216 80.068C34.622 80.068 34.6223 80.068 34.6227 80.068C34.6231 80.068 34.6235 80.068 34.6238 80.068C34.6242 80.068 34.6246 80.068 34.6249 80.068C34.6253 80.068 34.6257 80.068 34.626 80.068C34.6264 80.068 34.6268 80.068 34.6271 80.068C34.6275 80.068 34.6279 80.068 34.6283 80.068C34.6286 80.068 34.629 80.068 34.6294 80.068C34.6297 80.068 34.6301 80.068 34.6305 80.068C34.6309 80.068 34.6312 80.068 34.6316 80.068C34.632 80.068 34.6323 80.068 34.6327 80.068C34.6331 80.068 34.6335 80.068 34.6338 80.068C34.6342 80.068 34.6346 80.068 34.6349 80.068C34.6353 80.068 34.6357 80.068 34.6361 80.068C34.6364 80.068 34.6368 80.068 34.6372 80.068C34.6375 80.068 34.6379 80.068 34.6383 80.068C34.6387 80.068 34.639 80.068 34.6394 80.068C34.6398 80.068 34.6402 80.068 34.6405 80.068C34.6409 80.068 34.6413 80.068 34.6416 80.068C34.642 80.068 34.6424 80.068 34.6428 80.068C34.6431 80.068 34.6435 80.068 34.6439 80.068C34.6443 80.068 34.6446 80.068 34.645 80.068C34.6454 80.068 34.6458 80.068 34.6461 80.068C34.6465 80.068 34.6469 80.068 34.6473 80.068C34.6476 80.068 34.648 80.068 34.6484 80.068C34.6488 80.068 34.6491 80.068 34.6495 80.068V77.068C34.6491 77.068 34.6488 77.068 34.6484 77.068C34.648 77.068 34.6476 77.068 34.6473 77.068C34.6469 77.068 34.6465 77.068 34.6461 77.068C34.6458 77.068 34.6454 77.068 34.645 77.068C34.6446 77.068 34.6443 77.068 34.6439 77.068C34.6435 77.068 34.6431 77.068 34.6428 77.068C34.6424 77.068 34.642 77.068 34.6416 77.068C34.6413 77.068 34.6409 77.068 34.6405 77.068C34.6402 77.068 34.6398 77.068 34.6394 77.068C34.639 77.068 34.6387 77.068 34.6383 77.068C34.6379 77.068 34.6375 77.068 34.6372 77.068C34.6368 77.068 34.6364 77.068 34.6361 77.068C34.6357 77.068 34.6353 77.068 34.6349 77.068C34.6346 77.068 34.6342 77.068 34.6338 77.068C34.6335 77.068 34.6331 77.068 34.6327 77.068C34.6323 77.068 34.632 77.068 34.6316 77.068C34.6312 77.068 34.6309 77.068 34.6305 77.068C34.6301 77.068 34.6297 77.068 34.6294 77.068C34.629 77.068 34.6286 77.068 34.6283 77.068C34.6279 77.068 34.6275 77.068 34.6271 77.068C34.6268 77.068 34.6264 77.068 34.626 77.068C34.6257 77.068 34.6253 77.068 34.6249 77.068C34.6246 77.068 34.6242 77.068 34.6238 77.068C34.6235 77.068 34.6231 77.068 34.6227 77.068C34.6223 77.068 34.622 77.068 34.6216 77.068C34.6212 77.068 34.6209 77.068 34.6205 77.068C34.6201 77.068 34.6198 77.068 34.6194 77.068C34.619 77.068 34.6187 77.068 34.6183 77.068C34.6179 77.068 34.6176 77.068 34.6172 77.068C34.6168 77.068 34.6164 77.068 34.6161 77.068C34.6157 77.068 34.6153 77.068 34.615 77.068C34.6146 77.068 34.6142 77.068 34.6139 77.068C34.6135 77.068 34.6131 77.068 34.6128 77.068C34.6124 77.068 34.612 77.068 34.6117 77.068C34.6113 77.068 34.6109 77.068 34.6106 77.068C34.6102 77.068 34.6098 77.068 34.6095 77.068C34.6091 77.068 34.6087 77.068 34.6084 77.068C34.608 77.068 34.6076 77.068 34.6073 77.068C34.6069 77.068 34.6065 77.068 34.6062 77.068C34.6058 77.068 34.6055 77.068 34.6051 77.068C34.6047 77.068 34.6044 77.068 34.604 77.068C34.6036 77.068 34.6033 77.068 34.6029 77.068C34.6025 77.068 34.6022 77.068 34.6018 77.068C34.6014 77.068 34.6011 77.068 34.6007 77.068C34.6003 77.068 34.6 77.068 34.5996 77.068C34.5993 77.068 34.5989 77.068 34.5985 77.068C34.5982 77.068 34.5978 77.068 34.5974 77.068C34.5971 77.068 34.5967 77.068 34.5963 77.068C34.596 77.068 34.5956 77.068 34.5953 77.068C34.5949 77.068 34.5945 77.068 34.5942 77.068C34.5938 77.068 34.5934 77.068 34.5931 77.068C34.5927 77.068 34.5924 77.068 34.592 77.068C34.5916 77.068 34.5913 77.068 34.5909 77.068C34.5905 77.068 34.5902 77.068 34.5898 77.068C34.5895 77.068 34.5891 77.068 34.5887 77.068C34.5884 77.068 34.588 77.068 34.5876 77.068C34.5873 77.068 34.5869 77.068 34.5866 77.068C34.5862 77.068 34.5858 77.068 34.5855 77.068C34.5851 77.068 34.5848 77.068 34.5844 77.068C34.584 77.068 34.5837 77.068 34.5833 77.068C34.583 77.068 34.5826 77.068 34.5822 77.068C34.5819 77.068 34.5815 77.068 34.5812 77.068C34.5808 77.068 34.5804 77.068 34.5801 77.068C34.5797 77.068 34.5794 77.068 34.579 77.068C34.5786 77.068 34.5783 77.068 34.5779 77.068C34.5776 77.068 34.5772 77.068 34.5768 77.068C34.5765 77.068 34.5761 77.068 34.5758 77.068C34.5754 77.068 34.5751 77.068 34.5747 77.068C34.5743 77.068 34.574 77.068 34.5736 77.068C34.5733 77.068 34.5729 77.068 34.5725 77.068C34.5722 77.068 34.5718 77.068 34.5715 77.068C34.5711 77.068 34.5708 77.068 34.5704 77.068C34.57 77.068 34.5697 77.068 34.5693 77.068C34.569 77.068 34.5686 77.068 34.5683 77.068C34.5679 77.068 34.5675 77.068 34.5672 77.068C34.5668 77.068 34.5665 77.068 34.5661 77.068C34.5658 77.068 34.5654 77.068 34.565 77.068C34.5647 77.068 34.5643 77.068 34.564 77.068C34.5636 77.068 34.5633 77.068 34.5629 77.068C34.5626 77.068 34.5622 77.068 34.5618 77.068C34.5615 77.068 34.5611 77.068 34.5608 77.068C34.5604 77.068 34.5601 77.068 34.5597 77.068C34.5594 77.068 34.559 77.068 34.5586 77.068C34.5583 77.068 34.5579 77.068 34.5576 77.068C34.5572 77.068 34.5569 77.068 34.5565 77.068C34.5562 77.068 34.5558 77.068 34.5555 77.068C34.5551 77.068 34.5548 77.068 34.5544 77.068C34.554 77.068 34.5537 77.068 34.5533 77.068C34.553 77.068 34.5526 77.068 34.5523 77.068C34.5519 77.068 34.5516 77.068 34.5512 77.068C34.5509 77.068 34.5505 77.068 34.5502 77.068C34.5498 77.068 34.5495 77.068 34.5491 77.068C34.5487 77.068 34.5484 77.068 34.548 77.068C34.5477 77.068 34.5473 77.068 34.547 77.068C34.5466 77.068 34.5463 77.068 34.5459 77.068C34.5456 77.068 34.5452 77.068 34.5449 77.068C34.5445 77.068 34.5442 77.068 34.5438 77.068C34.5435 77.068 34.5431 77.068 34.5428 77.068C34.5424 77.068 34.5421 77.068 34.5417 77.068C34.5414 77.068 34.541 77.068 34.5407 77.068C34.5403 77.068 34.54 77.068 34.5396 77.068C34.5393 77.068 34.5389 77.068 34.5386 77.068C34.5382 77.068 34.5379 77.068 34.5375 77.068C34.5372 77.068 34.5368 77.068 34.5365 77.068C34.5361 77.068 34.5358 77.068 34.5354 77.068C34.5351 77.068 34.5347 77.068 34.5344 77.068C34.534 77.068 34.5337 77.068 34.5333 77.068C34.533 77.068 34.5326 77.068 34.5323 77.068C34.5319 77.068 34.5316 77.068 34.5312 77.068C34.5309 77.068 34.5305 77.068 34.5302 77.068C34.5298 77.068 34.5295 77.068 34.5291 77.068C34.5288 77.068 34.5284 77.068 34.5281 77.068C34.5277 77.068 34.5274 77.068 34.5271 77.068C34.5267 77.068 34.5264 77.068 34.526 77.068C34.5257 77.068 34.5253 77.068 34.525 77.068C34.5246 77.068 34.5243 77.068 34.5239 77.068C34.5236 77.068 34.5232 77.068 34.5229 77.068C34.5225 77.068 34.5222 77.068 34.5219 77.068C34.5215 77.068 34.5212 77.068 34.5208 77.068C34.5205 77.068 34.5201 77.068 34.5198 77.068C34.5194 77.068 34.5191 77.068 34.5187 77.068C34.5184 77.068 34.518 77.068 34.5177 77.068C34.5174 77.068 34.517 77.068 34.5167 77.068C34.5163 77.068 34.516 77.068 34.5156 77.068C34.5153 77.068 34.5149 77.068 34.5146 77.068C34.5143 77.068 34.5139 77.068 34.5136 77.068C34.5132 77.068 34.5129 77.068 34.5125 77.068C34.5122 77.068 34.5118 77.068 34.5115 77.068C34.5112 77.068 34.5108 77.068 34.5105 77.068C34.5101 77.068 34.5098 77.068 34.5094 77.068C34.5091 77.068 34.5088 77.068 34.5084 77.068C34.5081 77.068 34.5077 77.068 34.5074 77.068C34.507 77.068 34.5067 77.068 34.5064 77.068C34.506 77.068 34.5057 77.068 34.5053 77.068C34.505 77.068 34.5046 77.068 34.5043 77.068C34.504 77.068 34.5036 77.068 34.5033 77.068C34.5029 77.068 34.5026 77.068 34.5022 77.068C34.5019 77.068 34.5016 77.068 34.5012 77.068C34.5009 77.068 34.5005 77.068 34.5002 77.068C34.4999 77.068 34.4995 77.068 34.4992 77.068C34.4988 77.068 34.4985 77.068 34.4982 77.068C34.4978 77.068 34.4975 77.068 34.4971 77.068C34.4968 77.068 34.4965 77.068 34.4961 77.068C34.4958 77.068 34.4954 77.068 34.4951 77.068C34.4948 77.068 34.4944 77.068 34.4941 77.068C34.4937 77.068 34.4934 77.068 34.4931 77.068C34.4927 77.068 34.4924 77.068 34.492 77.068C34.4917 77.068 34.4914 77.068 34.491 77.068C34.4907 77.068 34.4903 77.068 34.49 77.068C34.4897 77.068 34.4893 77.068 34.489 77.068C34.4887 77.068 34.4883 77.068 34.488 77.068C34.4876 77.068 34.4873 77.068 34.487 77.068C34.4866 77.068 34.4863 77.068 34.4859 77.068C34.4856 77.068 34.4853 77.068 34.4849 77.068C34.4846 77.068 34.4843 77.068 34.4839 77.068C34.4836 77.068 34.4833 77.068 34.4829 77.068C34.4826 77.068 34.4822 77.068 34.4819 77.068C34.4816 77.068 34.4812 77.068 34.4809 77.068C34.4806 77.068 34.4802 77.068 34.4799 77.068C34.4795 77.068 34.4792 77.068 34.4789 77.068C34.4785 77.068 34.4782 77.068 34.4779 77.068C34.4775 77.068 34.4772 77.068 34.4769 77.068C34.4765 77.068 34.4762 77.068 34.4759 77.068C34.4755 77.068 34.4752 77.068 34.4749 77.068C34.4745 77.068 34.4742 77.068 34.4738 77.068C34.4735 77.068 34.4732 77.068 34.4728 77.068C34.4725 77.068 34.4722 77.068 34.4718 77.068C34.4715 77.068 34.4712 77.068 34.4708 77.068C34.4705 77.068 34.4702 77.068 34.4698 77.068C34.4695 77.068 34.4692 77.068 34.4688 77.068C34.4685 77.068 34.4682 77.068 34.4678 77.068C34.4675 77.068 34.4672 77.068 34.4668 77.068C34.4665 77.068 34.4662 77.068 34.4658 77.068C34.4655 77.068 34.4652 77.068 34.4648 77.068C34.4645 77.068 34.4642 77.068 34.4638 77.068C34.4635 77.068 34.4632 77.068 34.4628 77.068C34.4625 77.068 34.4622 77.068 34.4618 77.068C34.4615 77.068 34.4612 77.068 34.4609 77.068C34.4605 77.068 34.4602 77.068 34.4599 77.068C34.4595 77.068 34.4592 77.068 34.4589 77.068C34.4585 77.068 34.4582 77.068 34.4579 77.068C34.4575 77.068 34.4572 77.068 34.4569 77.068C34.4566 77.068 34.4562 77.068 34.4559 77.068C34.4556 77.068 34.4552 77.068 34.4549 77.068C34.4546 77.068 34.4542 77.068 34.4539 77.068C34.4536 77.068 34.4533 77.068 34.4529 77.068C34.4526 77.068 34.4523 77.068 34.4519 77.068C34.4516 77.068 34.4513 77.068 34.4509 77.068C34.4506 77.068 34.4503 77.068 34.45 77.068C34.4496 77.068 34.4493 77.068 34.449 77.068C34.4486 77.068 34.4483 77.068 34.448 77.068C34.4477 77.068 34.4473 77.068 34.447 77.068C34.4467 77.068 34.4463 77.068 34.446 77.068C34.4457 77.068 34.4454 77.068 34.445 77.068C34.4447 77.068 34.4444 77.068 34.4441 77.068C34.4437 77.068 34.4434 77.068 34.4431 77.068C34.4427 77.068 34.4424 77.068 34.4421 77.068C34.4418 77.068 34.4414 77.068 34.4411 77.068C34.4408 77.068 34.4405 77.068 34.4401 77.068C34.4398 77.068 34.4395 77.068 34.4391 77.068C34.4388 77.068 34.4385 77.068 34.4382 77.068C34.4378 77.068 34.4375 77.068 34.4372 77.068C34.4369 77.068 34.4365 77.068 34.4362 77.068C34.4359 77.068 34.4356 77.068 34.4352 77.068C34.4349 77.068 34.4346 77.068 34.4343 77.068C34.4339 77.068 34.4336 77.068 34.4333 77.068C34.433 77.068 34.4326 77.068 34.4323 77.068C34.432 77.068 34.4317 77.068 34.4313 77.068C34.431 77.068 34.4307 77.068 34.4304 77.068C34.43 77.068 34.4297 77.068 34.4294 77.068C34.4291 77.068 34.4288 77.068 34.4284 77.068C34.4281 77.068 34.4278 77.068 34.4275 77.068C34.4271 77.068 34.4268 77.068 34.4265 77.068C34.4262 77.068 34.4258 77.068 34.4255 77.068C34.4252 77.068 34.4249 77.068 34.4246 77.068C34.4242 77.068 34.4239 77.068 34.4236 77.068C34.4233 77.068 34.4229 77.068 34.4226 77.068C34.4223 77.068 34.422 77.068 34.4217 77.068C34.4213 77.068 34.421 77.068 34.4207 77.068C34.4204 77.068 34.42 77.068 34.4197 77.068C34.4194 77.068 34.4191 77.068 34.4188 77.068C34.4184 77.068 34.4181 77.068 34.4178 77.068C34.4175 77.068 34.4172 77.068 34.4168 77.068C34.4165 77.068 34.4162 77.068 34.4159 77.068C34.4156 77.068 34.4152 77.068 34.4149 77.068C34.4146 77.068 34.4143 77.068 34.414 77.068C34.4136 77.068 34.4133 77.068 34.413 77.068C34.4127 77.068 34.4124 77.068 34.412 77.068C34.4117 77.068 34.4114 77.068 34.4111 77.068C34.4108 77.068 34.4104 77.068 34.4101 77.068C34.4098 77.068 34.4095 77.068 34.4092 77.068C34.4088 77.068 34.4085 77.068 34.4082 77.068C34.4079 77.068 34.4076 77.068 34.4073 77.068C34.4069 77.068 34.4066 77.068 34.4063 77.068C34.406 77.068 34.4057 77.068 34.4054 77.068C34.405 77.068 34.4047 77.068 34.4044 77.068C34.4041 77.068 34.4038 77.068 34.4034 77.068C34.4031 77.068 34.4028 77.068 34.4025 77.068C34.4022 77.068 34.4019 77.068 34.4015 77.068C34.4012 77.068 34.4009 77.068 34.4006 77.068C34.4003 77.068 34.4 77.068 34.3996 77.068C34.3993 77.068 34.399 77.068 34.3987 77.068C34.3984 77.068 34.3981 77.068 34.3978 77.068C34.3974 77.068 34.3971 77.068 34.3968 77.068C34.3965 77.068 34.3962 77.068 34.3959 77.068C34.3955 77.068 34.3952 77.068 34.3949 77.068C34.3946 77.068 34.3943 77.068 34.394 77.068C34.3937 77.068 34.3933 77.068 34.393 77.068C34.3927 77.068 34.3924 77.068 34.3921 77.068C34.3918 77.068 34.3915 77.068 34.3911 77.068C34.3908 77.068 34.3905 77.068 34.3902 77.068C34.3899 77.068 34.3896 77.068 34.3893 77.068C34.3889 77.068 34.3886 77.068 34.3883 77.068C34.388 77.068 34.3877 77.068 34.3874 77.068C34.3871 77.068 34.3868 77.068 34.3864 77.068C34.3861 77.068 34.3858 77.068 34.3855 77.068C34.3852 77.068 34.3849 77.068 34.3846 77.068C34.3843 77.068 34.3839 77.068 34.3836 77.068C34.3833 77.068 34.383 77.068 34.3827 77.068C34.3824 77.068 34.3821 77.068 34.3818 77.068C34.3814 77.068 34.3811 77.068 34.3808 77.068C34.3805 77.068 34.3802 77.068 34.3799 77.068C34.3796 77.068 34.3793 77.068 34.379 77.068C34.3786 77.068 34.3783 77.068 34.378 77.068C34.3777 77.068 34.3774 77.068 34.3771 77.068C34.3768 77.068 34.3765 77.068 34.3762 77.068C34.3759 77.068 34.3755 77.068 34.3752 77.068C34.3749 77.068 34.3746 77.068 34.3743 77.068C34.374 77.068 34.3737 77.068 34.3734 77.068C34.3731 77.068 34.3728 77.068 34.3724 77.068C34.3721 77.068 34.3718 77.068 34.3715 77.068C34.3712 77.068 34.3709 77.068 34.3706 77.068C34.3703 77.068 34.37 77.068 34.3697 77.068C34.3694 77.068 34.3691 77.068 34.3687 77.068C34.3684 77.068 34.3681 77.068 34.3678 77.068C34.3675 77.068 34.3672 77.068 34.3669 77.068C34.3666 77.068 34.3663 77.068 34.366 77.068C34.3657 77.068 34.3654 77.068 34.3651 77.068C34.3647 77.068 34.3644 77.068 34.3641 77.068C34.3638 77.068 34.3635 77.068 34.3632 77.068C34.3629 77.068 34.3626 77.068 34.3623 77.068C34.362 77.068 34.3617 77.068 34.3614 77.068C34.3611 77.068 34.3608 77.068 34.3605 77.068C34.3601 77.068 34.3598 77.068 34.3595 77.068C34.3592 77.068 34.3589 77.068 34.3586 77.068C34.3583 77.068 34.358 77.068 34.3577 77.068C34.3574 77.068 34.3571 77.068 34.3568 77.068C34.3565 77.068 34.3562 77.068 34.3559 77.068C34.3556 77.068 34.3553 77.068 34.355 77.068C34.3547 77.068 34.3544 77.068 34.354 77.068C34.3537 77.068 34.3534 77.068 34.3531 77.068C34.3528 77.068 34.3525 77.068 34.3522 77.068C34.3519 77.068 34.3516 77.068 34.3513 77.068C34.351 77.068 34.3507 77.068 34.3504 77.068C34.3501 77.068 34.3498 77.068 34.3495 77.068C34.3492 77.068 34.3489 77.068 34.3486 77.068C34.3483 77.068 34.348 77.068 34.3477 77.068C34.3474 77.068 34.3471 77.068 34.3468 77.068C34.3465 77.068 34.3462 77.068 34.3459 77.068C34.3456 77.068 34.3453 77.068 34.345 77.068C34.3447 77.068 34.3444 77.068 34.3441 77.068C34.3438 77.068 34.3435 77.068 34.3432 77.068C34.3429 77.068 34.3425 77.068 34.3422 77.068C34.3419 77.068 34.3416 77.068 34.3413 77.068C34.341 77.068 34.3407 77.068 34.3404 77.068C34.3401 77.068 34.3398 77.068 34.3395 77.068C34.3392 77.068 34.3389 77.068 34.3386 77.068C34.3383 77.068 34.338 77.068 34.3377 77.068C34.3374 77.068 34.3371 77.068 34.3368 77.068C34.3365 77.068 34.3362 77.068 34.3359 77.068C34.3356 77.068 34.3353 77.068 34.335 77.068C34.3347 77.068 34.3344 77.068 34.3341 77.068C34.3339 77.068 34.3336 77.068 34.3333 77.068C34.333 77.068 34.3327 77.068 34.3324 77.068C34.3321 77.068 34.3318 77.068 34.3315 77.068C34.3312 77.068 34.3309 77.068 34.3306 77.068C34.3303 77.068 34.33 77.068 34.3297 77.068C34.3294 77.068 34.3291 77.068 34.3288 77.068C34.3285 77.068 34.3282 77.068 34.3279 77.068C34.3276 77.068 34.3273 77.068 34.327 77.068C34.3267 77.068 34.3264 77.068 34.3261 77.068C34.3258 77.068 34.3255 77.068 34.3252 77.068C34.3249 77.068 34.3246 77.068 34.3243 77.068C34.324 77.068 34.3237 77.068 34.3234 77.068C34.3231 77.068 34.3229 77.068 34.3226 77.068C34.3223 77.068 34.322 77.068 34.3217 77.068C34.3214 77.068 34.3211 77.068 34.3208 77.068C34.3205 77.068 34.3202 77.068 34.3199 77.068C34.3196 77.068 34.3193 77.068 34.319 77.068C34.3187 77.068 34.3184 77.068 34.3181 77.068C34.3178 77.068 34.3175 77.068 34.3172 77.068C34.317 77.068 34.3167 77.068 34.3164 77.068C34.3161 77.068 34.3158 77.068 34.3155 77.068C34.3152 77.068 34.3149 77.068 34.3146 77.068C34.3143 77.068 34.314 77.068 34.3137 77.068C34.3134 77.068 34.3131 77.068 34.3128 77.068C34.3126 77.068 34.3123 77.068 34.312 77.068C34.3117 77.068 34.3114 77.068 34.3111 77.068C34.3108 77.068 34.3105 77.068 34.3102 77.068C34.3099 77.068 34.3096 77.068 34.3093 77.068C34.309 77.068 34.3088 77.068 34.3085 77.068C34.3082 77.068 34.3079 77.068 34.3076 77.068C34.3073 77.068 34.307 77.068 34.3067 77.068C34.3064 77.068 34.3061 77.068 34.3058 77.068C34.3055 77.068 34.3053 77.068 34.305 77.068C34.3047 77.068 34.3044 77.068 34.3041 77.068C34.3038 77.068 34.3035 77.068 34.3032 77.068C34.3029 77.068 34.3026 77.068 34.3024 77.068C34.3021 77.068 34.3018 77.068 34.3015 77.068C34.3012 77.068 34.3009 77.068 34.3006 77.068C34.3003 77.068 34.3 77.068 34.2997 77.068C34.2995 77.068 34.2992 77.068 34.2989 77.068C34.2986 77.068 34.2983 77.068 34.298 77.068C34.2977 77.068 34.2974 77.068 34.2971 77.068C34.2969 77.068 34.2966 77.068 34.2963 77.068C34.296 77.068 34.2957 77.068 34.2954 77.068C34.2951 77.068 34.2948 77.068 34.2945 77.068C34.2943 77.068 34.294 77.068 34.2937 77.068C34.2934 77.068 34.2931 77.068 34.2928 77.068C34.2925 77.068 34.2922 77.068 34.292 77.068C34.2917 77.068 34.2914 77.068 34.2911 77.068C34.2908 77.068 34.2905 77.068 34.2902 77.068C34.29 77.068 34.2897 77.068 34.2894 77.068C34.2891 77.068 34.2888 77.068 34.2885 77.068C34.2882 77.068 34.288 77.068 34.2877 77.068C34.2874 77.068 34.2871 77.068 34.2868 77.068C34.2865 77.068 34.2862 77.068 34.286 77.068C34.2857 77.068 34.2854 77.068 34.2851 77.068C34.2848 77.068 34.2845 77.068 34.2842 77.068C34.284 77.068 34.2837 77.068 34.2834 77.068C34.2831 77.068 34.2828 77.068 34.2825 77.068C34.2822 77.068 34.282 77.068 34.2817 77.068C34.2814 77.068 34.2811 77.068 34.2808 77.068C34.2805 77.068 34.2803 77.068 34.28 77.068C34.2797 77.068 34.2794 77.068 34.2791 77.068C34.2788 77.068 34.2786 77.068 34.2783 77.068C34.278 77.068 34.2777 77.068 34.2774 77.068C34.2771 77.068 34.2769 77.068 34.2766 77.068C34.2763 77.068 34.276 77.068 34.2757 77.068C34.2754 77.068 34.2752 77.068 34.2749 77.068C34.2746 77.068 34.2743 77.068 34.274 77.068C34.2738 77.068 34.2735 77.068 34.2732 77.068C34.2729 77.068 34.2726 77.068 34.2723 77.068C34.2721 77.068 34.2718 77.068 34.2715 77.068C34.2712 77.068 34.2709 77.068 34.2707 77.068C34.2704 77.068 34.2701 77.068 34.2698 77.068C34.2695 77.068 34.2693 77.068 34.269 77.068C34.2687 77.068 34.2684 77.068 34.2681 77.068C34.2679 77.068 34.2676 77.068 34.2673 77.068C34.267 77.068 34.2667 77.068 34.2665 77.068C34.2662 77.068 34.2659 77.068 34.2656 77.068C34.2653 77.068 34.2651 77.068 34.2648 77.068C34.2645 77.068 34.2642 77.068 34.2639 77.068C34.2637 77.068 34.2634 77.068 34.2631 77.068C34.2628 77.068 34.2625 77.068 34.2623 77.068C34.262 77.068 34.2617 77.068 34.2614 77.068C34.2612 77.068 34.2609 77.068 34.2606 77.068C34.2603 77.068 34.26 77.068 34.2598 77.068C34.2595 77.068 34.2592 77.068 34.2589 77.068C34.2586 77.068 34.2584 77.068 34.2581 77.068C34.2578 77.068 34.2575 77.068 34.2573 77.068C34.257 77.068 34.2567 77.068 34.2564 77.068C34.2562 77.068 34.2559 77.068 34.2556 77.068C34.2553 77.068 34.255 77.068 34.2548 77.068C34.2545 77.068 34.2542 77.068 34.2539 77.068C34.2537 77.068 34.2534 77.068 34.2531 77.068C34.2528 77.068 34.2526 77.068 34.2523 77.068C34.252 77.068 34.2517 77.068 34.2515 77.068C34.2512 77.068 34.2509 77.068 34.2506 77.068C34.2504 77.068 34.2501 77.068 34.2498 77.068C34.2495 77.068 34.2493 77.068 34.249 77.068C34.2487 77.068 34.2484 77.068 34.2482 77.068C34.2479 77.068 34.2476 77.068 34.2473 77.068C34.2471 77.068 34.2468 77.068 34.2465 77.068C34.2462 77.068 34.246 77.068 34.2457 77.068C34.2454 77.068 34.2451 77.068 34.2449 77.068C34.2446 77.068 34.2443 77.068 34.2441 77.068C34.2438 77.068 34.2435 77.068 34.2432 77.068C34.243 77.068 34.2427 77.068 34.2424 77.068C34.2421 77.068 34.2419 77.068 34.2416 77.068C34.2413 77.068 34.2411 77.068 34.2408 77.068C34.2405 77.068 34.2402 77.068 34.24 77.068C34.2397 77.068 34.2394 77.068 34.2392 77.068C34.2389 77.068 34.2386 77.068 34.2383 77.068C34.2381 77.068 34.2378 77.068 34.2375 77.068C34.2373 77.068 34.237 77.068 34.2367 77.068C34.2364 77.068 34.2362 77.068 34.2359 77.068C34.2356 77.068 34.2354 77.068 34.2351 77.068C34.2348 77.068 34.2345 77.068 34.2343 77.068C34.234 77.068 34.2337 77.068 34.2335 77.068C34.2332 77.068 34.2329 77.068 34.2327 77.068C34.2324 77.068 34.2321 77.068 34.2318 77.068C34.2316 77.068 34.2313 77.068 34.231 77.068C34.2308 77.068 34.2305 77.068 34.2302 77.068C34.23 77.068 34.2297 77.068 34.2294 77.068C34.2292 77.068 34.2289 77.068 34.2286 77.068C34.2283 77.068 34.2281 77.068 34.2278 77.068C34.2275 77.068 34.2273 77.068 34.227 77.068C34.2267 77.068 34.2265 77.068 34.2262 77.068C34.2259 77.068 34.2257 77.068 34.2254 77.068C34.2251 77.068 34.2249 77.068 34.2246 77.068C34.2243 77.068 34.2241 77.068 34.2238 77.068C34.2235 77.068 34.2233 77.068 34.223 77.068C34.2227 77.068 34.2225 77.068 34.2222 77.068C34.2219 77.068 34.2217 77.068 34.2214 77.068C34.2211 77.068 34.2209 77.068 34.2206 77.068C34.2203 77.068 34.2201 77.068 34.2198 77.068C34.2195 77.068 34.2193 77.068 34.219 77.068C34.2187 77.068 34.2185 77.068 34.2182 77.068C34.2179 77.068 34.2177 77.068 34.2174 77.068C34.2171 77.068 34.2169 77.068 34.2166 77.068C34.2163 77.068 34.2161 77.068 34.2158 77.068C34.2156 77.068 34.2153 77.068 34.215 77.068C34.2148 77.068 34.2145 77.068 34.2142 77.068C34.214 77.068 34.2137 77.068 34.2134 77.068C34.2132 77.068 34.2129 77.068 34.2126 77.068C34.2124 77.068 34.2121 77.068 34.2119 77.068C34.2116 77.068 34.2113 77.068 34.2111 77.068C34.2108 77.068 34.2105 77.068 34.2103 77.068C34.21 77.068 34.2098 77.068 34.2095 77.068C34.2092 77.068 34.209 77.068 34.2087 77.068C34.2084 77.068 34.2082 77.068 34.2079 77.068C34.2077 77.068 34.2074 77.068 34.2071 77.068C34.2069 77.068 34.2066 77.068 34.2063 77.068C34.2061 77.068 34.2058 77.068 34.2056 77.068C34.2053 77.068 34.205 77.068 34.2048 77.068C34.2045 77.068 34.2043 77.068 34.204 77.068C34.2037 77.068 34.2035 77.068 34.2032 77.068C34.2029 77.068 34.2027 77.068 34.2024 77.068C34.2022 77.068 34.2019 77.068 34.2016 77.068C34.2014 77.068 34.2011 77.068 34.2009 77.068C34.2006 77.068 34.2003 77.068 34.2001 77.068C34.1998 77.068 34.1996 77.068 34.1993 77.068C34.199 77.068 34.1988 77.068 34.1985 77.068C34.1983 77.068 34.198 77.068 34.1978 77.068C34.1975 77.068 34.1972 77.068 34.197 77.068C34.1967 77.068 34.1965 77.068 34.1962 77.068C34.1959 77.068 34.1957 77.068 34.1954 77.068C34.1952 77.068 34.1949 77.068 34.1947 77.068C34.1944 77.068 34.1941 77.068 34.1939 77.068C34.1936 77.068 34.1934 77.068 34.1931 77.068C34.1928 77.068 34.1926 77.068 34.1923 77.068C34.1921 77.068 34.1918 77.068 34.1916 77.068C34.1913 77.068 34.191 77.068 34.1908 77.068C34.1905 77.068 34.1903 77.068 34.19 77.068C34.1898 77.068 34.1895 77.068 34.1892 77.068C34.189 77.068 34.1887 77.068 34.1885 77.068C34.1882 77.068 34.188 77.068 34.1877 77.068C34.1875 77.068 34.1872 77.068 34.1869 77.068C34.1867 77.068 34.1864 77.068 34.1862 77.068C34.1859 77.068 34.1857 77.068 34.1854 77.068C34.1852 77.068 34.1849 77.068 34.1846 77.068C34.1844 77.068 34.1841 77.068 34.1839 77.068C34.1836 77.068 34.1834 77.068 34.1831 77.068C34.1829 77.068 34.1826 77.068 34.1824 77.068C34.1821 77.068 34.1818 77.068 34.1816 77.068C34.1813 77.068 34.1811 77.068 34.1808 77.068C34.1806 77.068 34.1803 77.068 34.1801 77.068C34.1798 77.068 34.1796 77.068 34.1793 77.068C34.1791 77.068 34.1788 77.068 34.1786 77.068C34.1783 77.068 34.178 77.068 34.1778 77.068C34.1775 77.068 34.1773 77.068 34.177 77.068C34.1768 77.068 34.1765 77.068 34.1763 77.068C34.176 77.068 34.1758 77.068 34.1755 77.068C34.1753 77.068 34.175 77.068 34.1748 77.068C34.1745 77.068 34.1743 77.068 34.174 77.068C34.1738 77.068 34.1735 77.068 34.1733 77.068C34.173 77.068 34.1728 77.068 34.1725 77.068C34.1723 77.068 34.172 77.068 34.1718 77.068C34.1715 77.068 34.1713 77.068 34.171 77.068C34.1708 77.068 34.1705 77.068 34.1703 77.068C34.17 77.068 34.1698 77.068 34.1695 77.068V80.068ZM34.6857 80.0676C48.3174 79.7383 59.5916 74.7795 68.3949 65.1819L66.1841 63.1541C57.9634 72.1165 47.4776 76.7577 34.6133 77.0684L34.6857 80.0676ZM68.3917 65.1854C73.9555 59.158 81.4038 45.7847 90.7342 25.3346L88.0048 24.0894C78.6472 44.5993 71.3755 57.53 66.1873 63.1506L68.3917 65.1854ZM90.7351 25.3327C92.332 21.8193 93.6361 19.0447 94.6492 17.0026C95.6839 14.9172 96.3642 13.7021 96.7211 13.2178L94.3059 11.4382C93.7668 12.1699 92.9751 13.6268 91.9618 15.6693C90.9269 17.7553 89.607 20.5647 88.004 24.0913L90.7351 25.3327ZM95.966 10.8979C84.5351 7.28132 74.2028 5.452 64.9855 5.452V8.452C73.8162 8.452 83.8359 10.2067 95.061 13.7581L95.966 10.8979ZM64.9855 5.452C55.6366 5.452 47.9139 8.28162 41.9594 14.0331L44.0436 16.1909C49.3531 11.0624 56.2864 8.452 64.9855 8.452V5.452ZM41.964 14.0287C37.2256 18.5668 34.6855 23.4774 34.6855 28.744H37.6855C37.6855 24.5386 39.6894 20.3612 44.039 16.1953L41.964 14.0287ZM34.6855 28.744C34.6855 31.551 35.3014 33.9925 36.6545 35.9553C38.0157 37.9301 40.0269 39.2807 42.5575 40.0648L43.4455 37.1992C41.4321 36.5753 40.0353 35.5739 39.1245 34.2527C38.2056 32.9195 37.6855 31.121 37.6855 28.744H34.6855ZM42.5971 40.0764C44.2918 40.551 45.8712 40.804 47.3215 40.804V37.804C46.2118 37.804 44.9112 37.609 43.4059 37.1876L42.5971 40.0764ZM47.3215 40.804C48.8281 40.804 50.4661 40.5536 52.2235 40.0804L51.4435 37.1836C49.8729 37.6064 48.5029 37.804 47.3215 37.804V40.804ZM52.2596 40.0702C54.2549 39.479 56.0897 38.3467 57.7674 36.739L55.6916 34.573C54.2973 35.9093 52.8681 36.761 51.4074 37.1938L52.2596 40.0702ZM57.7683 36.7381C59.4488 35.1248 60.7476 33.4935 61.6114 31.8378L58.9516 30.4501C58.2794 31.7385 57.2102 33.1152 55.6907 34.5739L57.7683 36.7381ZM61.5874 31.8821C62.0345 31.0909 62.3826 30.3431 62.6005 29.6497C62.8144 28.9692 62.9346 28.2423 62.8171 27.5374L59.8579 28.0306C59.8684 28.0937 59.8766 28.3108 59.7385 28.7503C59.6044 29.1769 59.3605 29.7251 58.9757 30.4059L61.5874 31.8821ZM62.8375 27.784V27.592H59.8375V27.784H62.8375ZM62.3253 28.7209C62.3999 28.6556 62.452 28.6198 62.4812 28.6022C62.5105 28.5847 62.5061 28.5918 62.4696 28.6023C62.4303 28.6135 62.3594 28.6267 62.2665 28.6196C62.1713 28.6123 62.0831 28.5858 62.0107 28.5496L63.3523 25.8664C62.1364 25.2584 61.0173 25.879 60.3497 26.4631L62.3253 28.7209ZM62.2072 28.631C62.1203 28.6021 62.0244 28.5508 61.937 28.4731C61.8509 28.3966 61.7995 28.318 61.7719 28.2628C61.7252 28.1695 61.7575 28.168 61.7575 28.36H64.7575C64.7575 27.5134 64.4851 26.2281 63.1558 25.785L62.2072 28.631ZM61.7697 28.1693C61.1904 32.6878 58.9435 36.0207 54.9354 38.2862L56.4116 40.8978C61.2355 38.1713 64.0446 34.0162 64.7453 28.5507L61.7697 28.1693ZM54.9063 38.3031C52.3704 39.8125 50.1395 40.492 48.1855 40.492V43.492C50.8395 43.492 53.6006 42.5715 56.4407 40.8809L54.9063 38.3031ZM48.1855 40.492C46.0183 40.492 44.146 40.1908 42.546 39.6194L41.537 42.4446C43.521 43.1532 45.7447 43.492 48.1855 43.492V40.492ZM42.5416 39.6178C37.7458 37.9217 34.7825 34.7443 33.5063 29.9873L30.6087 30.7647C32.1485 36.5037 35.8412 40.4303 41.5414 42.4462L42.5416 39.6178ZM33.5059 29.986C33.0895 28.4395 32.8855 26.9386 32.8855 25.48H29.8855C29.8855 27.2214 30.1295 28.9845 30.6091 30.766L33.5059 29.986ZM32.8855 25.48C32.8855 21.9671 33.964 18.5028 36.1957 15.0647L33.6793 13.4313C31.1751 17.2892 29.8855 21.3129 29.8855 25.48H32.8855ZM36.1969 15.0629C40.1456 8.96028 46.3513 5.21628 55.0305 3.92363L54.5885 0.956363C45.2197 2.35172 38.1774 6.47971 33.6781 13.4331L36.1969 15.0629ZM55.0411 3.92202C57.0212 3.61262 58.8954 3.46 60.6655 3.46V0.459999C58.7236 0.459999 56.6938 0.627375 54.5779 0.957981L55.0411 3.92202ZM60.6655 3.46C62.4721 3.46 64.5753 3.55355 66.9795 3.74334L67.2156 0.752648C64.7557 0.558451 62.5709 0.459999 60.6655 0.459999V3.46ZM66.9825 3.74358C69.3442 3.92525 72.5058 4.53874 76.4987 5.6162L77.2803 2.7198C73.2092 1.62126 69.8428 0.954744 67.2125 0.752414L66.9825 3.74358ZM76.5044 5.61773C80.5619 6.69549 84.6857 7.96422 88.8759 9.42445L89.8631 6.59154C85.6053 5.10777 81.4091 3.8165 77.2746 2.71827L76.5044 5.61773ZM88.9015 9.43313C93.1823 10.8388 95.7594 11.6764 96.6084 11.9377L97.4906 9.07033C96.6756 8.81956 94.1327 7.99323 89.8375 6.58286L88.9015 9.43313ZM98.2113 11.4528C99.7516 9.56673 101.051 8.20029 102.115 7.31104C103.239 6.37186 103.878 6.1568 104.12 6.1467L103.995 3.1493C102.701 3.2032 101.404 3.99614 100.192 5.00896C98.9199 6.07171 97.4834 7.60127 95.8877 9.5552L98.2113 11.4528ZM104.615 6.04071C104.693 6.00924 104.9 5.956 105.306 5.956V2.956C104.687 2.956 104.062 3.03075 103.5 3.25529L104.615 6.04071ZM105.306 5.956C105.249 5.956 105.18 5.94375 105.112 5.91423C105.048 5.88592 105.016 5.85537 105.013 5.85266C105.012 5.85228 105.039 5.87939 105.083 5.95621C105.127 6.03268 105.18 6.14543 105.237 6.3045L108.062 5.29549C107.686 4.24373 106.882 2.956 105.306 2.956V5.956ZM105.237 6.3045C105.283 6.43324 105.29 6.49791 105.291 6.50961C105.291 6.51688 105.286 6.45596 105.324 6.36032C105.363 6.25784 105.428 6.17687 105.488 6.1267C105.539 6.08332 105.559 6.08622 105.503 6.10497L106.452 8.95102C107.119 8.72878 107.799 8.27242 108.12 7.44767C108.417 6.68295 108.281 5.90768 108.062 5.29549L105.237 6.3045ZM105.683 6.05712C105.689 6.05593 105.648 6.06465 105.541 6.05641C105.435 6.0483 105.288 6.02545 105.093 5.97678L104.366 8.88721C104.975 9.03964 105.64 9.1252 106.272 8.99887L105.683 6.05712ZM105.562 6.18393C104.61 5.5497 103.586 5.99396 103.149 6.22117C102.583 6.51585 101.968 6.99027 101.329 7.56214L103.33 9.79786C103.907 9.28172 104.3 9.00414 104.534 8.88282C104.65 8.82216 104.652 8.84067 104.564 8.85249C104.46 8.86664 104.186 8.87235 103.897 8.68007L105.562 6.18393ZM101.333 7.55888C100.156 8.60476 99.2254 9.52913 98.5766 10.3221L100.898 12.2219C101.402 11.6069 102.199 10.8032 103.326 9.80111L101.333 7.55888ZM99.2814 12.701C105.334 14.6326 110.671 16.0575 115.287 16.9677L115.868 14.0243C111.396 13.1425 106.173 11.7514 100.194 9.84301L99.2814 12.701ZM115.307 16.9715C119.855 17.8041 123.237 18.244 125.37 18.244V15.244C123.534 15.244 120.388 14.8519 115.848 14.0205L115.307 16.9715Z" fill="white"/>
</svg>
