<svg viewBox="0 -.01 550.05 100.01" xmlns="http://www.w3.org/2000/svg"><path d="M128.56 50.83c-3.38-.01-6.11.82-8.29 2.53-3.11 2.44-4.57 6.43-4.22 11.6.43 6.42 4.64 10.66 11.01 11.1 5.23.36 9.08-1.04 11.56-4.21 1.95-2.5 2.78-5.8 2.47-9.89-.5-6.5-4.6-10.62-11.04-11.07-.5-.04-1-.06-1.49-.06zm-.32 4.38c2-.08 3.02.25 4.24 1.38 1.59 1.47 2.3 3.59 2.3 6.88 0 4-1.2 6.6-3.57 7.8-.74.36-1.01.41-2.42.45-2.24.07-3.18-.3-4.53-1.76-1.27-1.38-1.88-3.5-1.88-6.49 0-4 1.19-6.6 3.56-7.79.71-.35 1.04-.42 2.3-.47zm382.79-4.38c-5.48-.11-9.48 2.03-11.57 6.2-1.05 2.07-1.5 4.91-1.28 7.95.5 6.44 4.58 10.6 10.94 11.08 5.2.4 9.1-1.01 11.62-4.21 1.96-2.49 2.76-5.68 2.47-9.87-.44-6.48-4.58-10.63-11.07-11.1-.38-.03-.75-.04-1.11-.05zm-.67 4.38c2-.08 3.03.25 4.24 1.38 1.6 1.47 2.3 3.59 2.3 6.88 0 4-1.2 6.6-3.57 7.8-.74.36-1 .41-2.41.45-2.2.06-3.21-.33-4.52-1.75-1.28-1.4-1.9-3.5-1.9-6.5 0-3.1.62-5.14 2.03-6.62 1.11-1.18 2.01-1.56 3.83-1.64zM145.87 75.8V51.14l7.08.08 8.85 16.87.07-16.94h6.06V75.8h-7.04L152 58.87l-.08 16.93h-6.05zm28.25 0V51.15h6.35v19.89h11.1v4.76h-17.45zm21.48 0V51.15h6.34V75.8h-6.34zm12.54 0V51.14l7.08.08 8.85 16.87.07-16.94h6.06V75.8h-7.04l-8.89-16.93-.08 16.93h-6.05zm28.26-12.33V51.15h17v4.76h-10.66v4.6h10.09v4.77h-10.09v5.76h11.1v4.76h-17.45l.01-12.33zm37.04-12.32V75.8h6.34v-8.65h1.91c2.46 0 4.87-.2 6.04-.5 2.85-.74 4.77-2.53 5.53-5.16.32-1.13.32-3.55 0-4.68-.76-2.63-2.68-4.42-5.54-5.16-1.44-.37-3.8-.5-9.27-.5h-5.01zm6.34 4.45l2.56.04c2.5.05 2.57.06 3.25.45 1.05.62 1.44 1.35 1.51 2.84.06 1.13.03 1.29-.36 2.02-.3.58-.6.9-1.11 1.22l-.7.44-2.58.05-2.57.04v-7.1zm21.71-4.38l-4.51 12.18c-2.48 6.7-4.5 12.23-4.51 12.29 0 .06 6.17.1 6.17.1l1.53-4.6h10.1l1.53 4.6s6.2 0 6.14-.24c-.05-.21-8.98-24.33-8.98-24.33h-7.47zm3.78 5.7c.03 0 3.34 9.64 3.34 9.71 0 .05-6.77.05-6.77.01 0-.14 3.4-9.72 3.43-9.72zm16.03-5.81V75.8h6.34v-9.37h1.39c2.96 0 3.37.39 5.91 5.6l1.83 3.77s6.58-.04 6.58-.08c0-.22-4.16-8.33-4.62-9.02a6.2 6.2 0 00-2.54-2.23l-.65-.25 1.15-.55c2.68-1.28 3.8-3.47 3.47-6.84a5.56 5.56 0 00-3.5-4.72c-1.82-.73-2.96-.84-9.42-.92l-5.94-.08zm6.34 4.5h1.9c1.06 0 2.18.08 2.5.17 1.37.38 1.93 1.26 1.93 3 0 1.76-.56 2.64-1.94 3.02-.31.09-1.43.16-2.48.16h-1.91v-6.35zm23.48 20.19l.01-19.89h-8.21v-4.76h22.78v4.76h-8.23V75.8h-6.35zm17.74 0V51.15h6.35V75.8h-6.35zm11.1 0v-3.75l13.25-16.07-12.82-.08v-4.75H401v3.74l-13.25 16.15h13.69v4.76h-21.48zm25.95 0l-.01-24.65h6.35V75.8h-6.34zm12.54-24.65V75.8h6.34v-8.65h1.91c5.23-.01 7.7-.62 9.6-2.38 1.51-1.4 2.2-3.17 2.2-5.62 0-.97-.07-1.8-.23-2.34-.76-2.63-2.68-4.42-5.55-5.16-1.43-.37-3.8-.5-9.26-.5h-5.01zm6.34 4.45l2.56.04c2.5.05 2.57.06 3.25.45 1.08.64 1.44 1.32 1.51 2.82.06 1.16.03 1.3-.36 2.04-.3.58-.6.9-1.12 1.22l-.7.44-2.57.05-2.57.04v-7.1zm21.7-4.38s-9.01 24.43-9.01 24.48c0 .06 6.17.1 6.17.1l1.53-4.62h10.1l1.53 4.61h3.1c1.69 0 3.08-.03 3.08-.08s-9.01-24.49-9.01-24.49h-7.49zm3.79 5.7c.03 0 3.34 9.64 3.34 9.71 0 .05-6.78.05-6.78.01 0-.14 3.41-9.72 3.44-9.72zm18.75 18.88l.01-19.89h-8.21v-4.76h22.78v4.76h-8.23V75.8h-6.35zm17.74 0V51.15h6.35V75.8h-6.35zm41.23 0V51.14l7.08.08 8.85 16.87.07-16.94h6.05V75.8l-7.08-.07-8.85-16.86-.07 16.93H528zm-269.7-7.35v-4.76h10.38v4.76H258.3zM232.35 25.18a9.9 9.9 0 00-2.37.32c-2.93.9-4.88 3.1-5.61 6.33a16.28 16.28 0 000 5.63c.85 3.8 3.54 6.29 7.12 6.6 3.42.3 6.06-.75 7.73-3.1 1.3-1.8 1.8-3.58 1.8-6.32 0-2.72-.5-4.47-1.77-6.28a7.9 7.9 0 00-4.51-3c-.6-.15-1.5-.2-2.39-.18zm.23 1.97c1.6 0 1.78.03 2.54.4a6.5 6.5 0 012.63 2.76c.58 1.22.8 2.42.8 4.33 0 1.92-.22 3.12-.8 4.34a6.4 6.4 0 01-2.63 2.75c-.7.34-1.03.4-2.33.44-2.13.06-3.21-.37-4.44-1.76-1.22-1.4-1.75-3.11-1.75-5.7 0-2.88.58-4.64 2-6.05.45-.45.96-.84 1.52-1.16.65-.31.91-.35 2.46-.35zM276 44.07c-1.15-.12-2.3-.36-3.39-.73l-1.04-.3v-1.2c0-.67.03-1.21.07-1.21.04 0 .45.18.9.4a8.7 8.7 0 004.8 1.11c1.84 0 1.98-.02 2.77-.41 1.25-.61 1.62-1.24 1.62-2.76 0-1.01-.05-1.25-.36-1.71-.52-.77-1.73-1.31-4.04-1.81-2.98-.64-4.26-1.25-5.03-2.38a4.2 4.2 0 01-.76-2.67c0-2.53 1.24-4.13 3.81-4.93 1.61-.5 4.42-.37 6.85.34l1.04.3v1.15c0 .86-.04 1.13-.18 1.07-2.2-.97-3.3-1.25-4.87-1.25-2.07 0-3.49.65-3.98 1.83-.25.6-.25 1.97 0 2.46.5.96 1.22 1.3 3.82 1.85 3.62.76 4.9 1.47 5.79 3.23.63 1.24.6 3.56-.06 4.87-1.06 2.09-4 3.13-7.75 2.75H276zm23.8.01a8.14 8.14 0 01-7.4-6.62 16.63 16.63 0 010-5.63 8.8 8.8 0 012.08-4.07c1.68-1.79 3.65-2.57 6.5-2.57a9.8 9.8 0 014.9 1.1l1 .53v2.44l-.54-.42a7.95 7.95 0 00-5.24-1.76c-2.7 0-4.57 1.03-5.63 3.07-1.14 2.22-1.13 6.77.02 9.03 1.02 2 2.94 3.03 5.58 3.03 2.08 0 3.62-.5 5.14-1.66l.67-.51v2.44l-1.15.58a10.9 10.9 0 01-5.93 1.02zm45.14-.01c-2.91-.26-4.71-1.7-5.53-4.43-.26-.88-.29-1.51-.35-7.63l-.06-6.66h2.48v6.39c0 4.23.05 6.67.16 7.21a3.9 3.9 0 001.85 2.74c.77.44.85.45 2.6.45s1.82-.01 2.6-.45c.94-.53 1.6-1.5 1.85-2.74.1-.54.16-2.98.16-7.21v-6.4h2.48l-.07 6.67c-.05 6.12-.08 6.75-.35 7.63-1 3.35-3.56 4.8-7.82 4.43zm48.5.01a8 8 0 01-5.35-2.37c-1.77-1.74-2.53-3.86-2.53-7.07 0-1.08.1-2.13.24-2.8.43-2.12 1.66-4 3.43-5.24 2.79-1.84 7.48-1.93 11.02-.2l.9.43v2.42l-.65-.45a9.5 9.5 0 00-5.62-1.72c-3.79 0-5.88 1.57-6.64 5-.34 1.53-.23 4.8.21 6.01 1.05 2.93 2.95 4.12 6.55 4.12 1.57 0 2.9-.24 3.73-.66l.4-.21V36.3h-4.03v-2.02h6.48v7.88l-1.11.59c-1.4.74-2.8 1.17-4.13 1.27l-1.39.12c-.2.02-.88 0-1.51-.06zm21.32-.01c-1.2-.1-1.65-.2-3.48-.73l-1.05-.3v-1.2c0-.67.04-1.21.08-1.21s.45.18.9.4c1.8.9 2.67 1.11 4.79 1.11 1.85 0 1.99-.02 2.78-.41 1.25-.61 1.61-1.24 1.61-2.76 0-1.01-.04-1.25-.36-1.71-.52-.77-1.72-1.31-4.03-1.81-3.59-.77-4.93-1.58-5.57-3.36a7.33 7.33 0 01-.06-3.27c.44-1.62 1.73-2.78 3.75-3.39 1.56-.46 4.71-.26 7.03.46l.76.23v1.14c0 .86-.05 1.13-.18 1.07-2.2-.97-3.3-1.25-4.87-1.25-2.08 0-3.49.65-3.98 1.83-.26.6-.25 1.97 0 2.46.5.96 1.21 1.3 3.74 1.83 2.86.6 3.86 1 4.87 1.91 1.13 1.02 1.64 2.66 1.4 4.58-.38 3.2-3.38 4.8-8.13 4.38zm44.41-18.87c-.86 0-1.73.05-2.18.16a8.25 8.25 0 00-5.45 4.65c-.6 1.47-.87 3.05-.82 4.63 0 3.1.72 5.2 2.42 7a7.13 7.13 0 004.95 2.43c3.37.28 5.89-.69 7.6-2.94 1.37-1.8 1.93-3.7 1.93-6.5 0-2.75-.56-4.67-1.87-6.4a7.94 7.94 0 00-4.4-2.87 11.3 11.3 0 00-2.18-.16zm0 1.95c1.63 0 1.78.02 2.57.42a6.55 6.55 0 013.2 4.43c.27 1.2.27 4.09 0 5.28-.48 2.02-1.7 3.71-3.22 4.46-.71.35-1.02.4-2.33.44-.72.07-1.45 0-2.15-.2-1.93-.7-3.28-2.36-3.83-4.7a16.63 16.63 0 01-.01-5.18 6.53 6.53 0 013.2-4.53c.8-.4.94-.42 2.57-.42zm82.73 16.93a8.03 8.03 0 01-5.34-2.37c-1.77-1.75-2.53-3.86-2.53-7.07 0-3.2.76-5.32 2.53-7.06 1.72-1.7 3.6-2.38 6.5-2.39 2.4 0 3.77.29 5.66 1.2l.9.44v2.42l-.65-.45a9.5 9.5 0 00-5.62-1.72c-3.79 0-5.88 1.57-6.64 4.99-.34 1.54-.23 4.8.2 6.02 1.06 2.93 2.96 4.12 6.56 4.12 1.57 0 2.9-.24 3.73-.66l.4-.21V36.3h-4.03v-2.02h6.48v7.88l-1.11.59c-.62.32-1.55.72-2.08.88-1.6.45-3.29.6-4.95.45h-.01zm-424.14-.29V25.34l3.35.08 8.11 15.38.08-15.45h2.45V43.8l-3.35-.08-8.11-15.38-.08 15.45h-2.45zm23.79-18.49v18.5H144V36h1.92c3.4 0 3.73.26 5.97 4.81l1.47 2.98h1.23a5.1 5.1 0 001.23-.08c0-.26-3.11-6.2-3.61-6.9-.35-.48-.78-.9-1.26-1.25l-.66-.42.5-.2c1.95-.82 2.86-2.69 2.55-5.23-.2-1.72-.93-2.82-2.33-3.54-1.19-.6-1.9-.7-5.75-.79l-3.71-.08zm2.45 2.04l2.42.05c2.41.05 2.44.05 3.14.48 1.07.65 1.4 1.38 1.32 2.96-.06 1.5-.38 2.1-1.38 2.7-.65.38-.76.4-3.09.44l-2.41.05v-6.68zm21.98 16.47s-3.8-15.28-4.54-18.36c0-.05 2.29-.1 2.29-.1s3.91 15.61 4 15.52c.04-.04 3.88-15.46 3.88-15.46h2.72s3.83 15.41 3.87 15.45c.1.1 4.01-15.51 4.01-15.51s2.29.03 2.28.25c0 .14-4.53 18.13-4.53 18.13l-3.02.08s-3.92-16.01-3.96-16.01c-.05 0-3.98 15.93-3.98 15.93l-3.02.08zm39.71-.01l.01-18.45h10.66v2.16h-8.22v5.33h7.35V35h-7.35v8.8h-2.45zm44.11-18.5v18.5h2.45V36h1.92c3.4 0 3.71.26 5.97 4.81l1.48 2.98h1.22c.68 0 1.23-.04 1.23-.08 0-.25-3.1-6.18-3.59-6.86-.35-.48-.78-.9-1.26-1.26l-.67-.45.49-.2c1.95-.82 2.86-2.69 2.56-5.23-.27-2.19-1.44-3.47-3.73-4.05-1.47-.2-2.95-.3-4.43-.28l-3.64-.08zm2.45 2.04l2.43.05c2.4.05 2.43.05 3.13.48 1.07.65 1.4 1.38 1.33 2.96-.07 1.5-.38 2.1-1.39 2.7-.65.38-.75.4-3.08.44l-2.42.05v-6.68zm63.28 16.46V25.35h2.45v7.49h9.23v-7.49h2.45V43.8h-2.45V35h-9.23v8.8h-2.45zm47.13-.01V25.34l3.34.08 8.12 15.37.08-15.44h2.45V43.8l-3.34-.09-8.12-15.36-.08 15.44h-2.45zm69.05 0V25.35h2.45l.07 7.84 8.34-7.84h3.05s-9.15 8.55-9.15 8.62c0 .04 9.87 9.81 9.87 9.81l-1.58.01h-1.59l-9.01-9v9h-2.45zm44.68.01l.01-18.45h2.45v16.29h9.08v2.16h-11.54zm18.89 0V25.35h2.45v16.29h9.08v2.16h-11.53zm18.88 0V25.35h11.68v2.16h-9.22v5.33h8.93V35h-8.94v6.64h9.51v2.16h-11.96zm-323.6-5.91v-2.02h6.63v2.02h-6.63z" fill="#9a9b9f"/><g transform="translate(24.39 -48.82)"><circle cx="25.63" cy="98.85" r="33" fill="#6d6e72"/><path d="M10.86 148.67a7.77 7.77 0 01-5.45-5.7l-.17-.88-1.37-.68a46.01 46.01 0 01-12.06-8.79c-1.83-1.82-4.78-5.22-4.65-5.34.07-.06 5.74-3.1 5.85-3.13.07-.02.7.64 1.42 1.48a41.94 41.94 0 0011.9 9.52l1.42.73.45-.38c2-1.68 5.4-2 7.9-.72a8 8 0 013.17 3.28c.32.63.58 1.23.58 1.33 0 .33 3.36.56 6.78.46 4.04-.1 6.95-.54 10.36-1.55a5.1 5.1 0 011.6-.32c.16.16 3.2 5.84 3.14 5.88-.02.02-.66.23-1.4.48-2.9.93-5.87 1.6-8.88 2-2.3.32-9.05.33-11.38.01l-1.59-.22-.65.62a6.96 6.96 0 01-5.17 2.07c-.68 0-1.5-.07-1.8-.15z" fill="#00a652"/><path d="M53.36 136.05l-1.6-3-.95-1.7.5-.43a41.95 41.95 0 0010.73-13.12c.46-.9.5-1.06.33-1.32-1.52-2.38-1.9-3.82-1.57-5.86a7.6 7.6 0 014.92-5.88c.62-.2.62-.2.86-3.19a40.78 40.78 0 00-1.8-14.95l-.2-.74 1.6-.86 3.01-1.6 1.4-.75.16.4c.76 2 1.7 5.88 2.2 8.98.26 1.68.3 2.6.3 6.57.01 3.13-.05 5.04-.18 5.95l-.19 1.33.74.83a8.87 8.87 0 011.87 3.6 7.18 7.18 0 01-1.97 6.54 7.3 7.3 0 01-3.8 2.18l-.88.17-.65 1.3c-3.1 6.2-7.47 11.48-13.47 16.28l-.67.54z" fill="#ec1b2e"/><path d="M22.17 116.61l-1.3-.2a16.2 16.2 0 01-12.69-10.75C6.42 100.6 7.01 94.33 9.71 89.2a19.29 19.29 0 0114.4-10.27 29.4 29.4 0 016.3-.02c1.65.3 3.25.81 4.77 1.54a14.85 14.85 0 018.1 10.94c.43 2.5.21 6.24-.49 8.4-1.22 3.67-3.42 6.11-6.52 7.21-1.45.52-3.74.56-4.75.1a4.3 4.3 0 01-2.4-3.38l-.1-.76-.78 1.05a7.95 7.95 0 01-4.64 3.2c-3.29.83-6.2-.57-7.45-3.57-.96-2.27-.7-5.9.6-8.66a12.83 12.83 0 0111.7-7.4c1.14-.02 2.43.18 2.95.28 1 .2 3.02.83 3.2 1 .06.06-.32 2.5-.84 5.43-1.04 5.94-1.2 7.3-.94 8.4.25 1.02.7 1.38 1.64 1.38 3.35-.02 5.73-4.85 5.28-10.72-.45-5.72-3.34-9.25-8.63-11.02-.98-.33-1.73-.49-4.08-.49-2.44 0-2.57.07-4 .38-6.15 1.33-10.15 6.1-11.6 12.64-.3 1.38-.44 5.3-.23 6.87 1.04 7.86 7.24 12.51 15.54 11.66 2.1-.2 4.17-.73 6.1-1.6.26.44.45.9.58 1.4.53 1.6.61 1.42-1.09 2.08a20.89 20.89 0 01-5.23 1.27 33.8 33.8 0 01-4.93.08zm2.4-13.28c1.38-.47 3.2-2.69 3.86-4.74.22-.67 1.4-6.86 1.32-6.94-.02-.02-.5-.1-1.08-.18-4.38-.62-8.23 3.24-8.25 8.28 0 1.95.53 3.11 1.67 3.62.6.26 1.62.25 2.47-.04z" fill="#fff"/><path d="M-19.99 113.34c-.93-3-1.6-6.08-1.98-9.2-.25-1.86-.22-8.79.06-10.8l.2-1.53-.75-.85a7.1 7.1 0 01-1.93-5.04c0-2.1.75-3.84 2.3-5.3a7.1 7.1 0 013.48-1.9l.95-.25.46-.96A49.12 49.12 0 01-3.89 61.22c.52-.4 1-.75 1.03-.75.1 0 3.13 5.7 3.13 5.88 0 .08-.3.4-.69.7A41.69 41.69 0 00-10.76 79.7l-.66 1.23.6.87a6.79 6.79 0 011.25 3.86c.1.8 0 1.61-.25 2.38a7.66 7.66 0 01-5.07 5.07c-.35.11-.48 1.7-.48 5.93 0 4.5.38 7.26 1.52 11.22.24.86.42 1.58.4 1.6-.14.13-5.8 3.11-5.9 3.11a7.36 7.36 0 01-.62-1.62z" fill="#ec1b2e"/><path d="M57 72.36a43.85 43.85 0 00-8.74-7.79c-1.59-1.04-4.46-2.65-4.72-2.65-.1 0-.5.22-.88.5a7.3 7.3 0 01-9.1-.6 8.04 8.04 0 01-2.05-2.97c-.1-.35-.3-.6-.48-.69-5.6-.77-11.29-.36-16.72 1.2l-1.68.5s-3.16-5.92-3.06-6c.52-.48 6.7-2.04 9.43-2.39a56.6 56.6 0 0111.64-.15l2.07.23.82-.76a7.26 7.26 0 0110.16.2 7.55 7.55 0 012.18 4.2c.07.31.3.5 1.2.94a47.02 47.02 0 0112.3 8.95c1.92 1.91 4.6 5.03 4.6 5.32 0 .08-5.8 3.2-5.93 3.2-.03 0-.5-.57-1.05-1.24z" fill="#00a652"/></g></svg>