<?xml version="1.0" encoding="utf-8"?>
<svg version="1.1" id="Ebene_1" x="0px" y="0px" width="197.655px" height="60px" viewBox="0 303.12 612 185.778" enable-background="new 0 303.12 612 185.778" xmlns="http://www.w3.org/2000/svg">
  <title>HSPV NRW</title>
  <path d="M227.148,367.54h15.773v22.207h17.804V367.54h15.774v59.621h-15.774v-23.652h-17.804v23.652h-15.773V367.54z " style="fill: rgb(166, 166, 166);"/>
  <path d="M284.309,419.747l8.979-10.837c4.231,3.439,9.546,5.779,13.95,5.779c4.765,0,6.794-1.548,6.794-4.215 c0-2.666-3.027-3.767-8.084-5.779l-7.432-3.113c-6.416-2.58-12.041-7.981-12.041-16.617c0-10.167,9.169-18.526,22.19-18.526 c7.411-0.014,14.54,2.847,19.885,7.981l-7.878,9.908c-3.396-2.71-7.594-4.222-11.938-4.3c-3.853,0-6.227,1.376-6.227,4.025 c0,2.649,3.44,3.853,8.807,5.969l7.242,2.838c7.432,2.941,11.646,8.067,11.646,16.325c0,10.097-8.429,19.094-23.291,19.094 C298.595,428.252,290.569,425.222,284.309,419.747z" style="fill: rgb(166, 166, 166);"/>
  <path d="M339.715,367.54h21.829c13.021,0,24.22,4.765,24.22,19.816c0,14.587-11.37,20.917-23.842,20.917h-6.434 v18.922h-15.773V367.54z M361.235,395.802c6.227,0,9.168-3.131,9.168-8.446c0-5.315-3.44-7.328-9.529-7.328h-5.333v15.774H361.235z" style="fill: rgb(166, 166, 166);"/>
  <path d="M387.965,367.54h16.703l6.228,26.061c1.72,6.33,2.752,12.472,4.403,18.921h0.378 c1.721-6.416,2.839-12.557,4.404-18.921l6.055-26.061h16.135l-17.614,59.621H405.58L387.965,367.54z" style="fill: rgb(166, 166, 166);"/>
  <path d="M450.166,366.766h4.404l25.51,42.66l6.777,12.041h0.379c-0.189-5.883-0.551-11.748-0.551-17.614v-37.087 h4.025v60.396h-4.404l-25.492-42.643l-6.795-12.042h-0.361c0.189,5.78,0.551,11.285,0.551,17.202v37.483h-4.043V366.766z" style="fill: rgb(166, 166, 166);"/>
  <path d="M504.937,366.766h17.339c12.041,0,19.816,4.404,19.816,15.963c0,9.633-5.969,15.223-15.481,16.427 l16.686,28.057h-4.885l-16.41-27.764h-12.833v27.712h-4.214L504.937,366.766z M521.175,396.009c10.647,0,16.6-4.318,16.6-13.211 c0-8.894-5.952-12.385-16.6-12.385h-12.041v25.476L521.175,396.009z" style="fill: rgb(166, 166, 166);"/>
  <path d="M546.685,366.766h4.404l7.603,35.59c1.376,6.605,2.753,13.211,4.129,19.73h0.378 c1.462-6.52,3.027-13.125,4.679-19.73l9.444-35.59h4.317l9.443,35.59c1.721,6.605,3.2,13.125,4.852,19.73h0.378 c1.376-6.605,2.563-13.125,3.939-19.73l7.62-35.59H612l-13.486,60.447h-4.679l-11.01-41.525c-1.101-4.765-2.201-8.893-3.217-13.658 h-0.36c-1.016,4.765-2.288,8.894-3.44,13.658l-10.82,41.456h-4.575L546.685,366.766z" style="fill: rgb(166, 166, 166);"/>
  <path d="M9.392,355.378V345.9c0.008-0.428,0.36-0.768,0.788-0.761c0.108,0.002,0.215,0.027,0.313,0.072 l82.292,37.981l92.786-42.815L92.785,303.12L0,338.813v22.689l92.785,42.832l82.293-37.981c0.377-0.181,0.829-0.021,1.01,0.356 c0.049,0.104,0.074,0.217,0.074,0.332v9.478c0.01,0.503-0.281,0.963-0.74,1.17l-82.567,38.135L0,373.01v30.773l92.785,42.833 l82.293-37.999c0.392-0.171,0.848,0.008,1.019,0.4c0.043,0.096,0.064,0.2,0.065,0.305v9.479c0.005,0.502-0.284,0.959-0.74,1.17 l-82.567,38.136L0,415.291v30.774l92.785,42.832l92.786-42.832v-9.633l-92.786,42.814l-82.637-38.136 c-0.459-0.208-0.755-0.665-0.757-1.17v-9.685c-0.001-0.352,0.283-0.638,0.635-0.639c0.103,0,0.203,0.024,0.294,0.071l82.465,38.067 l92.786-42.832v-30.774l-92.786,42.815L10.149,398.83c-0.442-0.191-0.736-0.619-0.757-1.102v-9.547 c0.008-0.427,0.36-0.768,0.788-0.76c0.108,0.002,0.215,0.027,0.313,0.072l82.292,37.981l92.786-42.832v-30.774l-92.786,42.832 l-82.637-38.153C9.684,356.347,9.385,355.885,9.392,355.378z" style="fill: rgb(166, 166, 166);"/>
</svg>