<?xml version="1.0" encoding="utf-8"?>
<svg version="1.1" id="Ebene_1" x="0px" y="0px" viewBox="-134 -54 1160.9 334" width="891.175px" height="216.605px" xmlns="http://www.w3.org/2000/svg">
  <style type="text/css" id="style3918">
	.st0{fill:#006AB3;}
</style>
  <g id="g3934" transform="translate(-133.9,-114.71)">
    <path class="st0" d="m 629.89,162.94 v 75.45 c 0,44.98 -33.69,75.45 -75.26,75.45 -41.56,0 -75.26,-30.48 -75.26,-75.45 0,-6.49 0,-75.45 0,-75.45 h 38.14 c 0,13.71 0,69.37 0,72.17 0,23.32 16.62,39.26 37.12,39.26 20.5,0 37.12,-15.94 37.12,-39.26 v -72.17 z" id="path3920" style="fill:#006ab3"/>
    <path class="st0" d="m 172.04,237.78 c 0,-23.31 16.62,-39.26 37.12,-39.26 20.5,0 37.12,15.94 37.12,39.26 v 72.17 h 38.14 V 234.5 c 0,-44.98 -33.69,-75.45 -75.26,-75.45 -13.51,0 -26.16,3.27 -37.12,9.16 v -53.5 H 133.9 v 195.24 h 38.14 v 0" id="path3922" style="fill:#006ab3"/>
    <path class="st0" d="m 345.41,237.78 c 0,-23.31 16.62,-39.26 37.12,-39.26 20.5,0 37.12,15.94 37.12,39.26 v 72.17 h 38.14 V 234.5 c 0,-44.98 -33.69,-75.45 -75.26,-75.45 -13.51,0 -26.16,3.27 -37.12,9.16 v -53.5 h -38.14 v 195.24 h 38.14 v 0" id="path3924" style="fill:#006ab3"/>
    <path d="m 928.13,275.36 c -0.46,-0.28 -1.19,-0.54 -2.17,-0.77 -0.98,-0.23 -2.05,-0.34 -3.19,-0.34 -1.57,0 -2.98,0.28 -4.23,0.84 -1.25,0.56 -2.32,1.53 -3.22,2.9 -0.68,1.02 -1.09,2.14 -1.23,3.35 -0.14,1.21 -0.21,1.64 -0.21,2.7 v 2.8 h -4.23 v 2.64 h 4.23 v 20.53 h 4.02 v -20.53 h 6.48 v -2.64 h -6.48 v -2.64 c 0,-0.88 0.04,-1.1 0.11,-2.09 0.07,-0.98 0.25,-1.87 0.53,-2.66 0.28,-0.79 0.71,-1.45 1.26,-1.98 0.55,-0.53 1.33,-0.79 2.33,-0.79 1.04,0 1.93,0.18 2.68,0.53 0.75,0.35 1.38,0.72 1.87,1.11 z m -37.48,34.65 h 3.96 v -11.14 c 0,-0.77 0.03,-1.55 0.08,-2.32 0.05,-0.77 0.17,-1.51 0.35,-2.22 0.39,-1.44 0.97,-2.65 1.74,-3.62 0.77,-0.97 1.63,-1.45 2.6,-1.45 1.61,0 2.46,0.86 2.57,2.59 l 3.48,-1.21 c -0.04,-0.78 -0.2,-1.44 -0.48,-2.01 -0.29,-0.56 -0.64,-1.01 -1.07,-1.35 -0.43,-0.33 -0.9,-0.58 -1.42,-0.74 -0.52,-0.16 -1.01,-0.24 -1.47,-0.24 -1.39,0 -2.61,0.39 -3.64,1.16 -1.04,0.77 -1.91,1.81 -2.63,3.11 l -0.54,-4.01 -4.02,0.37 c 0.04,0.18 0.08,0.48 0.13,0.92 0.05,0.44 0.11,0.94 0.16,1.51 0.05,0.56 0.1,1.14 0.13,1.74 0.04,0.6 0.06,1.16 0.06,1.69 v 17.22 z m -13.42,-4.96 c -1.23,1.72 -2.96,2.59 -5.17,2.59 -2.22,0 -3.94,-0.86 -5.17,-2.59 -1.23,-1.72 -1.85,-4.01 -1.85,-6.86 0,-2.82 0.61,-5.07 1.82,-6.76 1.21,-1.69 2.95,-2.53 5.2,-2.53 2.25,0 3.98,0.84 5.2,2.53 1.22,1.69 1.82,3.94 1.82,6.76 -0.01,2.85 -0.62,5.14 -1.85,6.86 m 5.59,-11.74 c -0.5,-1.5 -1.23,-2.77 -2.2,-3.83 -0.96,-1.06 -2.17,-1.87 -3.62,-2.45 -1.45,-0.58 -3.1,-0.87 -4.96,-0.87 -1.86,0 -3.5,0.29 -4.93,0.87 -1.43,0.58 -2.63,1.4 -3.62,2.45 -0.98,1.06 -1.72,2.33 -2.22,3.83 -0.5,1.5 -0.75,3.16 -0.75,4.99 0,1.9 0.29,3.62 0.88,5.15 0.59,1.53 1.4,2.83 2.44,3.91 1.04,1.07 2.26,1.9 3.67,2.48 1.41,0.58 2.92,0.87 4.53,0.87 1.61,0 3.11,-0.29 4.53,-0.87 1.41,-0.58 2.63,-1.41 3.67,-2.48 1.04,-1.07 1.85,-2.38 2.44,-3.91 0.59,-1.53 0.88,-3.24 0.88,-5.15 0.01,-1.84 -0.24,-3.5 -0.74,-4.99 m -32.68,16.97 4.02,-0.37 c -0.04,-0.18 -0.08,-0.48 -0.13,-0.92 -0.05,-0.44 -0.11,-0.93 -0.16,-1.48 -0.05,-0.54 -0.1,-1.12 -0.13,-1.74 -0.04,-0.61 -0.05,-1.19 -0.05,-1.72 v -29.54 h -3.86 v 15.65 c -0.57,-1.09 -1.49,-2.03 -2.76,-2.82 -1.27,-0.79 -2.76,-1.19 -4.47,-1.19 -1.46,0 -2.84,0.26 -4.13,0.79 -1.28,0.53 -2.41,1.31 -3.37,2.35 -0.96,1.04 -1.73,2.34 -2.3,3.9 -0.57,1.57 -0.86,3.37 -0.86,5.41 0,1.65 0.2,3.21 0.62,4.67 0.41,1.46 1.04,2.75 1.87,3.85 0.84,1.11 1.91,1.98 3.22,2.61 1.3,0.63 2.85,0.95 4.63,0.95 1.14,0 2.13,-0.16 2.98,-0.47 0.84,-0.32 1.55,-0.7 2.14,-1.16 0.59,-0.46 1.06,-0.94 1.42,-1.45 0.36,-0.51 0.62,-0.96 0.8,-1.35 z m -1.07,-7.18 c -0.54,1.27 -1.19,2.24 -1.96,2.93 -0.77,0.69 -1.57,1.14 -2.41,1.37 -0.84,0.23 -1.54,0.34 -2.12,0.34 -1.07,0 -2,-0.24 -2.79,-0.71 -0.79,-0.47 -1.44,-1.13 -1.95,-1.98 -0.52,-0.84 -0.9,-1.85 -1.15,-3.01 -0.25,-1.16 -0.37,-2.41 -0.37,-3.75 0,-1.37 0.16,-2.63 0.48,-3.77 0.32,-1.14 0.78,-2.12 1.37,-2.93 0.59,-0.81 1.29,-1.43 2.12,-1.87 0.82,-0.44 1.72,-0.66 2.68,-0.66 0.93,0 1.81,0.17 2.65,0.5 0.84,0.33 1.57,0.87 2.2,1.61 0.62,0.74 1.12,1.67 1.5,2.8 0.38,1.13 0.56,2.48 0.56,4.06 -0.01,2.11 -0.27,3.8 -0.81,5.07 m -24.48,-28.59 h -4.23 v 35.5 h 4.23 z m -17.43,16.13 c 0.91,1.26 1.37,2.96 1.37,5.07 v 0.79 H 796.9 c 0.14,-1.02 0.39,-2 0.75,-2.93 0.36,-0.93 0.81,-1.76 1.37,-2.48 0.55,-0.72 1.21,-1.29 1.98,-1.72 0.77,-0.42 1.63,-0.63 2.6,-0.63 1.46,0 2.64,0.63 3.56,1.9 m 5.54,8.5 v -2.32 c 0,-1.3 -0.15,-2.59 -0.46,-3.88 -0.3,-1.28 -0.81,-2.43 -1.53,-3.43 -0.71,-1 -1.67,-1.81 -2.86,-2.43 -1.2,-0.62 -2.71,-0.93 -4.53,-0.93 -1.5,0 -2.9,0.3 -4.21,0.9 -1.3,0.6 -2.44,1.43 -3.4,2.51 -0.96,1.07 -1.72,2.36 -2.28,3.85 -0.56,1.49 -0.83,3.16 -0.83,4.99 0,4.05 0.95,7.11 2.84,9.18 1.89,2.08 4.7,3.11 8.41,3.11 1.93,0 3.62,-0.39 5.09,-1.16 1.46,-0.77 2.84,-1.9 4.12,-3.38 l -1.66,-1.69 c -1.57,1.37 -2.92,2.27 -4.05,2.69 -1.12,0.42 -2.22,0.63 -3.29,0.63 -2.36,0 -4.13,-0.75 -5.3,-2.24 -1.17,-1.49 -1.84,-3.64 -1.98,-6.42 h 15.92 z m -26.65,1.29 c -0.45,-0.79 -1.02,-1.47 -1.72,-2.03 -0.7,-0.56 -1.46,-1 -2.28,-1.32 -0.82,-0.32 -1.63,-0.58 -2.41,-0.79 -1.47,-0.39 -2.65,-0.93 -3.56,-1.64 -0.91,-0.7 -1.37,-1.65 -1.37,-2.85 0,-0.92 0.4,-1.68 1.21,-2.3 0.8,-0.62 1.83,-0.93 3.08,-0.93 1.32,0 2.35,0.25 3.08,0.74 0.73,0.49 1.37,1 1.9,1.53 l 2.04,-2.58 c -0.57,-0.49 -1.4,-0.97 -2.49,-1.43 -1.09,-0.46 -2.55,-0.69 -4.37,-0.69 -1.11,0 -2.16,0.13 -3.16,0.4 -1,0.26 -1.88,0.66 -2.65,1.19 -0.77,0.53 -1.38,1.19 -1.85,2 -0.47,0.81 -0.7,1.74 -0.7,2.8 0,1.23 0.21,2.26 0.64,3.09 0.43,0.83 0.98,1.52 1.66,2.06 0.68,0.54 1.41,0.97 2.2,1.27 0.79,0.3 1.53,0.55 2.25,0.76 1.5,0.42 2.71,0.94 3.62,1.56 0.91,0.62 1.37,1.65 1.37,3.09 0,1.23 -0.37,2.17 -1.1,2.82 -0.73,0.65 -1.78,0.98 -3.14,0.98 -0.71,0 -1.38,-0.11 -2.01,-0.34 -0.63,-0.23 -1.21,-0.52 -1.74,-0.87 -0.54,-0.35 -1.01,-0.71 -1.42,-1.08 -0.41,-0.37 -0.74,-0.71 -0.99,-1.03 l -2.04,3.22 c 2.25,1.76 4.96,2.64 8.14,2.64 1.18,0 2.29,-0.16 3.32,-0.47 1.04,-0.32 1.93,-0.78 2.68,-1.4 0.75,-0.61 1.35,-1.38 1.79,-2.3 0.45,-0.92 0.67,-1.97 0.67,-3.17 0.02,-1.16 -0.21,-2.14 -0.65,-2.93 m -22.34,0 c -0.45,-0.79 -1.02,-1.47 -1.71,-2.03 -0.7,-0.56 -1.46,-1 -2.28,-1.32 -0.82,-0.32 -1.62,-0.58 -2.41,-0.79 -1.46,-0.39 -2.65,-0.93 -3.56,-1.64 -0.91,-0.7 -1.37,-1.65 -1.37,-2.85 0,-0.92 0.4,-1.68 1.2,-2.3 0.8,-0.62 1.83,-0.93 3.08,-0.93 1.32,0 2.35,0.25 3.08,0.74 0.73,0.49 1.37,1 1.9,1.53 l 2.04,-2.58 c -0.57,-0.49 -1.4,-0.97 -2.49,-1.43 -1.09,-0.46 -2.54,-0.69 -4.37,-0.69 -1.11,0 -2.16,0.13 -3.16,0.4 -1,0.26 -1.88,0.66 -2.65,1.19 -0.77,0.53 -1.38,1.19 -1.85,2 -0.46,0.81 -0.7,1.74 -0.7,2.8 0,1.23 0.21,2.26 0.64,3.09 0.43,0.83 0.98,1.52 1.66,2.06 0.68,0.54 1.41,0.97 2.2,1.27 0.79,0.3 1.54,0.55 2.25,0.76 1.5,0.42 2.71,0.94 3.62,1.56 0.91,0.62 1.37,1.65 1.37,3.09 0,1.23 -0.37,2.17 -1.1,2.82 -0.73,0.65 -1.78,0.98 -3.13,0.98 -0.72,0 -1.39,-0.11 -2.01,-0.34 -0.63,-0.23 -1.21,-0.52 -1.74,-0.87 -0.54,-0.35 -1.01,-0.71 -1.42,-1.08 -0.41,-0.37 -0.74,-0.71 -0.99,-1.03 l -2.04,3.22 c 2.25,1.76 4.96,2.64 8.14,2.64 1.18,0 2.29,-0.16 3.32,-0.47 1.04,-0.32 1.93,-0.78 2.68,-1.4 0.75,-0.61 1.35,-1.38 1.79,-2.3 0.45,-0.92 0.67,-1.97 0.67,-3.17 0.01,-1.16 -0.22,-2.14 -0.66,-2.93 m -36.46,-23.41 c -0.46,-0.47 -1.05,-0.71 -1.77,-0.71 -0.68,0 -1.26,0.24 -1.74,0.71 -0.48,0.47 -0.72,1.03 -0.72,1.66 0,0.63 0.24,1.19 0.72,1.66 0.48,0.47 1.06,0.71 1.74,0.71 0.72,0 1.3,-0.24 1.77,-0.71 0.46,-0.48 0.7,-1.03 0.7,-1.66 0,-0.63 -0.24,-1.19 -0.7,-1.66 m 9.88,0 c -0.48,-0.47 -1.06,-0.71 -1.74,-0.71 -0.72,0 -1.31,0.24 -1.77,0.71 -0.46,0.47 -0.7,1.03 -0.7,1.66 0,0.63 0.23,1.19 0.7,1.66 0.46,0.47 1.05,0.71 1.77,0.71 0.68,0 1.26,-0.24 1.74,-0.71 0.48,-0.48 0.73,-1.03 0.73,-1.66 0,-0.63 -0.24,-1.19 -0.73,-1.66 m -16.63,9.82 v 14.57 c 0,1.23 0.05,2.41 0.16,3.54 0.11,1.12 0.43,2.11 0.96,2.96 0.53,0.84 1.35,1.52 2.44,2.03 1.09,0.51 2.6,0.77 4.53,0.77 1.21,0 2.28,-0.19 3.19,-0.55 0.91,-0.37 1.68,-0.8 2.31,-1.29 0.62,-0.49 1.12,-0.99 1.47,-1.48 0.36,-0.49 0.63,-0.86 0.8,-1.11 l 0.53,4.01 4.02,-0.37 c -0.04,-0.18 -0.08,-0.48 -0.13,-0.92 -0.05,-0.44 -0.11,-0.93 -0.16,-1.48 -0.05,-0.54 -0.1,-1.12 -0.13,-1.74 -0.03,-0.61 -0.05,-1.19 -0.05,-1.72 v -17.21 h -4.18 v 12.98 c 0,1.06 -0.17,2.06 -0.51,3.01 -0.34,0.95 -0.8,1.78 -1.39,2.48 -0.59,0.7 -1.29,1.26 -2.09,1.66 -0.8,0.4 -1.69,0.61 -2.65,0.61 -1.07,0 -1.94,-0.13 -2.6,-0.4 -0.66,-0.26 -1.16,-0.66 -1.5,-1.19 -0.34,-0.53 -0.56,-1.18 -0.67,-1.95 -0.11,-0.77 -0.16,-1.65 -0.16,-2.64 v -14.57 z m -13.13,13.35 c -0.68,1.83 -1.61,3.27 -2.78,4.33 -1.18,1.06 -2.54,1.79 -4.07,2.19 -1.54,0.4 -3.16,0.61 -4.88,0.61 -0.68,0 -1.36,-0.02 -2.04,-0.05 -0.68,-0.04 -1.43,-0.11 -2.25,-0.21 l -0.18,-28.07 c 0.61,-0.04 1.22,-0.05 1.85,-0.05 h 1.79 c 4.68,0 8.08,1.15 10.21,3.46 2.12,2.31 3.37,6.34 3.37,10.84 0,2.8 -0.34,5.12 -1.02,6.95 m 4.4,-14.88 c -0.8,-2.04 -1.96,-3.73 -3.45,-5.07 -1.5,-1.34 -3.32,-2.34 -5.47,-3.01 -2.14,-0.67 -4.54,-1 -7.18,-1 -1.11,0 -1.98,0.01 -2.63,0.03 -0.64,0.02 -1.23,0.04 -1.77,0.05 -0.53,0.02 -1.12,0.04 -1.77,0.05 -0.64,0.02 -1.52,0.05 -2.63,0.08 l 0.18,33.56 c 1.04,0 2.31,0.02 3.83,0.05 1.52,0.03 3.15,0.05 4.9,0.05 1.79,0 3.7,-0.23 5.73,-0.69 2.03,-0.46 3.91,-1.3 5.62,-2.53 1.72,-1.23 3.14,-2.96 4.29,-5.17 1.14,-2.22 1.71,-5.09 1.71,-8.6 0.03,-2.73 -0.55,-5.76 -1.36,-7.8" id="path3926"/>
    <path d="m 923.59,249.82 c -0.5,0.25 -0.95,0.43 -1.36,0.55 -0.41,0.12 -0.86,0.18 -1.36,0.18 -0.28,0 -0.62,-0.05 -1.01,-0.16 -0.39,-0.11 -0.69,-0.25 -0.91,-0.42 -0.5,-0.39 -0.79,-0.86 -0.88,-1.42 -0.09,-0.56 -0.13,-1.44 -0.13,-2.64 v -13.72 h 5.53 v -2.64 h -5.53 v -6.81 l -4.04,0.95 v 5.86 h -3.94 v 2.64 h 3.94 v 14.09 c 0,1.19 0.04,2.23 0.13,3.09 0.09,0.86 0.36,1.59 0.82,2.19 0.5,0.67 1.14,1.14 1.94,1.42 0.8,0.28 1.64,0.42 2.53,0.42 0.92,0 1.84,-0.14 2.74,-0.42 0.91,-0.28 1.68,-0.67 2.32,-1.16 z m -31.55,-29.9 c -0.46,-0.47 -1.05,-0.71 -1.75,-0.71 -0.67,0 -1.25,0.24 -1.73,0.71 -0.48,0.47 -0.72,1.03 -0.72,1.66 0,0.63 0.24,1.19 0.72,1.66 0.48,0.47 1.06,0.71 1.73,0.71 0.71,0 1.29,-0.24 1.75,-0.71 0.46,-0.47 0.69,-1.03 0.69,-1.66 0,-0.63 -0.23,-1.19 -0.69,-1.66 m 9.82,0 c -0.48,-0.47 -1.06,-0.71 -1.73,-0.71 -0.71,0 -1.3,0.24 -1.76,0.71 -0.46,0.47 -0.69,1.03 -0.69,1.66 0,0.63 0.23,1.19 0.69,1.66 0.46,0.47 1.05,0.71 1.76,0.71 0.67,0 1.25,-0.24 1.73,-0.71 0.48,-0.47 0.72,-1.03 0.72,-1.66 0,-0.63 -0.24,-1.19 -0.72,-1.66 m -2.56,23.8 c -0.02,0.69 -0.06,1.36 -0.13,2.03 -0.11,0.88 -0.36,1.63 -0.77,2.25 -0.41,0.61 -0.88,1.11 -1.41,1.48 -0.53,0.37 -1.08,0.63 -1.65,0.79 -0.57,0.16 -1.05,0.24 -1.44,0.24 -0.53,0 -1.05,-0.07 -1.54,-0.21 -0.5,-0.14 -0.93,-0.37 -1.3,-0.69 -0.37,-0.32 -0.67,-0.73 -0.91,-1.24 -0.23,-0.51 -0.34,-1.15 -0.34,-1.93 0,-0.77 0.16,-1.42 0.48,-1.95 0.32,-0.53 0.71,-0.96 1.17,-1.29 0.46,-0.33 0.94,-0.59 1.44,-0.77 0.5,-0.18 0.92,-0.3 1.28,-0.37 0.43,-0.11 0.9,-0.18 1.41,-0.21 0.51,-0.03 1.01,-0.07 1.49,-0.11 0.48,-0.03 0.92,-0.05 1.33,-0.05 h 0.93 c -0.01,0.67 -0.02,1.35 -0.04,2.03 m 7.48,6.52 c -0.64,0.18 -1.26,0.26 -1.86,0.26 -0.5,0 -0.9,-0.17 -1.2,-0.5 -0.3,-0.33 -0.45,-1.03 -0.45,-2.08 v -12.25 c 0,-0.42 -0.01,-0.86 -0.03,-1.32 -0.02,-0.46 -0.08,-0.92 -0.19,-1.37 -0.11,-0.46 -0.28,-0.9 -0.53,-1.32 -0.25,-0.42 -0.58,-0.79 -1.01,-1.11 -0.92,-0.7 -1.94,-1.16 -3.06,-1.37 -1.12,-0.21 -2.19,-0.32 -3.22,-0.32 -0.96,0 -1.91,0.09 -2.85,0.26 -0.94,0.18 -1.8,0.48 -2.58,0.9 -0.78,0.42 -1.45,0.98 -1.99,1.66 -0.55,0.69 -0.92,1.56 -1.09,2.61 l 3.24,1.06 c 0.11,-0.53 0.25,-1.02 0.43,-1.48 0.18,-0.46 0.45,-0.87 0.82,-1.24 0.37,-0.37 0.86,-0.66 1.46,-0.87 0.6,-0.21 1.37,-0.32 2.29,-0.32 0.5,0 0.98,0.05 1.44,0.13 0.46,0.09 0.88,0.24 1.28,0.45 0.6,0.32 1.03,0.72 1.28,1.21 0.25,0.49 0.37,1.2 0.37,2.11 v 4.01 c -1.2,0 -2.24,0.02 -3.11,0.05 -0.87,0.04 -1.71,0.11 -2.53,0.21 -1.13,0.18 -2.18,0.46 -3.14,0.84 -0.96,0.39 -1.79,0.89 -2.5,1.51 -0.71,0.61 -1.27,1.34 -1.68,2.19 -0.41,0.85 -0.61,1.79 -0.61,2.85 0,1.06 0.2,1.99 0.59,2.8 0.39,0.81 0.9,1.48 1.52,2 0.62,0.53 1.32,0.93 2.1,1.19 0.78,0.26 1.58,0.4 2.39,0.4 1.92,0 3.47,-0.42 4.66,-1.27 1.19,-0.85 2.01,-1.81 2.47,-2.9 0.11,1.06 0.47,1.97 1.09,2.74 0.62,0.77 1.53,1.16 2.74,1.16 0.71,0 1.39,-0.07 2.05,-0.21 0.66,-0.14 1.12,-0.25 1.41,-0.32 z m -26.82,-0.42 c -0.5,0.25 -0.95,0.43 -1.36,0.55 -0.41,0.12 -0.86,0.18 -1.36,0.18 -0.28,0 -0.62,-0.05 -1.01,-0.16 -0.39,-0.11 -0.69,-0.25 -0.91,-0.42 -0.5,-0.39 -0.79,-0.86 -0.88,-1.42 -0.09,-0.56 -0.13,-1.44 -0.13,-2.64 v -13.72 h 5.53 v -2.64 h -5.53 v -6.81 l -4.04,0.95 v 5.86 h -3.94 v 2.64 h 3.94 v 14.09 c 0,1.19 0.04,2.23 0.13,3.09 0.09,0.86 0.36,1.59 0.83,2.19 0.5,0.67 1.14,1.14 1.94,1.42 0.8,0.28 1.64,0.42 2.53,0.42 0.92,0 1.84,-0.14 2.74,-0.42 0.91,-0.28 1.68,-0.67 2.32,-1.16 z m -20.59,-20.27 h -4.26 v 23.17 h 4.26 z m -0.21,-11.22 c -0.53,-0.54 -1.15,-0.82 -1.86,-0.82 -0.74,0 -1.38,0.27 -1.92,0.82 -0.53,0.55 -0.8,1.17 -0.8,1.87 0,0.71 0.26,1.32 0.8,1.85 0.53,0.53 1.17,0.79 1.92,0.79 0.71,0 1.33,-0.26 1.86,-0.79 0.53,-0.53 0.8,-1.14 0.8,-1.85 0,-0.7 -0.27,-1.32 -0.8,-1.87 m -12.26,24.81 c -0.44,-0.79 -1.01,-1.47 -1.7,-2.03 -0.69,-0.56 -1.45,-1 -2.26,-1.32 -0.82,-0.32 -1.61,-0.58 -2.39,-0.79 -1.45,-0.39 -2.63,-0.93 -3.54,-1.64 -0.9,-0.7 -1.36,-1.65 -1.36,-2.85 0,-0.91 0.4,-1.68 1.2,-2.3 0.8,-0.61 1.82,-0.92 3.06,-0.92 1.31,0 2.33,0.25 3.06,0.74 0.73,0.49 1.36,1 1.89,1.53 l 2.02,-2.59 c -0.57,-0.49 -1.39,-0.97 -2.47,-1.42 -1.08,-0.46 -2.53,-0.69 -4.34,-0.69 -1.1,0 -2.15,0.13 -3.14,0.4 -0.99,0.26 -1.87,0.66 -2.63,1.19 -0.76,0.53 -1.38,1.2 -1.84,2.01 -0.46,0.81 -0.69,1.74 -0.69,2.8 0,1.23 0.21,2.26 0.64,3.09 0.42,0.83 0.98,1.51 1.65,2.06 0.67,0.55 1.4,0.97 2.18,1.27 0.78,0.3 1.52,0.55 2.24,0.77 1.49,0.42 2.69,0.94 3.59,1.56 0.9,0.62 1.36,1.65 1.36,3.09 0,1.23 -0.36,2.17 -1.09,2.82 -0.73,0.65 -1.77,0.98 -3.11,0.98 -0.71,0 -1.38,-0.11 -1.99,-0.34 -0.62,-0.23 -1.2,-0.52 -1.73,-0.87 -0.53,-0.35 -1,-0.71 -1.41,-1.08 -0.41,-0.37 -0.74,-0.71 -0.99,-1.03 l -2.02,3.22 c 2.23,1.76 4.93,2.64 8.09,2.64 1.17,0 2.27,-0.16 3.3,-0.48 1.03,-0.32 1.92,-0.78 2.66,-1.4 0.75,-0.62 1.34,-1.38 1.78,-2.3 0.44,-0.92 0.66,-1.97 0.66,-3.17 -0.02,-1.18 -0.24,-2.16 -0.68,-2.95 m -34.24,9.58 h 3.94 v -11.14 c 0,-0.77 0.03,-1.55 0.08,-2.32 0.05,-0.77 0.17,-1.51 0.35,-2.22 0.39,-1.44 0.97,-2.65 1.73,-3.62 0.76,-0.97 1.62,-1.45 2.58,-1.45 1.59,0 2.45,0.86 2.55,2.58 l 3.46,-1.21 c -0.04,-0.77 -0.2,-1.44 -0.48,-2 -0.28,-0.56 -0.64,-1.01 -1.06,-1.35 -0.42,-0.34 -0.9,-0.58 -1.41,-0.74 -0.52,-0.16 -1,-0.24 -1.46,-0.24 -1.38,0 -2.59,0.39 -3.62,1.16 -1.03,0.77 -1.9,1.81 -2.61,3.11 l -0.53,-4.01 -3.99,0.37 c 0.03,0.18 0.08,0.48 0.13,0.93 0.05,0.44 0.11,0.94 0.16,1.5 0.05,0.56 0.1,1.14 0.13,1.74 0.03,0.6 0.05,1.16 0.05,1.69 z m -12.85,-19.37 c 0.9,1.27 1.36,2.96 1.36,5.07 v 0.79 h -11.55 c 0.14,-1.02 0.39,-1.99 0.75,-2.93 0.35,-0.93 0.8,-1.76 1.36,-2.48 0.55,-0.72 1.2,-1.29 1.97,-1.72 0.76,-0.42 1.62,-0.63 2.58,-0.63 1.45,0 2.63,0.63 3.53,1.9 m 5.51,8.5 v -2.32 c 0,-1.3 -0.15,-2.59 -0.45,-3.88 -0.3,-1.28 -0.81,-2.43 -1.52,-3.43 -0.71,-1 -1.66,-1.81 -2.85,-2.43 -1.19,-0.61 -2.69,-0.92 -4.5,-0.92 -1.49,0 -2.88,0.3 -4.18,0.9 -1.3,0.6 -2.42,1.44 -3.38,2.51 -0.96,1.07 -1.71,2.36 -2.26,3.85 -0.55,1.5 -0.83,3.16 -0.83,4.99 0,4.05 0.94,7.11 2.82,9.19 1.88,2.08 4.66,3.11 8.35,3.11 1.92,0 3.6,-0.39 5.05,-1.16 1.45,-0.78 2.82,-1.9 4.1,-3.38 l -1.65,-1.69 c -1.56,1.37 -2.9,2.27 -4.02,2.69 -1.12,0.42 -2.21,0.63 -3.27,0.63 -2.34,0 -4.1,-0.75 -5.27,-2.24 -1.17,-1.49 -1.83,-3.63 -1.97,-6.41 z m -41.02,-12.3 h -4.57 l 9.52,23.65 h 3.35 l 9.74,-23.65 h -3.83 l -6.17,16.26 c -0.6,1.62 -0.94,2.83 -1.01,3.64 -0.07,-0.39 -0.18,-0.9 -0.32,-1.53 -0.14,-0.63 -0.39,-1.41 -0.74,-2.32 z m -10.4,0 h -4.26 v 23.17 h 4.26 z m -0.22,-11.22 c -0.53,-0.54 -1.15,-0.82 -1.86,-0.82 -0.74,0 -1.38,0.27 -1.92,0.82 -0.53,0.55 -0.8,1.17 -0.8,1.87 0,0.71 0.27,1.32 0.8,1.85 0.53,0.53 1.17,0.79 1.92,0.79 0.71,0 1.33,-0.26 1.86,-0.79 0.53,-0.53 0.8,-1.14 0.8,-1.85 0,-0.7 -0.27,-1.32 -0.8,-1.87 m -12.47,34.39 v -14.57 c 0,-1.23 -0.05,-2.41 -0.16,-3.54 -0.11,-1.12 -0.43,-2.11 -0.96,-2.96 -0.53,-0.85 -1.34,-1.52 -2.42,-2.03 -1.08,-0.51 -2.58,-0.76 -4.5,-0.76 -1.2,0 -2.26,0.18 -3.17,0.55 -0.9,0.37 -1.67,0.8 -2.29,1.29 -0.62,0.49 -1.12,0.99 -1.49,1.48 -0.37,0.49 -0.63,0.86 -0.77,1.11 l -0.53,-4.01 -3.99,0.37 c 0.04,0.18 0.08,0.48 0.13,0.93 0.05,0.44 0.11,0.94 0.16,1.5 0.05,0.56 0.1,1.14 0.13,1.74 0.04,0.6 0.05,1.16 0.05,1.69 v 17.21 h 4.15 v -12.98 c 0,-1.06 0.17,-2.06 0.51,-3.01 0.34,-0.95 0.8,-1.78 1.38,-2.48 0.59,-0.7 1.28,-1.26 2.07,-1.66 0.8,-0.4 1.68,-0.61 2.64,-0.61 1.06,0 1.92,0.13 2.58,0.4 0.66,0.26 1.15,0.66 1.49,1.19 0.34,0.53 0.56,1.18 0.66,1.95 0.11,0.77 0.16,1.65 0.16,2.64 v 14.57 h 4.17 z m -28.62,-32.94 h -4.15 v 20.27 c 0,2.18 -0.22,3.97 -0.66,5.36 -0.44,1.39 -1.06,2.49 -1.84,3.3 -0.78,0.81 -1.69,1.37 -2.74,1.66 -1.05,0.3 -2.17,0.45 -3.38,0.45 -1.24,0 -2.38,-0.15 -3.43,-0.45 -1.05,-0.3 -1.95,-0.85 -2.71,-1.66 -0.76,-0.81 -1.37,-1.91 -1.81,-3.3 -0.44,-1.39 -0.66,-3.18 -0.66,-5.36 v -20.27 h -4.31 v 20.64 c 0,4.86 1.08,8.31 3.24,10.35 2.16,2.04 5.39,3.06 9.68,3.06 4.29,0 7.49,-1.02 9.6,-3.06 2.11,-2.04 3.17,-5.49 3.17,-10.35 z" id="path3928"/>
    <path d="m 996.79,176.51 c 0.9,1.26 1.35,2.96 1.35,5.07 v 0.79 h -11.45 c 0.14,-1.02 0.39,-2 0.74,-2.93 0.35,-0.93 0.8,-1.76 1.35,-2.48 0.54,-0.72 1.19,-1.29 1.95,-1.72 0.76,-0.42 1.61,-0.63 2.56,-0.63 1.44,0 2.61,0.64 3.5,1.9 m 5.47,8.5 v -2.32 c 0,-1.3 -0.15,-2.59 -0.45,-3.88 -0.3,-1.29 -0.8,-2.43 -1.51,-3.43 -0.7,-1 -1.65,-1.81 -2.82,-2.43 -1.18,-0.61 -2.66,-0.92 -4.46,-0.92 -1.48,0 -2.86,0.3 -4.14,0.9 -1.29,0.6 -2.4,1.43 -3.35,2.51 -0.95,1.07 -1.7,2.36 -2.24,3.85 -0.55,1.5 -0.82,3.16 -0.82,4.99 0,4.05 0.93,7.11 2.8,9.19 1.86,2.08 4.63,3.11 8.29,3.11 1.9,0 3.57,-0.39 5.01,-1.16 1.44,-0.77 2.8,-1.9 4.06,-3.38 l -1.64,-1.69 c -1.55,1.37 -2.88,2.27 -3.98,2.69 -1.11,0.42 -2.19,0.63 -3.25,0.63 -2.32,0 -4.06,-0.75 -5.23,-2.25 -1.16,-1.49 -1.81,-3.63 -1.95,-6.41 z m -26.1,10.87 v -14.57 c 0,-1.23 -0.05,-2.41 -0.16,-3.54 -0.1,-1.12 -0.42,-2.11 -0.95,-2.96 -0.53,-0.84 -1.33,-1.52 -2.4,-2.03 -1.07,-0.51 -2.56,-0.77 -4.46,-0.77 -1.19,0 -2.24,0.19 -3.14,0.55 -0.9,0.37 -1.65,0.8 -2.27,1.29 -0.62,0.49 -1.11,0.99 -1.48,1.48 -0.37,0.49 -0.62,0.86 -0.77,1.11 l -0.53,-4.01 -3.96,0.37 c 0.03,0.18 0.08,0.48 0.13,0.92 0.05,0.44 0.1,0.94 0.16,1.51 0.05,0.56 0.1,1.14 0.13,1.74 0.04,0.6 0.05,1.16 0.05,1.69 v 17.21 h 4.12 V 182.9 c 0,-1.06 0.17,-2.06 0.5,-3.01 0.33,-0.95 0.79,-1.78 1.37,-2.48 0.58,-0.7 1.27,-1.26 2.06,-1.66 0.79,-0.4 1.66,-0.61 2.61,-0.61 1.06,0 1.91,0.13 2.56,0.4 0.65,0.26 1.14,0.66 1.48,1.19 0.33,0.53 0.55,1.18 0.66,1.95 0.11,0.77 0.16,1.65 0.16,2.64 v 14.57 z m -28.19,-23.17 h -4.22 v 23.17 h 4.22 z m -0.21,-11.21 c -0.53,-0.55 -1.14,-0.82 -1.85,-0.82 -0.74,0 -1.37,0.27 -1.9,0.82 -0.53,0.54 -0.79,1.17 -0.79,1.87 0,0.7 0.26,1.32 0.79,1.85 0.53,0.53 1.16,0.79 1.9,0.79 0.7,0 1.32,-0.26 1.85,-0.79 0.53,-0.53 0.79,-1.14 0.79,-1.85 0,-0.71 -0.26,-1.33 -0.79,-1.87 m -16.44,15.01 c 0.9,1.26 1.35,2.96 1.35,5.07 v 0.79 h -11.45 c 0.14,-1.02 0.39,-2 0.74,-2.93 0.35,-0.93 0.8,-1.76 1.34,-2.48 0.55,-0.72 1.2,-1.29 1.95,-1.72 0.76,-0.42 1.61,-0.63 2.56,-0.63 1.45,0 2.62,0.64 3.51,1.9 m 5.47,8.5 v -2.32 c 0,-1.3 -0.15,-2.59 -0.45,-3.88 -0.3,-1.28 -0.8,-2.43 -1.51,-3.43 -0.7,-1 -1.65,-1.81 -2.82,-2.43 -1.18,-0.61 -2.67,-0.92 -4.46,-0.92 -1.48,0 -2.86,0.3 -4.14,0.9 -1.28,0.6 -2.4,1.43 -3.35,2.51 -0.95,1.07 -1.7,2.36 -2.24,3.85 -0.55,1.5 -0.82,3.16 -0.82,4.99 0,4.05 0.93,7.11 2.8,9.19 1.86,2.08 4.63,3.11 8.29,3.11 1.9,0 3.57,-0.39 5.02,-1.16 1.44,-0.77 2.8,-1.9 4.06,-3.38 l -1.64,-1.69 c -1.55,1.37 -2.88,2.27 -3.98,2.69 -1.11,0.42 -2.19,0.63 -3.25,0.63 -2.32,0 -4.06,-0.75 -5.23,-2.25 -1.16,-1.49 -1.81,-3.63 -1.95,-6.41 z m -47.4,10.87 v -15.73 h 16.2 v 15.73 h 4.22 v -32.94 h -4.22 v 14.3 h -16.2 v -14.3 h -4.22 v 32.94 z M 845.47,160 h -4.12 v 35.89 h 4.12 V 182.9 c 0,-1.06 0.17,-2.06 0.5,-3.01 0.33,-0.95 0.79,-1.78 1.37,-2.48 0.58,-0.7 1.27,-1.26 2.06,-1.66 0.79,-0.4 1.66,-0.61 2.61,-0.61 1.06,0 1.91,0.13 2.56,0.4 0.65,0.26 1.14,0.66 1.48,1.19 0.33,0.53 0.55,1.18 0.66,1.95 0.1,0.77 0.16,1.65 0.16,2.64 v 14.57 h 4.12 v -14.57 c 0,-1.23 -0.05,-2.41 -0.16,-3.54 -0.11,-1.12 -0.42,-2.11 -0.95,-2.96 -0.53,-0.84 -1.33,-1.52 -2.4,-2.03 -1.07,-0.51 -2.56,-0.77 -4.46,-0.77 -1.2,0 -2.24,0.18 -3.11,0.53 -0.88,0.35 -1.62,0.77 -2.22,1.24 -0.6,0.47 -1.08,0.96 -1.45,1.45 -0.37,0.49 -0.62,0.86 -0.77,1.11 z m -11.14,30.66 c -1.3,1.23 -2.43,2.05 -3.38,2.45 -0.95,0.4 -1.97,0.61 -3.06,0.61 -1.27,0 -2.33,-0.25 -3.19,-0.74 -0.86,-0.49 -1.56,-1.16 -2.08,-2.01 -0.53,-0.84 -0.91,-1.81 -1.13,-2.9 -0.23,-1.09 -0.34,-2.22 -0.34,-3.38 0,-1.16 0.13,-2.34 0.4,-3.54 0.26,-1.2 0.68,-2.28 1.24,-3.25 0.56,-0.97 1.28,-1.76 2.16,-2.38 0.88,-0.61 1.92,-0.92 3.11,-0.92 1.34,0 2.4,0.21 3.19,0.63 0.79,0.42 1.51,0.95 2.14,1.58 l 2,-3.01 c -1.02,-0.7 -2.14,-1.18 -3.35,-1.43 -1.21,-0.25 -2.4,-0.37 -3.56,-0.37 -1.79,0 -3.42,0.31 -4.88,0.92 -1.46,0.62 -2.69,1.48 -3.7,2.59 -1,1.11 -1.78,2.43 -2.32,3.96 -0.54,1.53 -0.82,3.21 -0.82,5.04 0,3.94 0.98,6.93 2.96,8.97 1.97,2.04 4.7,3.06 8.18,3.06 0.56,0 1.19,-0.06 1.87,-0.19 0.68,-0.13 1.38,-0.33 2.08,-0.63 0.7,-0.3 1.4,-0.72 2.09,-1.27 0.69,-0.54 1.35,-1.24 1.98,-2.08 z M 810.1,172.71 h -4.22 v 23.17 h 4.22 z m -0.21,-11.21 c -0.53,-0.55 -1.14,-0.82 -1.85,-0.82 -0.74,0 -1.37,0.27 -1.9,0.82 -0.53,0.54 -0.79,1.17 -0.79,1.87 0,0.7 0.26,1.32 0.79,1.85 0.53,0.53 1.16,0.79 1.9,0.79 0.71,0 1.32,-0.26 1.85,-0.79 0.53,-0.53 0.79,-1.14 0.79,-1.85 0,-0.71 -0.26,-1.33 -0.79,-1.87 m -23.63,34.38 h 3.9 v -11.14 c 0,-0.77 0.03,-1.55 0.08,-2.32 0.05,-0.78 0.17,-1.51 0.34,-2.22 0.39,-1.44 0.96,-2.65 1.72,-3.62 0.75,-0.97 1.61,-1.45 2.56,-1.45 1.59,0 2.43,0.86 2.53,2.58 l 3.43,-1.21 c -0.03,-0.78 -0.19,-1.44 -0.47,-2.01 -0.28,-0.56 -0.63,-1.01 -1.06,-1.35 -0.42,-0.33 -0.89,-0.58 -1.4,-0.74 -0.51,-0.16 -0.99,-0.24 -1.45,-0.24 -1.37,0 -2.57,0.39 -3.59,1.16 -1.02,0.77 -1.88,1.81 -2.59,3.11 l -0.53,-4.01 -3.96,0.37 c 0.03,0.18 0.08,0.48 0.13,0.92 0.05,0.44 0.11,0.94 0.16,1.51 0.05,0.56 0.1,1.14 0.13,1.74 0.03,0.6 0.05,1.16 0.05,1.69 v 17.23 z m -7.84,0 v -14.57 c 0,-1.23 -0.05,-2.41 -0.16,-3.54 -0.11,-1.12 -0.42,-2.11 -0.95,-2.96 -0.53,-0.84 -1.33,-1.52 -2.4,-2.03 -1.07,-0.51 -2.56,-0.77 -4.46,-0.77 -1.2,0 -2.24,0.19 -3.14,0.55 -0.9,0.37 -1.66,0.8 -2.27,1.29 -0.61,0.49 -1.11,0.99 -1.48,1.48 -0.37,0.49 -0.63,0.86 -0.77,1.11 l -0.53,-4.01 -3.96,0.37 c 0.03,0.18 0.08,0.48 0.13,0.92 0.05,0.44 0.11,0.94 0.16,1.51 0.05,0.56 0.1,1.14 0.13,1.74 0.03,0.6 0.05,1.16 0.05,1.69 v 17.21 h 4.12 V 182.9 c 0,-1.06 0.17,-2.06 0.5,-3.01 0.33,-0.95 0.79,-1.78 1.37,-2.48 0.58,-0.7 1.27,-1.26 2.06,-1.66 0.79,-0.4 1.66,-0.61 2.61,-0.61 1.06,0 1.91,0.13 2.56,0.4 0.65,0.26 1.14,0.66 1.48,1.19 0.34,0.53 0.55,1.18 0.66,1.95 0.11,0.77 0.16,1.65 0.16,2.64 v 14.57 z m -28.29,-23.17 h -4.22 v 23.17 h 4.22 z m -0.22,-11.21 c -0.53,-0.55 -1.14,-0.82 -1.85,-0.82 -0.74,0 -1.37,0.27 -1.9,0.82 -0.53,0.54 -0.79,1.17 -0.79,1.87 0,0.7 0.26,1.32 0.79,1.85 0.53,0.53 1.16,0.79 1.9,0.79 0.7,0 1.32,-0.26 1.85,-0.79 0.53,-0.53 0.79,-1.14 0.79,-1.85 0,-0.71 -0.26,-1.33 -0.79,-1.87 m -16.81,15.01 c 0.9,1.26 1.35,2.96 1.35,5.07 v 0.79 H 723 c 0.14,-1.02 0.39,-2 0.74,-2.93 0.35,-0.93 0.8,-1.76 1.35,-2.48 0.54,-0.72 1.19,-1.29 1.95,-1.72 0.76,-0.42 1.61,-0.63 2.56,-0.63 1.43,0 2.61,0.64 3.5,1.9 m 5.47,8.5 v -2.32 c 0,-1.3 -0.15,-2.59 -0.45,-3.88 -0.3,-1.29 -0.8,-2.43 -1.5,-3.43 -0.71,-1 -1.65,-1.81 -2.83,-2.43 -1.18,-0.61 -2.66,-0.92 -4.46,-0.92 -1.48,0 -2.86,0.3 -4.14,0.9 -1.29,0.6 -2.4,1.43 -3.35,2.51 -0.95,1.07 -1.7,2.36 -2.24,3.85 -0.55,1.5 -0.82,3.16 -0.82,4.99 0,4.05 0.93,7.11 2.8,9.19 1.86,2.08 4.63,3.11 8.29,3.11 1.9,0 3.57,-0.39 5.01,-1.16 1.44,-0.77 2.8,-1.9 4.07,-3.38 l -1.64,-1.69 c -1.55,1.37 -2.88,2.27 -3.98,2.69 -1.11,0.42 -2.19,0.63 -3.24,0.63 -2.32,0 -4.07,-0.75 -5.23,-2.25 -1.16,-1.49 -1.81,-3.63 -1.95,-6.41 z m -47.35,10.87 v -15.73 h 16.21 v 15.73 h 4.22 v -32.94 h -4.22 v 14.3 h -16.21 v -14.3 H 687 v 32.94 z" id="path3930"/>
    <path class="st0" d="m 962.74,331.33 h 34.73 c 15.24,0 27.6,-12.32 27.6,-27.53 0,-15.21 -12.36,-27.53 -27.6,-27.53 h -34.73 z" id="path3932" style="fill:#006ab3"/>
  </g>
</svg>