<svg xmlns="http://www.w3.org/2000/svg" width="269" height="84" fill="none" preserveAspectRatio="xMinYMin meet">
    <path fill="#fff"
          d="M125.71 16.74c3.97 0 5.95-.96 5.95-2.88 0-.96.33-1.44.97-1.44.7 0 1.05.8 1.05 2.4 0 1.54-.9 2.72-2.69 3.56-1.79.83-3.39 1.24-4.8 1.24-1.34 0-2.46-.06-3.36-.19-9.4-1.21-17.47-3.26-24.19-6.14-4.54 7.17-8.6 16.7-12.2 28.6a94.99 94.99 0 01-5.75 13.93c-2.43 4.99-5.09 9.12-7.97 12.38a36.33 36.33 0 01-9.8 7.87c-7.29 3.97-15.9 5.95-25.81 5.95a45.4 45.4 0 01-22.66-5.95c-6.91-3.9-10.94-9.92-12.1-18.05-.12-1.08-.19-2.68-.19-4.8 0-2.17.6-5.24 1.83-9.21a15.72 15.72 0 017.1-9.03c1.4-.83 2.46-1.24 3.17-1.24 1.15 0 1.66.54 1.53 1.63-.25.32-.92.86-2.01 1.63-1.03.7-2.02 1.47-2.98 2.3a12.9 12.9 0 00-2.88 3.65 18.33 18.33 0 00-2.5 9.5c0 8.07 2.76 14.28 8.26 18.63a32.07 32.07 0 009.89 5.57 32.87 32.87 0 0010.94 1.92H35c13.25-.32 24.13-5.12 32.64-14.4 5.38-5.83 12.74-18.98 22.08-39.46 3.2-7.04 5.25-11.17 6.15-12.38-11.33-3.59-21.5-5.38-30.53-5.38-9.02 0-16.35 2.72-21.98 8.16-4.55 4.35-6.82 8.9-6.82 13.63 0 5.19 2.27 8.48 6.82 9.9 1.6.44 3.04.66 4.32.66 1.34 0 2.84-.22 4.5-.67 1.74-.51 3.37-1.5 4.9-2.97a17.92 17.92 0 003.56-4.52c.83-1.47 1.18-2.59 1.05-3.36v-.19c.51-.45.96-.57 1.35-.38.38.13.57.51.57 1.15-.64 5-3.17 8.74-7.58 11.23-2.7 1.6-5.19 2.4-7.5 2.4-2.3 0-4.34-.32-6.13-.96-5.25-1.85-8.58-5.4-9.99-10.65-.45-1.67-.67-3.3-.67-4.9 0-3.84 1.18-7.58 3.55-11.23C39.51 7.72 46.13 3.78 55.15 2.44c2.05-.32 4-.48 5.86-.48 1.86 0 4 .1 6.43.29 2.5.19 5.76.83 9.8 1.92C81.32 5.26 85.48 6.54 89.7 8a702.8 702.8 0 007.68 2.5c3.14-3.85 5.47-5.8 7.01-5.86.32-.13.74-.2 1.25-.2.57 0 1.02.45 1.34 1.35.32.9.1 1.47-.67 1.73-.32.06-.73.03-1.25-.1-.38-.25-1.18.16-2.4 1.25a24.36 24.36 0 00-2.59 2.6c6.02 1.91 11.3 3.32 15.84 4.22 4.55.83 7.8 1.24 9.8 1.24zM110.35 39.4c4.67 0 7 2.94 7 8.83 0 2.69-.7 5.57-2.1 8.64a34.17 34.17 0 01-8.07 11.33c.83 1.6 2.34 2.4 4.51 2.4 1.73 0 3.36-.86 4.9-2.6a27.2 27.2 0 004.13-5.18l1.82-3.36c.39-.7.87-1.7 1.44-2.97l1.15-2.4c.13-.32.36-.48.68-.48.64-.07.96.16.96.67 0 .2-.07.42-.2.67L126 56.3c-.39.9-.67 1.53-.87 1.92l-1.05 2.1a17.9 17.9 0 01-1.25 2.31c-.32.58-.8 1.35-1.44 2.3-.58.97-1.12 1.73-1.63 2.31-.45.58-1.03 1.22-1.73 1.92s-1.38 1.25-2.02 1.63a8.85 8.85 0 01-4.5 1.44c-2.63 0-4.68-.83-6.15-2.5C102.4 71.92 99.69 73 97.2 73c-4.67 0-7.01-2.94-7.01-8.83 0-2.69.7-5.57 2.11-8.64a32.49 32.49 0 018.07-11.43c3.52-3.13 6.84-4.7 9.98-4.7zm1.06 2.98c-1.73 0-3.78 1.15-6.15 3.45-2.37 2.3-4.48 5.44-6.33 9.41-2.24 4.6-3.36 8.38-3.36 11.33 0 2.94 1.12 4.41 3.36 4.41 1.6 0 3.39-.86 5.37-2.59a8.1 8.1 0 01-1.53-4.7c.12-2.75 1.24-4.13 3.36-4.13.83 0 1.5.29 2.01.86.58.58.87 1.12.87 1.64 0 .44-.07.92-.2 1.44a54.15 54.15 0 003.75-6.82c1.6-3.26 2.4-6.46 2.4-9.6 0-3.14-1.19-4.7-3.55-4.7zm33.88 25.05c0 2.05.83 3.07 2.5 3.07 3 0 7-5.02 12-15.07.19-.38.35-.77.48-1.15.19-.38.44-.64.76-.77.39-.13.65-.03.77.29.13.26.07.7-.19 1.34C156.5 67.04 151.31 73 146.06 73c-1.73 0-3.1-.77-4.13-2.3a8.13 8.13 0 01-1.53-4.52c0-1.53.16-2.94.47-4.22-3.7 6.14-6.9 9.63-9.6 10.46-.76.32-1.53.48-2.3.48a8 8 0 01-2.11-.28c-3.14-.84-4.7-3.33-4.7-7.5 0-2.8.7-5.91 2.1-9.3a39.57 39.57 0 016.15-9.9 19.28 19.28 0 019.5-6.33 14.9 14.9 0 014.7-.67c1.86 0 3.91.58 6.15 1.73A347 347 0 00161.9 17.9c.9-2.12 1.76-3.46 2.6-4.04a4.3 4.3 0 012.4-.96h1.34c.19 0 .8.1 1.82.3 1.09.12 1.92.15 2.5.09-1.48 1.34-5.38 7.87-11.72 19.58-8.06 14.98-12.93 24.96-14.59 29.95-.64 1.86-.96 3.4-.96 4.61zm4.7-25.25c-.83-.83-2.01-1.24-3.55-1.24-1.47 0-3.55 1.12-6.24 3.36a44.4 44.4 0 00-10.65 13.24c-1.86 3.46-2.79 6.3-2.79 8.55 0 1.02.2 1.95.58 2.78a2.16 2.16 0 002.01 1.25c2.18 0 4.87-2.24 8.07-6.72 3.2-4.48 7.4-11.55 12.58-21.22zm27.77-2.78c4.67 0 7 2.94 7 8.83 0 2.69-.7 5.57-2.1 8.64a34.17 34.17 0 01-8.07 11.33c.83 1.6 2.34 2.4 4.51 2.4 1.73 0 3.36-.86 4.9-2.6a27.2 27.2 0 004.13-5.18l1.82-3.36c.38-.7.86-1.7 1.44-2.97l1.15-2.4c.13-.32.35-.48.67-.48.64-.07.96.16.96.67 0 .2-.06.42-.19.67l-.57 1.35c-.39.9-.68 1.53-.87 1.92l-1.05 2.1a17.9 17.9 0 01-1.25 2.31c-.32.58-.8 1.35-1.44 2.3-.58.97-1.12 1.73-1.64 2.31-.44.58-1.02 1.22-1.72 1.92s-1.38 1.25-2.02 1.63a8.85 8.85 0 01-4.51 1.44c-2.63 0-4.67-.83-6.15-2.5-2.94 2.18-5.66 3.27-8.16 3.27-4.67 0-7-2.94-7-8.83 0-2.69.7-5.57 2.1-8.64a32.49 32.49 0 018.07-11.43c3.52-3.13 6.85-4.7 9.99-4.7zm1.05 2.98c-1.72 0-3.77 1.15-6.14 3.45-2.37 2.3-4.48 5.44-6.34 9.41-2.24 4.6-3.36 8.38-3.36 11.33 0 2.94 1.12 4.41 3.36 4.41 1.6 0 3.4-.86 5.38-2.59a8.1 8.1 0 01-1.54-4.7c.13-2.75 1.25-4.13 3.36-4.13.84 0 1.5.29 2.02.86.57.58.86 1.12.86 1.64 0 .44-.06.92-.19 1.44a54.15 54.15 0 003.75-6.82c1.6-3.26 2.4-6.46 2.4-9.6 0-3.14-1.19-4.7-3.56-4.7zm26.78-6.72a4.47 4.47 0 01-2.97 1.15 3.2 3.2 0 01-2.6-1.15c-.64-.77-.9-1.7-.76-2.79.19-1.09.73-2.01 1.63-2.78a4.47 4.47 0 012.98-1.15 3.2 3.2 0 012.59 1.15c.7.77.96 1.7.76 2.78a4.66 4.66 0 01-1.63 2.79zm-9.4 35.23c1.21 0 2.5-.61 3.84-1.83 2.36-2.36 5.37-7.2 9.02-14.5.45-.95.9-1.24 1.34-.86.13.13.2.36.2.68 0 .25-.26.96-.77 2.1-.51 1.1-1 2.09-1.44 2.98-.39.9-1.19 2.37-2.4 4.42a29.51 29.51 0 01-3.17 4.6c-2.63 3.02-5.12 4.52-7.49 4.52-2.3 0-3.97-.7-5-2.11a7.81 7.81 0 01-1.53-4.7c0-1.73.42-3.62 1.25-5.67l6.15-15.65a5 5 0 00.19-1.53c0-.64-.39-1.48-1.16-2.5l5.28-.1c1.48 0 2.34.3 2.6.87.25.51.06 1.34-.58 2.5l-7.68 17.95c-1.09 2.36-1.63 4.38-1.63 6.04 0 1.86 1 2.79 2.97 2.79zm21.2.29c.83.12 1.4.19 1.72.19 2.56 0 5.09-1.5 7.59-4.51 1.34-1.67 3.74-5.86 7.2-12.58.12-.32.35-.48.67-.48.57-.06.86.16.86.67 0 .13-.16.51-.48 1.15l-.77 1.83c-.25.57-.67 1.44-1.24 2.59a31.95 31.95 0 01-1.54 2.78c-.38.7-.9 1.57-1.54 2.6a11.22 11.22 0 01-1.92 2.4l-2.01 2.1a9.1 9.1 0 01-3.84 2.31c-2.37.77-4.67.83-6.91.2-1.48.63-2.79.95-3.94.95-4.54 0-7.3-1.79-8.26-5.37a13.4 13.4 0 01-.28-2.98 5.9 5.9 0 011.15-3.45c.83-1.1 1.7-1.67 2.59-1.73 3.26-6.21 6.05-11.81 8.35-16.8 2.56-5.44 5.54-8.16 8.93-8.16.9 0 1.76.22 2.6.67.89.38 1.2.83.95 1.34-.19.52-.64.61-1.34.3a4.55 4.55 0 00-1.83-.49c-.5 0-.96.1-1.34.29-2.18 1.02-3.26 3.23-3.26 6.62 0 1.8.25 3.27.76 4.42.52 1.15 1.1 2.4 1.73 3.74 1.47 3.33 2.21 6.05 2.21 8.16 0 2.12-.67 4.2-2.02 6.24a17.9 17.9 0 01-4.8 5zm-3.27-.68c2.82-2.17 4.22-5.7 4.22-10.56 0-1.98-.22-4.7-.67-8.16-.45-3.45-.67-5.79-.67-7 0-1.22.03-2.05.1-2.5a844.95 844.95 0 01-9.03 17.76c1.35 0 2.02.96 2.02 2.88 0 3.78 1.34 6.3 4.03 7.58zm-7.2-2.59c0 .39.03.8.1 1.25.5 1.73 1.7 2.6 3.55 2.6.77 0 1.4-.14 1.92-.4-2.37-1.46-3.65-3.86-3.84-7.2a5.23 5.23 0 00-1.73 3.75zm43.86.77c0 1.8.64 2.69 1.92 2.69 3 0 7.26-5.63 12.77-16.9.44-.9.83-1.25 1.15-1.05.38.19.57.44.57.76s-.38 1.25-1.15 2.79a91.12 91.12 0 01-5.37 9.7c-2.95 4.47-6.08 6.71-9.41 6.71-2.18 0-3.9-.9-5.19-2.68a5.8 5.8 0 01-.86-3.36c0-1.48.32-3.24.96-5.28.64-2.05 2.4-5.38 5.28-9.99.7-1.15 1.06-2.05 1.06-2.69 0-.7-.55-1.05-1.63-1.05-1.1 0-3.17 1.44-6.25 4.32-4.6 4.22-9.08 10.56-13.44 19-.44.97-1.63 1.45-3.55 1.45-1.72.12-2.81.32-3.26.57 12.16-25.28 20.96-42.91 26.4-52.9 1.22-2.23 2.27-3.8 3.17-4.7a4.77 4.77 0 013.36-1.34c.32 0 .99.1 2.01.29 1.03.12 1.8.16 2.3.1-1.91 1.98-5.37 7.48-10.36 16.5a648.94 648.94 0 00-14.2 27.36c3-3.77 5.69-6.72 8.06-8.83a48.22 48.22 0 018.83-5.95c3.45-1.92 5.98-2.88 7.58-2.88.39 0 .74.06 1.06.2-7.87 13.82-11.81 22.87-11.81 27.16z"/>
    <path fill="#fff"
          d="M131 18.38l.63 1.36-.64-1.36zm-8.17 1.05l.22-1.48h-.02l-.2 1.48zM98.64 13.3l.6-1.38-1.18-.5-.69 1.07 1.27.8zm-12.2 28.6l1.44.45v-.01l-1.43-.43zM80.7 55.83l-1.34-.67 1.34.67zM72.72 68.2l-1.12-1 1.12 1zm-9.8 7.87l.73 1.32-.72-1.32zm-48.47 0l-.74 1.3.74-1.3zM2.35 58.02l-1.49.18v.03l1.5-.2zM4 44.01l-1.43-.46v.02l1.43.44zm7.1-9.03l-.76-1.29.76 1.3zm4.7.39l1.17.94.27-.34.05-.43-1.49-.17zM13.78 37l.85 1.24.01-.01-.86-1.23zm-2.98 2.3l.94 1.18.02-.02.02-.02-.98-1.14zm-2.88 3.65l1.3.77v-.01l-1.3-.76zm5.76 28.13l.96-1.16h-.02v-.02l-.94 1.18zm9.89 5.57l.5-1.42-.5 1.42zm11.42 1.92v1.5h.04l-.04-1.5zm32.64-14.4l-1.1-1.02 1.1 1.02zM89.71 24.7l1.37.62-1.37-.62zm6.15-12.38l1.2.89 1.25-1.69-2-.63-.45 1.43zM43.35 15.1l1.03 1.09-1.03-1.09zm0 23.52l-.45 1.43.02.01h.02l.4-1.44zm8.83 0l.39 1.45h.02l.01-.01-.42-1.44zm4.9-2.97l1.03 1.08-1.04-1.08zm3.55-4.52l-1.31-.73-.01.02-.01.02 1.33.7zm1.05-3.36h-1.5v.13l.02.12 1.48-.25zm0-.19l-.99-1.13-.5.45v.68h1.5zm1.35-.38l-.68 1.34.1.05.1.03.48-1.42zm.57 1.15l1.49.2.01-.1v-.1h-1.5zm-7.58 11.23l-.74-1.3h-.02l-.01.01.77 1.3zm-13.63 1.44l.5-1.41-.5 1.41zM32.4 30.38l1.45-.4-1.45.4zm2.88-16.13l1.26.81-1.26-.81zM55.15 2.44l.22 1.48h.01l-.23-1.48zm12.3-.2l-.13 1.5.12-1.5zm9.78 1.93l-.39 1.45.4-1.45zM89.71 8l-.49 1.41h.01l.02.01.46-1.42zm7.68 2.5l-.44 1.43.97.3.64-.79-1.17-.95zm7.01-5.86l.06 1.5.26-.01.24-.1-.56-1.4zm1.92 2.88l.3 1.47.09-.02.09-.03-.48-1.42zm-1.25-.1l-.83 1.25.22.14.25.07.36-1.46zm-2.4 1.25l1 1.12-1-1.12zm-2.59 2.6l-1.16-.96-1.4 1.71 2.1.67.46-1.43zm15.84 4.22l-.29 1.47h.02l.27-1.47zm9.8 2.74c2.05 0 3.81-.24 5.11-.87a4.28 4.28 0 001.7-1.4c.44-.63.63-1.35.63-2.1h-3c0 .2-.04.32-.1.4-.07.1-.21.25-.54.4-.68.34-1.9.57-3.8.57v3zm7.44-4.38c0-.16.02-.25.03-.3.01-.05.01-.01-.04.06a.72.72 0 01-.53.3v-3c-.75 0-1.5.32-1.96 1.03-.4.6-.5 1.31-.5 1.91h3zm-.53.06a.76.76 0 01-.45-.15c-.13-.1-.15-.18-.14-.14.02.04.06.15.1.36.02.21.04.49.04.83h3a6.1 6.1 0 00-.39-2.4 2.6 2.6 0 00-.8-1.04 2.24 2.24 0 00-1.37-.46v3zm-.45.9c0 .46-.12.82-.37 1.14-.26.34-.7.71-1.45 1.06l1.26 2.72a6.7 6.7 0 002.59-1.97c.65-.86.97-1.86.97-2.95h-3zm-1.82 2.2c-1.67.77-3.05 1.1-4.17 1.1v3c1.7 0 3.52-.5 5.44-1.38l-1.27-2.72zm-4.17 1.1c-1.3 0-2.34-.06-3.14-.17l-.43 2.97c1 .14 2.19.2 3.57.2v-3zm-3.16-.18c-9.31-1.2-17.24-3.22-23.8-6.03l-1.18 2.76c6.88 2.94 15.08 5.02 24.6 6.25l.38-2.98zm-25.66-5.46c-4.64 7.33-8.75 17-12.36 28.98l2.88.87C91.45 30.5 95.46 21.1 99.9 14.09l-2.54-1.6zM85.02 41.45a93.5 93.5 0 01-5.67 13.7l2.68 1.34a96.47 96.47 0 005.85-14.15l-2.86-.9zm-5.68 13.7a53.66 53.66 0 01-7.74 12.06l2.25 1.98a56.62 56.62 0 008.19-12.72l-2.7-1.31zM71.6 67.22a34.83 34.83 0 01-9.4 7.55l1.45 2.63a37.83 37.83 0 0010.2-8.2l-2.25-1.98zm-9.39 7.54c-7.03 3.83-15.39 5.77-25.1 5.77v3c10.12 0 18.98-2.02 26.54-6.13l-1.44-2.64zm-25.1 5.77a43.9 43.9 0 01-21.92-5.75l-1.48 2.6a46.9 46.9 0 0023.4 6.15v-3zm-21.92-5.75C8.69 71.1 4.93 65.5 3.84 57.8l-2.97.42c1.21 8.58 5.5 15 12.84 19.15l1.48-2.61zM3.84 57.85c-.11-1-.18-2.53-.18-4.63h-3c0 2.13.07 3.8.2 4.98l2.98-.35zm-.18-4.63c0-1.94.56-4.84 1.76-8.77l-2.87-.88c-1.23 4-1.89 7.25-1.89 9.65h3zm1.75-8.75a14.22 14.22 0 016.44-8.2l-1.53-2.58a17.21 17.21 0 00-7.76 9.86l2.85.92zm6.44-8.2c.67-.39 1.2-.66 1.64-.83.44-.17.68-.2.77-.2v-3c-.62 0-1.26.17-1.87.41-.63.25-1.32.6-2.06 1.04l1.52 2.59zm2.4-1.03a1.48 1.48 0 01.29.02l-.04-.01a.49.49 0 01-.2-.25l.01.04v.15l2.97.35c.1-.77 0-1.7-.68-2.42a3.12 3.12 0 00-2.34-.88v3zm.37-.8l-.03.02-.09.1-.35.29c-.3.24-.7.55-1.24.92l1.73 2.46c.56-.4 1.03-.75 1.4-1.05.35-.28.69-.58.92-.88l-2.34-1.87zm-1.7 1.32c-1.06.74-2.1 1.54-3.1 2.41l1.96 2.27c.92-.8 1.87-1.53 2.85-2.2l-1.7-2.48zm-3.06 2.37a14.35 14.35 0 00-3.24 4.07l2.6 1.5a11.49 11.49 0 012.52-3.22l-1.88-2.35zM6.63 42.2a19.83 19.83 0 00-2.7 10.27h3c0-3.28.77-6.18 2.28-8.74l-2.58-1.53zm-2.7 10.27c0 8.44 2.9 15.12 8.82 19.8l1.86-2.36c-5.09-4.02-7.68-9.76-7.68-17.44h-3zm8.8 19.78a33.57 33.57 0 0010.34 5.82l1-2.83c-3.49-1.22-6.63-2.99-9.43-5.3l-1.91 2.3zm10.34 5.82c3.8 1.34 7.62 2 11.44 2v-3c-3.47 0-6.95-.6-10.44-1.83l-1 2.83zm11.44 2H35v-3h-.01-.01-.01-.01-.01-.02-.01-.02-.02-.01-.07-.01-.02-.02-.01-.02-.01-.03-.02-.02-.01-.01-.01-.01-.01-.01-.01-.01-.03v3zm.52 0c13.63-.32 24.9-5.28 33.7-14.88l-2.2-2.03c-8.22 8.97-18.7 13.6-31.57 13.92l.07 3zm33.7-14.87c5.57-6.03 13.02-19.4 22.35-39.86l-2.73-1.24c-9.36 20.5-16.63 33.44-21.82 39.06l2.2 2.04zm22.35-39.86c1.6-3.51 2.9-6.29 3.91-8.33a32.43 32.43 0 012.07-3.78l-2.41-1.78c-.54.73-1.33 2.19-2.34 4.23-1.04 2.09-2.36 4.9-3.96 8.42l2.73 1.24zM96.3 10.9C84.88 7.28 74.55 5.45 65.33 5.45v3c8.83 0 18.85 1.76 30.07 5.3l.91-2.85zM65.33 5.45c-9.35 0-17.07 2.83-23.03 8.58l2.09 2.16c5.3-5.13 12.24-7.74 20.94-7.74v-3zM42.3 14.03c-4.74 4.54-7.28 9.45-7.28 14.71h3c0-4.2 2-8.38 6.35-12.54l-2.07-2.17zm-7.28 14.71c0 2.81.62 5.25 1.97 7.22a10.78 10.78 0 005.9 4.1l.89-2.86a7.8 7.8 0 01-4.32-2.95c-.92-1.33-1.44-3.13-1.44-5.5h-3zm7.91 11.34c1.7.47 3.27.72 4.73.72v-3c-1.11 0-2.42-.2-3.92-.61l-.8 2.89zm4.73.72a19 19 0 004.9-.72l-.78-2.9c-1.57.43-2.94.62-4.12.62v3zm4.93-.73c2-.6 3.83-1.72 5.51-3.33l-2.07-2.17a10.55 10.55 0 01-4.29 2.62l.85 2.88zm5.51-3.33a19.4 19.4 0 003.85-4.9l-2.66-1.39a16.44 16.44 0 01-3.27 4.12l2.08 2.17zm3.82-4.86c.45-.79.8-1.54 1.01-2.23.22-.68.34-1.4.22-2.11l-2.96.5c.01.05.02.27-.12.71-.13.43-.38.98-.76 1.66l2.61 1.47zm1.25-4.1v-.19h-3v.2h3zm-.51.94l.16-.12c.02-.02.02 0-.02 0a.7.7 0 01-.46-.05l1.35-2.68c-1.22-.61-2.34 0-3 .6l1.97 2.25zm-.12-.09a.79.79 0 01-.43-.37c-.05-.1-.02-.1-.02.1h3c0-.85-.27-2.13-1.6-2.57l-.95 2.84zm-.44-.46a12.88 12.88 0 01-6.83 10.12l1.48 2.6a15.87 15.87 0 008.33-12.34l-2.98-.38zM55.25 38.3c-2.54 1.51-4.77 2.2-6.72 2.2v3c2.65 0 5.41-.93 8.25-2.62l-1.53-2.58zm-6.72 2.2c-2.17 0-4.04-.3-5.64-.88l-1 2.82c1.97.71 4.2 1.05 6.64 1.05v-3zm-5.64-.88c-4.8-1.7-7.76-4.88-9.04-9.63l-2.9.77c1.54 5.74 5.24 9.67 10.94 11.69l1-2.83zm-9.04-9.63a17.28 17.28 0 01-.62-4.51h-3c0 1.74.24 3.5.72 5.29l2.9-.78zm-.62-4.51c0-3.51 1.08-6.98 3.3-10.42l-2.5-1.63c-2.51 3.86-3.8 7.88-3.8 12.05h3zm3.31-10.42C40.5 8.96 46.7 5.22 55.37 3.92L54.93.96c-9.37 1.4-16.4 5.52-20.9 12.47l2.51 1.63zM55.38 3.92c1.98-.3 3.86-.46 5.63-.46v-3c-1.94 0-3.97.17-6.09.5l.46 2.96zm5.63-.46c1.8 0 3.9.1 6.31.28l.24-2.99C65.1.55 62.9.46 61 .46v3zm6.32.28c2.36.19 5.52.8 9.51 1.88l.78-2.9A57.48 57.48 0 0067.56.75l-.23 3zm9.52 1.88c4.06 1.08 8.18 2.34 12.37 3.8l.99-2.83a174.07 174.07 0 00-12.6-3.87l-.76 2.9zm12.4 3.81c4.28 1.4 6.85 2.25 7.7 2.5l.88-2.86a704.5 704.5 0 01-7.65-2.49l-.93 2.85zm9.3 2.02a31.45 31.45 0 013.9-4.14c1.13-.94 1.77-1.15 2.01-1.16l-.12-3c-1.3.05-2.6.85-3.8 1.86a34.33 34.33 0 00-4.3 4.55l2.32 1.9zm6.4-5.4c.09-.04.3-.1.7-.1v-3c-.62 0-1.25.08-1.8.3l1.1 2.8zm.7-.1a.5.5 0 01-.2-.04.32.32 0 01-.1-.06l.08.1c.04.08.1.2.15.35l2.83-1c-.38-1.06-1.18-2.34-2.76-2.34v3zm-.07.35c.05.13.05.2.05.21 0 0 0-.05.04-.15a.6.6 0 01.16-.23c.05-.05.07-.04.02-.03l.95 2.85a2.6 2.6 0 001.66-1.5c.3-.77.17-1.54-.05-2.15l-2.83 1zm.45-.24h-.15c-.1-.01-.25-.03-.44-.08l-.73 2.9a4.4 4.4 0 001.9.12l-.58-2.94zm-.13.12c-.95-.63-1.97-.19-2.4.04-.57.3-1.19.77-1.83 1.34l2 2.24c.58-.52.97-.8 1.2-.92.12-.06.13-.04.04-.03a1 1 0 01-.67-.17l1.67-2.5zm-4.22 1.38a25.75 25.75 0 00-2.76 2.76l2.32 1.9c.5-.61 1.3-1.42 2.43-2.42l-2-2.24zm-2.05 5.14a147.56 147.56 0 0016 4.27l.58-2.95c-4.47-.88-9.7-2.27-15.67-4.18l-.91 2.86zm16.02 4.27c4.55.83 7.93 1.27 10.06 1.27v-3c-1.83 0-4.98-.39-9.52-1.22l-.54 2.95zm-.4 39.9l-1.37-.62v.01l-.01.02 1.38.6zm-8.07 11.33l-1.03-1.09-.82.78.52 1 1.33-.69zm9.41-.2l-1.08-1.04-.02.03-.02.02 1.12 1zm4.13-5.18l1.3.74.01-.01v-.01l-1.31-.72zm1.82-3.36l1.32.72-1.32-.72zm1.44-2.97l-1.35-.65v.02l-.02.01 1.37.62zm1.15-2.4l1.35.67.02-.06.03-.05-1.4-.56zm.68-.48v1.5H125.96l-.15-1.5zm.76 1.34l-1.34-.67-.02.04-.01.04 1.37.6zM126 56.3l-1.38-.6 1.38.6zm-.87 1.92l-1.34-.67 1.34.67zm-1.05 2.1l-1.34-.66-.01.02-.01.01 1.36.64zm-1.25 2.31l-1.25-.83-.03.05-.03.05 1.31.73zm-1.44 2.3l-1.25-.83-.02.03-.02.03 1.29.78zm-1.63 2.31l-1.12-1-.04.04-.03.04 1.19.92zm-1.73 1.92l-1.06-1.06 1.06 1.06zm-2.02 1.63l-.77-1.28.77 1.28zm-10.65-1.05l1.12-1-.9-1.03-1.11.82.89 1.2zM92.3 55.53l1.37.62v-.01l.01-.02-1.38-.6zm8.07-11.43l-1-1.12-.01.01 1 1.11zm4.9 1.73l-1.05-1.07 1.04 1.07zm-6.34 9.41l1.34.66.01-.01v-.01l-1.35-.64zm5.37 13.15l.99 1.13 1.01-.88-.77-1.1-1.23.85zm-1.53-4.7l-1.5-.07v.07h1.5zm5.37-3.27l-1.12 1 .03.03.03.03 1.06-1.06zm.67 3.08l-1.45-.37 2.7 1.2-1.25-.83zm3.75-6.82l-1.35-.66v.01l1.35.65zm-2.21-15.78c2 0 3.27.61 4.08 1.64.87 1.1 1.43 2.9 1.43 5.7h3c0-3.11-.61-5.71-2.08-7.56-1.52-1.92-3.76-2.78-6.43-2.78v3zm5.5 7.33c0 2.43-.63 5.1-1.97 8.02l2.73 1.25a22.32 22.32 0 002.25-9.27h-3zm-1.98 8.05a32.67 32.67 0 01-7.72 10.83l2.06 2.18a35.67 35.67 0 008.41-11.82l-2.75-1.2zm-8.02 12.61c1.15 2.21 3.25 3.21 5.84 3.21v-3c-1.75 0-2.66-.6-3.18-1.6l-2.66 1.4zm5.84 3.21c2.3 0 4.3-1.16 6.02-3.1l-2.24-1.99c-1.35 1.52-2.6 2.09-3.78 2.09v3zm5.98-3.05a28.62 28.62 0 004.35-5.49l-2.6-1.47a25.75 25.75 0 01-3.9 4.87l2.15 2.1zm4.37-5.51l1.82-3.36-2.64-1.43-1.82 3.36 2.64 1.43zm1.82-3.36c.41-.75.9-1.78 1.49-3.08l-2.74-1.23a44.45 44.45 0 01-1.39 2.88l2.64 1.43zm1.48-3.05l1.14-2.37-2.69-1.34-1.16 2.42 2.7 1.3zm1.19-2.48a.74.74 0 01-.26.3.82.82 0 01-.46.16v-3a2.18 2.18 0 00-2.07 1.42l2.79 1.12zm-.57.45c.17-.02-.02.05-.3-.14a.98.98 0 01-.33-.41.7.7 0 01-.06-.27h3c0-.58-.2-1.3-.88-1.78a2.54 2.54 0 00-1.73-.38l.3 2.98zm-.7-.82l.01-.08v-.02.03l-.04.07 2.69 1.34c.18-.37.35-.83.35-1.34h-3zm-.06.08l-.58 1.35 2.76 1.18.57-1.35-2.75-1.18zm-.58 1.35c-.38.89-.66 1.5-.83 1.84l2.69 1.34c.2-.43.51-1.1.9-2l-2.76-1.18zm-.83 1.84l-1.05 2.1 2.68 1.35 1.06-2.11-2.69-1.34zm-1.07 2.14a16.5 16.5 0 01-1.14 2.11l2.5 1.66c.44-.66.9-1.5 1.36-2.5l-2.72-1.27zm-1.2 2.21c-.3.53-.75 1.26-1.38 2.2l2.5 1.67a36.4 36.4 0 001.5-2.4l-2.62-1.47zm-1.42 2.26c-.54.92-1.03 1.6-1.46 2.08l2.24 2c.6-.67 1.2-1.52 1.8-2.53l-2.58-1.55zm-1.53 2.16c-.4.51-.93 1.1-1.6 1.78l2.12 2.12c.73-.73 1.35-1.42 1.85-2.06l-2.37-1.84zm-1.6 1.78a9.32 9.32 0 01-1.73 1.4l1.55 2.58c.77-.47 1.54-1.1 2.3-1.86l-2.12-2.12zm-1.73 1.4a7.38 7.38 0 01-3.74 1.23v3c1.76 0 3.53-.6 5.29-1.65l-1.55-2.57zm-3.74 1.23c-2.28 0-3.88-.7-5.02-1.99l-2.25 1.99c1.81 2.04 4.3 3 7.27 3v-3zm-7.03-2.2c-2.8 2.07-5.22 2.97-7.27 2.97v3c2.93 0 5.96-1.28 9.05-3.56l-1.78-2.41zM97.2 71.5c-2 0-3.27-.61-4.08-1.64-.87-1.1-1.43-2.9-1.43-5.7h-3c0 3.11.6 5.71 2.08 7.56 1.52 1.92 3.76 2.78 6.43 2.78v-3zm-5.51-7.33c0-2.43.64-5.1 1.98-8.02l-2.73-1.25a22.31 22.31 0 00-2.25 9.27h3zm2-8.05c1.83-4.3 4.4-7.92 7.68-10.9l-2.01-2.23a33.98 33.98 0 00-8.44 11.95l2.76 1.18zm7.67-10.9c3.38-3 6.37-4.32 8.99-4.32v-3c-3.65 0-7.32 1.82-10.98 5.08l2 2.24zm10.05-4.34c-2.35 0-4.77 1.52-7.2 3.88l2.1 2.15c2.31-2.25 3.99-3.03 5.1-3.03v-3zm-7.2 3.88c-2.53 2.46-4.73 5.76-6.64 9.84l2.72 1.28c1.8-3.86 3.81-6.83 6.02-8.97l-2.1-2.15zm-6.63 9.82c-2.28 4.69-3.51 8.7-3.51 11.99h3c0-2.6 1-6.14 3.2-10.67l-2.7-1.32zm-3.51 11.99c0 1.62.3 3.1 1.14 4.22a4.46 4.46 0 003.72 1.7v-3c-.77 0-1.11-.24-1.33-.52-.27-.36-.53-1.08-.53-2.4h-3zm4.86 5.91c2.13 0 4.26-1.13 6.36-2.96l-1.97-2.26c-1.88 1.63-3.33 2.22-4.4 2.22v3zm6.6-4.94a6.6 6.6 0 01-1.26-3.85h-3c0 2 .62 3.86 1.8 5.56l2.46-1.71zm-1.27-3.78c.06-1.22.33-1.89.6-2.22.23-.27.57-.48 1.27-.48v-3c-1.42 0-2.7.48-3.6 1.59a6.68 6.68 0 00-1.26 3.97l3 .14zm1.87-2.7c.44 0 .69.13.9.36l2.23-2a4.06 4.06 0 00-3.13-1.36v3zm.95.42c.22.22.33.38.39.49.05.1.04.12.04.09h3c0-1.1-.61-2-1.3-2.7l-2.13 2.12zm.43.58c0 .3-.05.66-.15 1.07l2.9.73c.16-.61.25-1.21.25-1.8h-3zm2.55 2.28a55.55 55.55 0 003.85-7.01l-2.7-1.3a52.78 52.78 0 01-3.64 6.62l2.49 1.69zm3.84-7a23.2 23.2 0 002.56-10.26h-3c0 2.87-.73 5.85-2.25 8.94l2.7 1.32zm2.56-10.26c0-1.71-.32-3.27-1.2-4.43a4.62 4.62 0 00-3.85-1.77v3c.82 0 1.21.25 1.46.58.31.4.59 1.2.59 2.62h3zm43.33 8.35l-1.34-.67 1.34.67zm.48-1.15l-1.34-.67-.05.1-.04.1 1.43.47zm.76-.77l-.47-1.42-.04.01-.04.02.56 1.4zm.77.29l-1.39.56.02.05.03.06 1.34-.67zm-.19 1.34l1.38.6v-.02l.01-.02-1.39-.56zm-20.74 6.82l1.46.36-2.74-1.14 1.28.78zm-9.6 10.46l-.44-1.43-.07.02-.06.03.58 1.38zm-4.41.2l.4-1.45h-.02l-.38 1.45zm-2.6-16.8l-1.37-.6v.02l1.38.58zm6.15-9.9l1.15.97-1.15-.96zm9.5-6.33l.43 1.44h.02l.03-.02-.47-1.42zm10.85 1.06l-.68 1.33 1.31.68.7-1.3-1.33-.71zM161.9 17.9l1.37.6v-.02l-1.37-.58zm2.6-4.04l.84 1.24h.01l.01-.02-.87-1.22zm5.56-.67l-.28 1.48h.05l.05.01.18-1.49zm2.5.1l1 1.1 3.4-3.1-4.57.5.17 1.5zm-11.72 19.58l-1.32-.71 1.32.71zm-14.59 29.95l1.42.5v-.02l-1.42-.48zM150 42.18l1.32.71.52-.98-.78-.79-1.06 1.06zm-9.8 2.12l-.96-1.16.96 1.16zm-10.65 13.24l1.32.71-1.32-.7zm-2.21 11.33l-1.36.63.02.04.02.04 1.32-.7zm10.08-5.47l-1.22-.87 1.22.87zm6.37 4.03c0 1.19.24 2.36.96 3.25a3.76 3.76 0 003.04 1.32v-3c-.51 0-.65-.14-.71-.21-.1-.13-.29-.5-.29-1.36h-3zm4 4.57c1.17 0 2.29-.48 3.31-1.22 1.03-.74 2.07-1.8 3.12-3.11 2.1-2.63 4.4-6.51 6.91-11.57l-2.69-1.34c-2.47 5-4.67 8.65-6.57 11.04-.95 1.2-1.8 2.02-2.52 2.54s-1.23.66-1.56.66v3zm13.34-15.9c.22-.44.4-.89.56-1.35l-2.85-.94c-.1.3-.23.63-.4.95l2.69 1.34zm.48-1.15l.05-.09-.02.02a.3.3 0 01-.05.02l-1.11-2.78c-.74.3-1.24.86-1.55 1.49l2.68 1.34zm-.1-.02l-.14.03c-.09 0-.22 0-.38-.07a1 1 0 01-.58-.53l2.78-1.12a2 2 0 00-2.63-1.15l.95 2.84zm-1.05-.46a.86.86 0 01-.1-.3v-.05c0 .02 0 .07-.03.16l-.11.3L163 55.7c.16-.38.28-.77.34-1.16.05-.36.06-.9-.2-1.41l-2.68 1.34zm-.23.08c-2.53 5.89-5.03 10.2-7.48 13-2.45 2.82-4.68 3.95-6.7 3.95v3c3.25 0 6.23-1.84 8.96-4.98 2.74-3.14 5.4-7.77 7.98-13.78l-2.76-1.19zM146.06 71.5c-1.19 0-2.11-.48-2.88-1.64l-2.5 1.67a6.23 6.23 0 005.38 2.97v-3zm-2.88-1.64a6.64 6.64 0 01-1.28-3.68h-3c0 1.84.64 3.63 1.78 5.35l2.5-1.67zm-1.28-3.68c0-1.43.14-2.71.43-3.86l-2.91-.72a18.9 18.9 0 00-.52 4.58h3zm-2.3-5a44.69 44.69 0 01-5.01 6.99c-1.53 1.67-2.79 2.52-3.76 2.82l.89 2.87c1.71-.53 3.4-1.84 5.08-3.66a47.61 47.61 0 005.36-7.46l-2.57-1.56zm-8.9 9.86c-.6.25-1.18.36-1.73.36v3c.98 0 1.95-.2 2.88-.6l-1.15-2.76zm-1.73.36a6.5 6.5 0 01-1.72-.23l-.79 2.9a9.5 9.5 0 002.51.33v-3zm-1.73-.23a4.21 4.21 0 01-2.64-1.85c-.58-.93-.94-2.28-.94-4.2h-3c0 2.26.42 4.23 1.4 5.8a7.2 7.2 0 004.41 3.15l.77-2.9zm-3.58-6.04c0-2.57.64-5.48 2-8.74l-2.78-1.15a26 26 0 00-2.22 9.89h3zm1.99-8.73c1.4-3.3 3.37-6.48 5.91-9.5l-2.3-1.93a41.09 41.09 0 00-6.37 10.26l2.76 1.17zm5.91-9.5a17.78 17.78 0 018.78-5.87l-.85-2.88a20.77 20.77 0 00-10.23 6.82l2.3 1.92zm8.83-5.88c1.16-.4 2.56-.6 4.23-.6v-3c-1.91 0-3.65.24-5.18.75l.95 2.84zm4.23-.6c1.55 0 3.36.48 5.46 1.56l1.37-2.67a15.1 15.1 0 00-6.83-1.89v3zm7.47.93c4.36-8.22 8.1-15.83 11.18-22.85l-2.74-1.2a345.96 345.96 0 01-11.1 22.64l2.66 1.41zm11.19-22.87c.43-1 .83-1.79 1.2-2.36.38-.6.68-.9.86-1.02l-1.7-2.47c-.65.45-1.2 1.11-1.68 1.86-.5.77-.97 1.72-1.44 2.82l2.76 1.17zm2.08-3.4c.78-.55 1.27-.68 1.53-.68v-3c-1.15 0-2.25.52-3.27 1.24l1.74 2.44zm1.53-.68H168.24v-3h-.03-.01-.01-.01-.01-.01-.01-.01-.02-.01-.01-.01-.01-.02-.01-.03-.03-.01-.02-.01-.01-.02-.01-.01-.07-.01-.01-.02-.01-.02-.01-.01-.01-.01-.01-.01-.02-.01-.02-.01-.01-.03-.01-.01-.01-.01-.01-.01-.01-.01-.01-.01-.01-.01-.01-.01-.03-.01-.01-.03-.01-.02-.01-.02-.01-.02-.01-.01-.01-.02-.02-.02-.02-.02-.02-.01-.01-.01-.02-.01-.01-.01-.02-.01-.02-.01-.01-.02-.01-.03-.01-.01v3zm1.35 0c-.05 0-.05 0 .04.01l.32.05 1.18.2.56-2.94-1.27-.23c-.28-.04-.6-.09-.83-.09v3zm1.64.28c1.12.13 2.1.18 2.84.1l-.33-2.98c-.4.04-1.1.03-2.16-.1l-.35 2.98zm1.66-2.5c-.5.47-1.11 1.26-1.78 2.24a81.87 81.87 0 00-2.52 4 388.1 388.1 0 00-7.72 13.74l2.64 1.43a384.13 384.13 0 017.65-13.63c.97-1.62 1.78-2.9 2.42-3.85.68-.98 1.11-1.5 1.34-1.71l-2.03-2.22zm-12.02 19.98c-8.05 14.95-12.98 25.05-14.7 30.19l2.85.95c1.62-4.85 6.42-14.72 14.5-29.72l-2.65-1.42zm-14.69 30.18a16.2 16.2 0 00-1.04 5.1h3c0-.99.26-2.34.88-4.13l-2.84-.98zm6.22-21.22a6.29 6.29 0 00-4.6-1.68v3c1.26 0 2.01.33 2.48.8l2.13-2.12zm-4.6-1.68c-1.1 0-2.24.4-3.38 1.02a23.88 23.88 0 00-3.83 2.68l1.92 2.3c1.3-1.07 2.4-1.85 3.33-2.34.94-.5 1.57-.66 1.95-.66v-3zm-7.2 3.7a45.88 45.88 0 00-11.03 13.7l2.65 1.41a42.92 42.92 0 0110.3-12.8l-1.93-2.3zm-11.03 13.7c-1.9 3.53-2.96 6.64-2.96 9.25h3c0-1.87.8-4.46 2.6-7.84l-2.64-1.42zm-2.96 9.25c0 1.21.23 2.36.72 3.41l2.72-1.26a5.08 5.08 0 01-.44-2.15h-3zm.76 3.5a3.69 3.69 0 003.34 2.04v-3.01a.7.7 0 01-.4-.09.94.94 0 01-.3-.37l-2.64 1.42zm3.33 2.03c1.6 0 3.15-.81 4.61-2.03a28.62 28.62 0 004.68-5.32l-2.44-1.74a25.77 25.77 0 01-4.16 4.76c-1.23 1.02-2.1 1.33-2.69 1.33v3zm9.29-7.35c3.26-4.56 7.49-11.7 12.68-21.38l-2.65-1.42c-5.17 9.66-9.33 16.66-12.47 21.06l2.44 1.74zm44.01-7.4l-1.36-.62v.01l-.01.02 1.37.6zM174.6 68.2l-1.03-1.09-.82.78.52 1 1.33-.69zm9.4-.2l-1.07-1.04-.02.03-.03.02 1.13 1zm4.13-5.18l1.31.74v-.01l.01-.01-1.31-.72zm1.83-3.36l1.31.72-1.31-.72zm1.44-2.97l-1.36-.65v.03l1.36.62zm1.15-2.4l1.34.67.03-.06.02-.05-1.39-.56zm.67-.48v1.5H193.36l-.15-1.5zm.77 1.34l-1.34-.67-.02.04-.02.04 1.38.6zm-.57 1.35l-1.38-.6 1.38.6zm-.87 1.92l-1.34-.67 1.34.67zm-1.05 2.1l-1.35-.66v.02l-.01.01 1.36.64zm-1.25 2.31l-1.25-.83-.03.05-.03.05 1.3.73zm-1.44 2.3l-1.25-.83-.02.03-.02.03 1.29.78zm-1.64 2.31l-1.12-1-.03.04-.03.04 1.19.92zm-1.72 1.92l-1.06-1.06 1.06 1.06zm-2.02 1.63l-.77-1.28.77 1.28zm-10.66-1.05l1.13-1-.91-1.03-1.1.82.88 1.2zm-13.05-14.21l1.36.62.01-.01v-.02l-1.37-.6zm8.06-11.43l-1-1.12V43l1 1.11zm4.9 1.73l-1.05-1.07 1.05 1.07zm-6.34 9.41l1.35.66v-.01l.01-.01-1.36-.64zm5.38 13.15l.98 1.13 1.02-.88-.77-1.1-1.23.85zm-1.54-4.7l-1.5-.07v.07h1.5zm5.38-3.27l-1.12 1 .03.03.03.03 1.06-1.06zm.67 3.08l-1.46-.37 2.7 1.2-1.24-.83zm3.75-6.82l-1.35-.66v.01l1.34.65zm-2.21-15.78c2 0 3.26.61 4.08 1.64.87 1.1 1.42 2.9 1.42 5.7h3c0-3.11-.6-5.71-2.07-7.56-1.52-1.92-3.76-2.78-6.43-2.78v3zm5.5 7.33c0 2.43-.63 5.1-1.97 8.02l2.73 1.25a22.3 22.3 0 002.24-9.27h-3zm-1.98 8.05a32.67 32.67 0 01-7.72 10.83l2.06 2.18a35.66 35.66 0 008.41-11.82l-2.75-1.2zm-8.02 12.61c1.15 2.21 3.24 3.21 5.84 3.21v-3c-1.75 0-2.66-.6-3.18-1.6l-2.66 1.4zm5.84 3.21c2.29 0 4.3-1.16 6.02-3.1l-2.25-1.99c-1.35 1.52-2.6 2.09-3.77 2.09v3zm5.97-3.05a28.58 28.58 0 004.36-5.49l-2.61-1.47a25.83 25.83 0 01-3.9 4.87l2.15 2.1zm4.37-5.51l1.82-3.36-2.63-1.43c-.38.7-1 1.82-1.82 3.36l2.63 1.43zm1.82-3.36c.42-.75.91-1.78 1.5-3.08l-2.74-1.23a44.45 44.45 0 01-1.39 2.88l2.63 1.43zm1.48-3.05l1.14-2.37-2.68-1.34-1.17 2.42 2.71 1.3zm1.2-2.48a.74.74 0 01-.26.3.82.82 0 01-.47.16v-3a2.18 2.18 0 00-2.06 1.42l2.78 1.12zm-.58.45c.18-.02-.02.05-.29-.14a.98.98 0 01-.33-.41.7.7 0 01-.07-.27h3c0-.58-.2-1.3-.88-1.78a2.54 2.54 0 00-1.73-.38l.3 2.98zm-.69-.82v-.08l.01-.02v.03l-.04.07 2.68 1.34c.19-.37.35-.83.35-1.34h-3zm-.07.08l-.57 1.35 2.75 1.18.58-1.35-2.76-1.18zm-.57 1.35c-.39.89-.66 1.5-.83 1.84l2.68 1.34c.22-.43.52-1.1.9-2l-2.75-1.18zm-.83 1.84l-1.06 2.1 2.69 1.35c.5-1.03.86-1.73 1.05-2.11l-2.68-1.34zm-1.07 2.14c-.44.93-.81 1.62-1.14 2.11l2.5 1.66c.44-.66.89-1.5 1.35-2.5l-2.72-1.27zm-1.2 2.21c-.3.53-.75 1.26-1.38 2.2l2.5 1.67c.64-.97 1.15-1.78 1.5-2.4l-2.63-1.47zm-1.42 2.26a14 14 0 01-1.47 2.08l2.25 2c.59-.67 1.19-1.52 1.8-2.53l-2.58-1.55zm-1.53 2.16c-.4.51-.93 1.1-1.6 1.78l2.12 2.12c.73-.73 1.35-1.42 1.85-2.06l-2.37-1.84zm-1.6 1.78a9.29 9.29 0 01-1.73 1.4l1.54 2.58a12.2 12.2 0 002.3-1.86l-2.11-2.12zm-1.73 1.4a7.38 7.38 0 01-3.74 1.23v3c1.75 0 3.52-.6 5.28-1.65l-1.54-2.57zm-3.74 1.23c-2.28 0-3.89-.7-5.02-1.99l-2.25 1.99c1.81 2.04 4.3 3 7.27 3v-3zm-7.04-2.2c-2.8 2.07-5.2 2.97-7.27 2.97v3c2.94 0 5.97-1.28 9.06-3.56l-1.79-2.41zm-7.27 2.97c-2 0-3.26-.61-4.08-1.64-.86-1.1-1.42-2.9-1.42-5.7h-3c0 3.11.6 5.71 2.07 7.56 1.52 1.92 3.76 2.78 6.44 2.78v-3zm-5.5-7.33c0-2.43.63-5.1 1.97-8.02l-2.72-1.25a22.3 22.3 0 00-2.25 9.27h3zm1.99-8.05a31 31 0 017.69-10.9l-2.02-2.23a33.98 33.98 0 00-8.43 11.95l2.76 1.18zm7.68-10.9c3.38-3 6.36-4.32 8.99-4.32v-3c-3.65 0-7.32 1.82-10.98 5.08l1.99 2.24zm10.04-4.34c-2.35 0-4.77 1.52-7.19 3.88l2.1 2.15c2.3-2.25 3.99-3.03 5.1-3.03v-3zm-7.19 3.88c-2.53 2.46-4.74 5.76-6.65 9.84l2.72 1.28c1.8-3.86 3.82-6.83 6.03-8.97l-2.1-2.15zm-6.64 9.82c-2.27 4.69-3.5 8.7-3.5 11.99h3c0-2.6 1-6.14 3.2-10.67l-2.7-1.32zm-3.5 11.99c0 1.62.3 3.1 1.14 4.22a4.46 4.46 0 003.71 1.7v-3c-.76 0-1.1-.24-1.32-.52-.28-.36-.54-1.08-.54-2.4h-3zm4.85 5.91c2.13 0 4.27-1.13 6.36-2.96l-1.97-2.26c-1.87 1.63-3.32 2.22-4.39 2.22v3zm6.61-4.94a6.59 6.59 0 01-1.27-3.85h-3c0 2 .62 3.86 1.8 5.56l2.47-1.71zm-1.27-3.78c.06-1.22.33-1.89.6-2.22.22-.27.56-.48 1.26-.48v-3c-1.4 0-2.69.48-3.59 1.59a6.68 6.68 0 00-1.27 3.97l3 .14zm1.86-2.7c.44 0 .7.13.9.36l2.24-2a4.07 4.07 0 00-3.14-1.36v3zm.96.42c.21.22.32.38.38.49.05.1.04.12.04.09h3c0-1.1-.6-2-1.3-2.7l-2.12 2.12zm.42.58c0 .3-.04.66-.15 1.07l2.92.73c.15-.61.23-1.21.23-1.8h-3zm2.55 2.28a55.66 55.66 0 003.86-7.01l-2.7-1.3a52.65 52.65 0 01-3.64 6.62l2.48 1.69zm3.85-7a23.2 23.2 0 002.56-10.26h-3c0 2.87-.74 5.85-2.25 8.94l2.7 1.32zm2.56-10.26c0-1.71-.32-3.27-1.2-4.43a4.62 4.62 0 00-3.86-1.77v3c.82 0 1.22.25 1.47.58.3.4.59 1.2.59 2.62h3zm21.72-11.42l-.97-1.14.97 1.14zm-5.56 0l1.15-.96-1.16.96zm-.77-2.79l-1.48-.26v.04l-.01.05 1.49.17zm7.2-2.78l-1.16.96.03.03.02.02 1.1-1.01zm.76 2.78l1.48.26-1.47-.26zm-7.2 36.2l1.01 1.1.03-.02.03-.03-1.06-1.06zm9.03-14.5l1.34.67v-.02l.02-.02-1.36-.63zm1.34-.87l1.06-1.06-.04-.04-.04-.03-.98 1.13zm-.57 2.79l1.35.64.01-.02v-.01l-1.36-.61zm-1.44 2.97l-1.34-.67-.03.04-.01.04 1.38.6zm-2.4 4.42l-1.3-.77v.01l1.3.76zm-3.17 4.6l-1.13-.98 1.13.99zm-12.48 2.4l-1.21.89 1.2-.88zm-.29-10.36l1.39.56v-.01l-1.39-.55zm6.15-15.65l1.4.55v-.04l.02-.03-1.43-.48zm-.97-4.03l-.02-1.5-2.94.05 1.77 2.35 1.2-.9zm5.28-.1v-1.5h-.02l.03 1.5zm2.6.87l-1.37.6.01.04.01.03 1.35-.67zm-.58 2.5l-1.31-.73-.04.06-.03.07 1.38.6zm-7.68 17.95l1.36.62.01-.02.01-.01-1.38-.6zm9.78-27.54c-.65.55-1.3.79-2 .79v3c1.47 0 2.8-.54 3.95-1.52l-1.95-2.27zm-2 .79c-.7 0-1.12-.22-1.44-.61l-2.3 1.92a4.7 4.7 0 003.74 1.69v-3zm-1.44-.61a2.03 2.03 0 01-.43-1.65l-2.98-.35a5.02 5.02 0 001.1 3.92l2.3-1.92zm-.45-1.57c.13-.72.48-1.34 1.14-1.9l-1.96-2.28a6.15 6.15 0 00-2.13 3.66l2.95.52zm1.14-1.9c.64-.56 1.3-.8 2-.8v-3c-1.48 0-2.81.54-3.96 1.52l1.96 2.28zm2-.8c.68 0 1.1.23 1.43.62l2.3-1.92a4.7 4.7 0 00-3.73-1.7v3zm1.48.67c.37.4.51.85.4 1.51l2.95.52a4.6 4.6 0 00-1.14-4.06l-2.2 2.03zm.4 1.51a3.17 3.17 0 01-1.13 1.9l1.95 2.28a6.16 6.16 0 002.13-3.66l-2.95-.52zm-9.56 39.78c1.73 0 3.35-.87 4.84-2.21l-2.01-2.23c-1.2 1.09-2.14 1.44-2.84 1.44v3zm4.9-2.27c2.55-2.55 5.65-7.59 9.3-14.88l-2.68-1.34c-3.65 7.3-6.57 11.93-8.75 14.1l2.13 2.12zm9.32-14.92c.08-.18.15-.3.2-.35.04-.07.02-.02-.08.04a1 1 0 01-1.11-.05l1.95-2.27a2 2 0 00-2.46-.2c-.6.39-.97 1.04-1.22 1.56l2.72 1.27zm-1.08-.44a.92.92 0 01-.24-.38c-.01-.06 0-.07 0 0h3a2.4 2.4 0 00-.64-1.74l-2.12 2.12zm-.25-.38c0-.14.03-.2 0-.11 0 .06-.04.16-.1.31-.1.3-.28.74-.53 1.3l2.74 1.22a24.13 24.13 0 00.8-2.06c.04-.15.1-.4.1-.66h-3zm-.62 1.47c-.5 1.08-.98 2.06-1.43 2.94l2.69 1.34c.45-.9.94-1.9 1.45-3l-2.71-1.28zM207 58.87c-.34.8-1.1 2.2-2.31 4.24l2.58 1.54a45.49 45.49 0 002.48-4.6L207 58.87zm-2.32 4.26a28.1 28.1 0 01-3 4.37l2.25 1.98a31.01 31.01 0 003.34-4.85l-2.59-1.5zm-3 4.37c-2.53 2.9-4.65 4-6.36 4v3c3.02 0 5.9-1.9 8.62-5.03l-2.26-1.97zm-6.36 4c-2 0-3.12-.6-3.78-1.5l-2.42 1.77c1.39 1.92 3.59 2.73 6.2 2.73v-3zm-3.78-1.5a6.31 6.31 0 01-1.25-3.82h-3a9.3 9.3 0 001.83 5.59l2.42-1.76zm-1.25-3.82c0-1.48.36-3.18 1.14-5.1l-2.78-1.12a16.65 16.65 0 00-1.36 6.22h3zm1.15-5.11l6.14-15.65-2.8-1.1-6.13 15.65 2.79 1.1zm6.17-15.72c.2-.6.27-1.3.27-2.01h-3c0 .56-.06.89-.12 1.06l2.85.95zm.27-2.01c0-1.16-.66-2.33-1.45-3.4l-2.4 1.8c.73.98.85 1.47.85 1.6h3zm-2.63-1l5.28-.1-.05-3-5.28.1.05 3zm5.25-.1c.67 0 1.07.07 1.28.14.22.07.05.08-.05-.16l2.74-1.22a2.77 2.77 0 00-1.74-1.46 7.16 7.16 0 00-2.22-.3v3zm1.25.04c-.08-.18-.01-.24-.07 0-.05.23-.19.58-.47 1.1l2.62 1.45a7.4 7.4 0 00.78-1.88c.13-.6.17-1.32-.17-2.01l-2.69 1.34zm-.6 1.23l-7.69 17.96 2.76 1.18 7.68-17.96-2.76-1.18zm-7.67 17.92c-1.13 2.46-1.77 4.7-1.77 6.67h3c0-1.36.45-3.15 1.5-5.42l-2.73-1.25zm-1.77 6.67a4.2 4.2 0 001.22 3.19c.88.82 2.06 1.1 3.25 1.1v-3c-.78 0-1.09-.19-1.2-.3-.1-.08-.27-.32-.27-.99h-3zm25.67 3.08l-.85-1.24-3.1 2.14 3.73.58.22-1.48zm9.32-4.32l1.15.95.01-.01-1.16-.94zm7.2-12.58l1.33.69.03-.07.03-.06-1.4-.56zm.67-.48v1.5h.16l-.16-1.5zm.38 1.82l-1.34-.67-.02.03v.03l1.36.61zm-.77 1.83l1.38.6v-.02l.02-.02-1.4-.56zm-1.24 2.59l1.34.67-1.34-.67zm-1.54 2.78l-1.27-.8-.02.04-.03.05 1.32.71zm-1.54 2.6l-1.27-.8 1.27.8zm-1.92 2.4l-1-1.12-.04.04-.04.04 1.08 1.04zm-2.01 2.1l1.06 1.07.01-.01.01-.02-1.08-1.03zm-3.84 2.31l-.44-1.43h-.02l.46 1.43zm-6.91.2l.4-1.45-.5-.15-.5.22.6 1.37zM202.98 68l-1.46.34v.02l.01.03 1.45-.4zm.87-6.43l-1.2-.92-.01.03-.02.02 1.23.87zm2.59-1.73l.1 1.5.84-.07.39-.73-1.33-.7zm8.35-16.8l-1.35-.64h-.01l1.36.64zm11.52-7.49l-.7 1.32.05.03.06.03.6-1.38zm.96 1.34l-1.34-.67-.03.07-.03.08 1.4.52zm-1.34.3l-.62 1.36.62-1.37zm-3.17-.2l.64 1.36.01-.01h.02l-.67-1.35zm-.77 14.78l1.37-.6v-.02l-.01-.02-1.36.64zm.2 14.4l-1.26-.82 1.25.82zm-8.07 4.32l-.65 1.36.84.4.73-.57-.92-1.19zm3.55-18.72l1.49-.19-1.49.2zm-.57-9.5l1.48.21-2.83-.88 1.35.67zm-9.03 17.76l-1.31-.72-1.22 2.22h2.53v-1.5zm-1.05 9.12l-1.49.21.02.11.03.1 1.44-.42zm5.47 2.2l.67 1.35 2.4-1.2-2.28-1.42-.8 1.28zm-3.84-7.2l1.5-.08-.2-3.34-2.36 2.37 1.06 1.06zm8.5 8.5c.83.13 1.51.2 1.96.2v-3c-.19 0-.66-.04-1.5-.17l-.45 2.97zm1.96.2c3.2 0 6.11-1.88 8.74-5.05l-2.3-1.91c-2.37 2.85-4.52 3.97-6.44 3.97v3zm8.75-5.06c1.46-1.81 3.93-6.15 7.37-12.83l-2.67-1.38c-3.47 6.76-5.8 10.8-7.03 12.32l2.33 1.89zm7.43-12.96a.74.74 0 01-.26.3.82.82 0 01-.46.16v-3a2.18 2.18 0 00-2.07 1.42l2.79 1.12zm-.56.45c.12-.01-.13.05-.44-.19a.89.89 0 01-.36-.63h3c0-.52-.15-1.24-.8-1.73a2.36 2.36 0 00-1.73-.43l.33 2.98zm-.8-.82c0-.12.02-.21.03-.24v-.05l.01-.01-.01.03-.03.08-.32.67 2.68 1.34a14.31 14.31 0 00.54-1.23 2 2 0 00.1-.59h-3zm-.35.54c-.26.6-.53 1.23-.79 1.88l2.79 1.12c.25-.63.5-1.22.74-1.78l-2.74-1.22zm-.77 1.83c-.24.54-.64 1.38-1.22 2.53l2.69 1.34c.58-1.16 1-2.04 1.28-2.65l-2.75-1.22zm-1.22 2.53c-.56 1.13-1.05 2-1.46 2.65l2.54 1.6c.48-.75 1.02-1.73 1.6-2.9l-2.68-1.35zm-1.5 2.74c-.37.66-.87 1.5-1.5 2.51l2.55 1.6a53.5 53.5 0 001.58-2.68l-2.64-1.43zm-1.5 2.51a9.78 9.78 0 01-1.65 2.08l2 2.23c.78-.7 1.5-1.62 2.2-2.72l-2.55-1.59zm-1.73 2.16l-2.02 2.11 2.17 2.07 2.02-2.1-2.17-2.08zm-2 2.09a7.6 7.6 0 01-3.2 1.93l.87 2.87a10.6 10.6 0 004.46-2.68l-2.12-2.12zm-3.24 1.94c-2.1.68-4.1.72-6.03.17l-.83 2.89c2.55.72 5.16.64 7.8-.21l-.94-2.85zm-7.04.24a8.59 8.59 0 01-3.34.83v3c1.42 0 2.94-.39 4.53-1.08l-1.2-2.75zm-3.34.83c-2.09 0-3.6-.4-4.65-1.1a5.16 5.16 0 01-2.16-3.16l-2.9.78a8.14 8.14 0 003.42 4.9c1.7 1.1 3.84 1.58 6.29 1.58v-3zm-6.8-4.2c-.15-.7-.24-1.57-.24-2.65h-3c0 1.23.1 2.34.32 3.32l2.93-.68zm-.24-2.65c0-.87.27-1.73.87-2.59l-2.45-1.73a7.39 7.39 0 00-1.42 4.32h3zm.84-2.54c.7-.93 1.22-1.13 1.5-1.15l-.2-2.99c-1.51.1-2.73 1.06-3.68 2.31l2.38 1.83zm2.73-1.94a368.4 368.4 0 008.38-16.87l-2.72-1.26a365.1 365.1 0 01-8.32 16.73l2.66 1.4zm8.38-16.86c2.51-5.34 5.11-7.3 7.57-7.3v-3c-4.33 0-7.68 3.48-10.28 9.02l2.7 1.28zm7.57-7.3c.63 0 1.25.15 1.88.5l1.42-2.65a6.9 6.9 0 00-3.3-.85v3zm2 .55c.16.07.26.12.3.16.06.03.03.03-.02-.04a.83.83 0 01-.14-.43.78.78 0 01.07-.4l2.68 1.34a2.17 2.17 0 00-.17-2.26c-.4-.56-1-.9-1.54-1.13l-1.18 2.76zm.15-.56a.71.71 0 01.18-.26c.13-.12.28-.2.43-.23.13-.03.21 0 .22 0l-.15-.06-1.24 2.73c.46.2 1.1.41 1.8.27a2.15 2.15 0 001.57-1.4l-2.81-1.05zm.68-.55a6.01 6.01 0 00-2.45-.62v3c.22 0 .6.08 1.2.35l1.25-2.73zm-2.45-.62c-.7 0-1.38.13-2.01.45l1.34 2.68c.14-.07.35-.13.67-.13v-3zm-1.98.43c-2.91 1.37-4.12 4.29-4.12 7.98h3c0-3.08.96-4.59 2.4-5.26l-1.28-2.72zM218 43.62c0 1.92.27 3.62.9 5.03l2.73-1.22c-.4-.9-.63-2.14-.63-3.8h-3zm.9 5.03c.51 1.17 1.1 2.43 1.74 3.78l2.7-1.3c-.63-1.33-1.2-2.56-1.7-3.7l-2.75 1.22zm1.72 3.74c1.44 3.26 2.08 5.75 2.08 7.55h3c0-2.42-.83-5.36-2.34-8.76l-2.74 1.21zm2.08 7.55c0 1.78-.56 3.58-1.77 5.42l2.5 1.65a12.75 12.75 0 002.27-7.07h-3zm-1.77 5.42a16.4 16.4 0 01-4.4 4.58l1.7 2.47c2.03-1.4 3.77-3.2 5.2-5.4l-2.5-1.65zm-5.9 6.33c3.31-2.55 4.81-6.6 4.81-11.75h-3c0 4.59-1.31 7.58-3.64 9.38l1.84 2.37zm4.81-11.75c0-2.08-.23-4.87-.68-8.35l-2.97.39c.44 3.43.65 6.08.65 7.96h3zm-.68-8.35a66.2 66.2 0 01-.66-6.81h-3c0 1.32.24 3.75.69 7.2l2.97-.39zm-.66-6.81c0-1.23.03-1.96.08-2.29l-2.97-.42c-.08.57-.11 1.5-.11 2.7h3zm-2.75-3.17a847.04 847.04 0 01-9 17.71l2.64 1.44c1.17-2.14 4.19-8.1 9.05-17.8l-2.69-1.35zm-7.68 19.93c.16 0 .23.03.24.03l.04.05c.09.11.24.47.24 1.3h3c0-1.09-.18-2.17-.78-3.02a3.22 3.22 0 00-2.74-1.36v3zm.52 1.38c0 2.06.36 3.9 1.18 5.43a7.97 7.97 0 003.7 3.5l1.3-2.7a4.97 4.97 0 01-2.35-2.2 8.52 8.52 0 01-.83-4.03h-3zm-3.17 5c0 .46.04.95.11 1.45l2.97-.42a7.33 7.33 0 01-.08-1.04h-3zm.16 1.67c.33 1.1.91 2.06 1.82 2.73.91.66 2 .93 3.17.93v-3a2.3 2.3 0 01-1.4-.36c-.27-.2-.53-.53-.72-1.16l-2.87.86zm4.99 3.66c.92 0 1.81-.15 2.59-.54l-1.34-2.68c-.25.12-.64.22-1.25.22v3zm2.71-3.16c-1.87-1.16-2.96-3.06-3.13-6l-3 .16c.22 3.71 1.68 6.61 4.55 8.4l1.58-2.56zm-5.7-6.98a6.72 6.72 0 00-2.16 4.8h3c0-.86.36-1.75 1.29-2.68l-2.12-2.12zm57.89-8.64l-1.35-.67v.01l1.35.66zm1.15-1.05l-.77 1.28.05.03.05.03.67-1.34zm-.58 3.55l-1.34-.67-.01.02 1.35.65zm-2.2 4.32l-1.32-.72v.01l-.01.01 1.32.7zm-3.17 5.37l1.25.83v-.01l.02-.02-1.27-.8zm-14.6 4.04l-1.23.85.01.02 1.22-.87zm5.38-18.63l1.27.8.01-.02-1.28-.78zm-6.81.58l1 1.1h.02l-1.03-1.1zm-13.44 19l-1.34-.68-.01.03-.01.02 1.35.64zm-3.56 1.45v-1.5h-.11l.11 1.5zm-3.26.57l-1.35-.65-2.1 4.35 4.2-2.4-.75-1.3zm26.4-52.9l1.32.72-1.32-.71zm3.17-4.7l-1.03-1.1-.02.02-.01.02 1.06 1.06zm5.37-1.05l-.27 1.47h.04l.05.01.18-1.48zm2.3.1l1.08 1.04 2.97-3.06-4.23.52.19 1.5zm-10.36 16.5l-1.31-.72 1.3.72zm-14.2 27.36l-1.36-.66 2.52 1.6-1.17-.94zm8.06-8.83l-.99-1.13-.01.01 1 1.12zm8.83-5.95l.7 1.32h.02l-.72-1.32zm8.64-2.69l1.3.74.85-1.5-1.6-.63-.55 1.4zm-13.31 27.17c0 1.03.17 2.07.76 2.89.65.9 1.62 1.3 2.66 1.3v-3a.52.52 0 01-.2-.03c-.01 0 0 0 0 0l-.02-.02c-.06-.07-.2-.38-.2-1.14h-3zm3.42 4.19c1.22 0 2.37-.57 3.4-1.37a18.42 18.42 0 003.24-3.45c2.22-2.93 4.7-7.26 7.47-12.92l-2.7-1.32c-2.73 5.6-5.12 9.73-7.16 12.43a15.55 15.55 0 01-2.68 2.89c-.78.6-1.29.74-1.57.74v3zm14.1-17.73c.1-.18.18-.32.24-.4.06-.1.09-.12.06-.1a.9.9 0 01-.4.2 1.17 1.17 0 01-.85-.14l1.54-2.57c-.4-.24-.88-.33-1.36-.22-.43.1-.74.33-.95.52-.4.37-.71.88-.95 1.37l2.68 1.34zm-.85-.38c.05.02-.02 0-.1-.1a.77.77 0 01-.16-.47h3c0-1.09-.71-1.77-1.4-2.12l-1.34 2.69zm-.25-.58c0-.15.03-.21-.01-.08l-.17.45c-.17.41-.44 1-.82 1.75l2.68 1.34c.4-.78.7-1.43.91-1.95l.27-.71c.05-.18.13-.48.13-.8h-3zm-1.01 2.14a89.92 89.92 0 01-2.17 4.25l2.63 1.44c.78-1.44 1.53-2.9 2.25-4.4l-2.71-1.29zm-2.18 4.27c-.68 1.3-1.71 3.05-3.11 5.28l2.54 1.6a85 85 0 003.22-5.49l-2.65-1.39zm-3.1 5.25c-2.84 4.32-5.58 6.04-8.15 6.04v3c4.08 0 7.61-2.76 10.66-7.4l-2.5-1.64zm-8.15 6.04a4.56 4.56 0 01-3.97-2.06l-2.44 1.75a7.55 7.55 0 006.4 3.31v-3zm-3.95-2.04c-.35-.5-.6-1.29-.6-2.5h-3c0 1.6.33 3.05 1.13 4.21l2.47-1.7zm-.6-2.5c0-1.27.28-2.87.9-4.84l-2.87-.9a19.64 19.64 0 00-1.03 5.74h3zm.9-4.84c.57-1.84 2.23-5.02 5.11-9.63l-2.54-1.6c-2.88 4.6-4.74 8.08-5.44 10.34l2.86.9zm5.12-9.65c.72-1.17 1.28-2.38 1.28-3.47h-3c0 .2-.15.78-.84 1.91l2.56 1.56zm1.28-3.47c0-.8-.35-1.57-1.1-2.05-.63-.4-1.38-.5-2.03-.5v3c.2 0 .32.01.4.03.07.02.06.03 0 0a.65.65 0 01-.27-.48h3zm-3.13-2.55c-.58 0-1.14.18-1.63.4-.5.23-1.04.55-1.6.94a37.25 37.25 0 00-4.04 3.38l2.05 2.2a34.36 34.36 0 013.7-3.1c.47-.34.85-.56 1.13-.69.3-.13.42-.13.38-.13v-3zm-7.26 4.71c-4.79 4.4-9.36 10.9-13.76 19.43l2.67 1.37c4.3-8.36 8.69-14.53 13.12-18.59l-2.03-2.2zm-13.78 19.48c-.05.1-.37.58-2.2.58v3c2.02 0 4.06-.49 4.91-2.31l-2.72-1.27zm-2.3.58c-.9.07-1.66.15-2.27.26-.56.1-1.17.24-1.64.51l1.5 2.6c-.02.01.14-.06.66-.16.48-.08 1.13-.16 1.96-.22l-.22-2.99zm-1.81 2.72c12.16-25.28 20.95-42.88 26.37-52.83l-2.64-1.43C244 30.08 235.2 47.74 223.03 73.02l2.7 1.3zM252.1 21.5c1.2-2.21 2.17-3.62 2.9-4.36l-2.11-2.12c-1.06 1.06-2.2 2.78-3.43 5.05l2.64 1.43zm2.87-4.32a3.27 3.27 0 012.34-.94v-3c-1.67 0-3.16.6-4.39 1.75l2.05 2.19zm2.34-.94c.15 0 .68.06 1.74.26l.55-2.95a15 15 0 00-2.3-.31v3zm1.83.27c1.05.14 1.97.19 2.67.1l-.37-2.98a8.9 8.9 0 01-1.93-.1l-.37 2.98zm1.4-2.43c-1.07 1.11-2.49 3.1-4.22 5.86a239.18 239.18 0 00-6.37 10.97l2.62 1.45c2.5-4.5 4.59-8.1 6.3-10.82 1.72-2.75 3-4.5 3.83-5.37l-2.15-2.1zm-10.6 16.83a650.69 650.69 0 00-14.24 27.42l2.7 1.32a648.36 648.36 0 0114.17-27.3l-2.63-1.44zm-11.72 29.02a71.28 71.28 0 017.9-8.65l-2-2.24a74.14 74.14 0 00-8.24 9.02l2.34 1.87zm7.88-8.64a46.74 46.74 0 018.56-5.76l-1.42-2.64a49.7 49.7 0 00-9.1 6.14l1.96 2.26zm8.58-5.77c1.69-.94 3.11-1.62 4.29-2.07a7.83 7.83 0 012.56-.62v-3c-1.06 0-2.3.31-3.63.82a36.95 36.95 0 00-4.68 2.25l1.46 2.62zm6.85-2.69c.22 0 .38.04.5.08l1.11-2.78c-.51-.2-1.06-.3-1.6-.3v3zm-.25-2.05a188.64 188.64 0 00-8.92 17.3c-1.98 4.54-3.08 8.13-3.08 10.61h3c0-1.8.86-4.89 2.83-9.41a185.89 185.89 0 018.78-17.02l-2.6-1.48z"/>
</svg>